  0
SECTION
  2
HEADER
  9
$ACADVER
  1
AC1024
  9
$ACADMAINTVER
 70
     6
  9
$DWGCODEPAGE
  3
UNDEFINED
  9
$INSBASE
 10
0.0
 20
0.0
 30
0.0
  9
$EXTMIN
 10
1.000000000000000E+20
 20
1.000000000000000E+20
 30
1.000000000000000E+20
  9
$EXTMAX
 10
-1.000000000000000E+20
 20
-1.000000000000000E+20
 30
-1.000000000000000E+20
  9
$LIMMIN
 10
0.0
 20
0.0
  9
$LIMMAX
 10
12.0
 20
9.0
  9
$ORTHOMODE
 70
     0
  9
$REGENMODE
 70
     1
  9
$FILLMODE
 70
     1
  9
$QTEXTMODE
 70
     0
  9
$MIRRTEXT
 70
     1
  9
$LTSCALE
 40
1.0
  9
$ATTMODE
 70
     1
  9
$TEXTSIZE
 40
0.2
  9
$TRACEWID
 40
0.05
  9
$TEXTSTYLE
  7
Standard
  9
$CLAYER
  8
0
  9
$CELTYPE
  6
ByLayer
  9
$CECOLOR
 62
   256
  9
$CELTSCALE
 40
1.0
  9
$DISPSILH
 70
     0
  9
$DIMSCALE
 40
1.0
  9
$DIMASZ
 40
0.18
  9
$DIMEXO
 40
0.0625
  9
$DIMDLI
 40
0.38
  9
$DIMRND
 40
0.0
  9
$DIMDLE
 40
0.0
  9
$DIMEXE
 40
0.18
  9
$DIMTP
 40
0.0
  9
$DIMTM
 40
0.0
  9
$DIMTXT
 40
0.18
  9
$DIMCEN
 40
0.09
  9
$DIMTSZ
 40
0.0
  9
$DIMTOL
 70
     0
  9
$DIMLIM
 70
     0
  9
$DIMTIH
 70
     1
  9
$DIMTOH
 70
     1
  9
$DIMSE1
 70
     0
  9
$DIMSE2
 70
     0
  9
$DIMTAD
 70
     0
  9
$DIMZIN
 70
     0
  9
$DIMBLK
  1

  9
$DIMASO
 70
     1
  9
$DIMSHO
 70
     1
  9
$DIMPOST
  1

  9
$DIMAPOST
  1

  9
$DIMALT
 70
     0
  9
$DIMALTD
 70
     2
  9
$DIMALTF
 40
25.4
  9
$DIMLFAC
 40
1.0
  9
$DIMTOFL
 70
     0
  9
$DIMTVP
 40
0.0
  9
$DIMTIX
 70
     0
  9
$DIMSOXD
 70
     0
  9
$DIMSAH
 70
     0
  9
$DIMBLK1
  1

  9
$DIMBLK2
  1

  9
$DIMSTYLE
  2
Standard
  9
$DIMCLRD
 70
     0
  9
$DIMCLRE
 70
     0
  9
$DIMCLRT
 70
     0
  9
$DIMTFAC
 40
1.0
  9
$DIMGAP
 40
0.09
  9
$DIMJUST
 70
     0
  9
$DIMSD1
 70
     0
  9
$DIMSD2
 70
     0
  9
$DIMTOLJ
 70
     1
  9
$DIMTZIN
 70
     0
  9
$DIMALTZ
 70
     0
  9
$DIMALTTZ
 70
     0
  9
$DIMUPT
 70
     0
  9
$DIMDEC
 70
     4
  9
$DIMTDEC
 70
     4
  9
$DIMALTU
 70
     2
  9
$DIMALTTD
 70
     2
  9
$DIMTXSTY
  7
Standard
  9
$DIMAUNIT
 70
     0
  9
$DIMADEC
 70
     0
  9
$DIMALTRND
 40
0.0
  9
$DIMAZIN
 70
     0
  9
$DIMDSEP
 70
    46
  9
$DIMATFIT
 70
     3
  9
$DIMFRAC
 70
     0
  9
$DIMLDRBLK
  1

  9
$DIMLUNIT
 70
     2
  9
$DIMLWD
 70
    -2
  9
$DIMLWE
 70
    -2
  9
$DIMTMOVE
 70
     0
  9
$DIMFXL
 40
1.0
  9
$DIMFXLON
 70
     0
  9
$DIMJOGANG
 40
0.7853981633974483
  9
$DIMTFILL
 70
     0
  9
$DIMTFILLCLR
 70
     0
  9
$DIMARCSYM
 70
     0
  9
$DIMLTYPE
  6

  9
$DIMLTEX1
  6

  9
$DIMLTEX2
  6

  9
$DIMTXTDIRECTION
 70
     0
  9
$LUNITS
 70
     2
  9
$LUPREC
 70
     4
  9
$SKETCHINC
 40
0.1
  9
$FILLETRAD
 40
0.5
  9
$AUNITS
 70
     0
  9
$AUPREC
 70
     0
  9
$MENU
  1
.
  9
$ELEVATION
 40
0.0
  9
$PELEVATION
 40
0.0
  9
$THICKNESS
 40
0.0
  9
$LIMCHECK
 70
     0
  9
$CHAMFERA
 40
0.5
  9
$CHAMFERB
 40
0.5
  9
$CHAMFERC
 40
1.0
  9
$CHAMFERD
 40
0.0
  9
$SKPOLY
 70
     0
  9
$TDCREATE
 40
2459861.748495359
  9
$TDUCREATE
 40
2459861.519328704
  9
$TDUPDATE
 40
2459861.748495359
  9
$TDUUPDATE
 40
2459861.519328704
  9
$TDINDWG
 40
0.0000000116
  9
$TDUSRTIMER
 40
0.0000000116
  9
$USRTIMER
 70
     1
  9
$ANGBASE
 50
0.0
  9
$ANGDIR
 70
     0
  9
$PDMODE
 70
     0
  9
$PDSIZE
 40
0.0
  9
$PLINEWID
 40
0.0
  9
$SPLFRAME
 70
     0
  9
$SPLINETYPE
 70
     6
  9
$SPLINESEGS
 70
     8
  9
$HANDSEED
  5
366
  9
$SURFTAB1
 70
     6
  9
$SURFTAB2
 70
     6
  9
$SURFTYPE
 70
     6
  9
$SURFU
 70
     6
  9
$SURFV
 70
     6
  9
$UCSBASE
  2

  9
$UCSNAME
  2

  9
$UCSORG
 10
0.0
 20
0.0
 30
0.0
  9
$UCSXDIR
 10
1.0
 20
0.0
 30
0.0
  9
$UCSYDIR
 10
0.0
 20
1.0
 30
0.0
  9
$UCSORTHOREF
  2

  9
$UCSORTHOVIEW
 70
     0
  9
$UCSORGTOP
 10
0.0
 20
0.0
 30
0.0
  9
$UCSORGBOTTOM
 10
0.0
 20
0.0
 30
0.0
  9
$UCSORGLEFT
 10
0.0
 20
0.0
 30
0.0
  9
$UCSORGRIGHT
 10
0.0
 20
0.0
 30
0.0
  9
$UCSORGFRONT
 10
0.0
 20
0.0
 30
0.0
  9
$UCSORGBACK
 10
0.0
 20
0.0
 30
0.0
  9
$PUCSBASE
  2

  9
$PUCSNAME
  2

  9
$PUCSORG
 10
0.0
 20
0.0
 30
0.0
  9
$PUCSXDIR
 10
1.0
 20
0.0
 30
0.0
  9
$PUCSYDIR
 10
0.0
 20
1.0
 30
0.0
  9
$PUCSORTHOREF
  2

  9
$PUCSORTHOVIEW
 70
     0
  9
$PUCSORGTOP
 10
0.0
 20
0.0
 30
0.0
  9
$PUCSORGBOTTOM
 10
0.0
 20
0.0
 30
0.0
  9
$PUCSORGLEFT
 10
0.0
 20
0.0
 30
0.0
  9
$PUCSORGRIGHT
 10
0.0
 20
0.0
 30
0.0
  9
$PUCSORGFRONT
 10
0.0
 20
0.0
 30
0.0
  9
$PUCSORGBACK
 10
0.0
 20
0.0
 30
0.0
  9
$USERI1
 70
     0
  9
$USERI2
 70
     0
  9
$USERI3
 70
     0
  9
$USERI4
 70
     0
  9
$USERI5
 70
     0
  9
$USERR1
 40
0.0
  9
$USERR2
 40
0.0
  9
$USERR3
 40
0.0
  9
$USERR4
 40
0.0
  9
$USERR5
 40
0.0
  9
$WORLDVIEW
 70
     1
  9
$SHADEDGE
 70
     3
  9
$SHADEDIF
 70
    70
  9
$TILEMODE
 70
     1
  9
$MAXACTVP
 70
    64
  9
$PINSBASE
 10
0.0
 20
0.0
 30
0.0
  9
$PLIMCHECK
 70
     0
  9
$PEXTMIN
 10
1.000000000000000E+20
 20
1.000000000000000E+20
 30
1.000000000000000E+20
  9
$PEXTMAX
 10
-1.000000000000000E+20
 20
-1.000000000000000E+20
 30
-1.000000000000000E+20
  9
$PLIMMIN
 10
0.0
 20
0.0
  9
$PLIMMAX
 10
12.0
 20
9.0
  9
$UNITMODE
 70
     0
  9
$VISRETAIN
 70
     1
  9
$PLINEGEN
 70
     0
  9
$PSLTSCALE
 70
     1
  9
$TREEDEPTH
 70
  3020
  9
$CMLSTYLE
  2
Standard
  9
$CMLJUST
 70
     0
  9
$CMLSCALE
 40
1.0
  9
$PROXYGRAPHICS
 70
     1
  9
$MEASUREMENT
 70
     0
  9
$CELWEIGHT
370
    -1
  9
$ENDCAPS
280
     0
  9
$JOINSTYLE
280
     0
  9
$LWDISPLAY
290
     1
  9
$INSUNITS
 70
     4
  9
$HYPERLINKBASE
  1

  9
$STYLESHEET
  1

  9
$XEDIT
290
     1
  9
$CEPSNTYPE
380
     0
  9
$PSTYLEMODE
290
     1
  9
$FINGERPRINTGUID
  2
{B419DA72-6DDC-61F5-B076-C6BCECA69361}
  9
$VERSIONGUID
  2
{FAEB1C32-E019-11D5-929B-00C0DF256EC4}
  9
$EXTNAMES
290
     1
  9
$PSVPSCALE
 40
0.0
  9
$OLESTARTUP
290
     0
  9
$SORTENTS
280
   127
  9
$INDEXCTL
280
     0
  9
$HIDETEXT
280
     1
  9
$XCLIPFRAME
280
     2
  9
$HALOGAP
280
     0
  9
$OBSCOLOR
 70
   257
  9
$OBSLTYPE
280
     0
  9
$INTERSECTIONDISPLAY
280
     0
  9
$INTERSECTIONCOLOR
 70
   257
  9
$DIMASSOC
280
     2
  9
$PROJECTNAME
  1

  9
$CAMERADISPLAY
290
     0
  9
$LENSLENGTH
 40
50.0
  9
$CAMERAHEIGHT
 40
0.0
  9
$STEPSPERSEC
 40
2.0
  9
$STEPSIZE
 40
6.0
  9
$3DDWFPREC
 40
2.0
  9
$PSOLWIDTH
 40
0.25
  9
$PSOLHEIGHT
 40
4.0
  9
$LOFTANG1
 40
1.570796326794897
  9
$LOFTANG2
 40
1.570796326794897
  9
$LOFTMAG1
 40
0.0
  9
$LOFTMAG2
 40
0.0
  9
$LOFTPARAM
 70
     7
  9
$LOFTNORMALS
280
     1
  9
$LATITUDE
 40
37.795
  9
$LONGITUDE
 40
-122.394
  9
$NORTHDIRECTION
 40
0.0
  9
$TIMEZONE
 70
 -8000
  9
$LIGHTGLYPHDISPLAY
280
     1
  9
$TILEMODELIGHTSYNCH
280
     1
  9
$CMATERIAL
347
3C
  9
$SOLIDHIST
280
     1
  9
$SHOWHIST
280
     1
  9
$DWFFRAME
280
     2
  9
$DGNFRAME
280
     2
  9
$REALWORLDSCALE
290
     1
  9
$INTERFERECOLOR
 62
   256
  9
$CSHADOW
280
     0
  9
$SHADOWPLANELOCATION
 40
0.0
  0
ENDSEC
  0
SECTION
  2
CLASSES
  0
CLASS
  1
ACDBDICTIONARYWDFLT
  2
AcDbDictionaryWithDefault
  3
ObjectDBX Classes
 90
        0
 91
        4
280
     0
281
     0
  0
CLASS
  1
VISUALSTYLE
  2
AcDbVisualStyle
  3
ObjectDBX Classes
 90
     4095
 91
        4
280
     0
281
     0
  0
CLASS
  1
MATERIAL
  2
AcDbMaterial
  3
ObjectDBX Classes
 90
     1153
 91
        4
280
     0
281
     0
  0
CLASS
  1
SUN
  2
AcDbSun
  3
SCENEOE
 90
     1024
 91
        4
280
     0
281
     0
  0
ENDSEC
  0
SECTION
  2
TABLES
  0
TABLE
  2
VPORT
  5
8
330
0
100
AcDbSymbolTable
 70
     1
  0
VPORT
  5
29
330
8
100
AcDbSymbolTableRecord
100
AcDbViewportTableRecord
  2
*Active
 70
     0
 10
0.0
 20
0.0
 11
1.0
 21
1.0
 12
0.0
 22
0.0
 13
0.0
 23
0.0
 14
0.5
 24
0.5
 15
0.5
 25
0.5
 16
0.0
 26
0.0
 36
1.0
 17
304.7999999238
 27
-304.7999999238
 37
0.0
 40
609.5999998476
 41
1.0
 42
50.0
 43
0.0
 44
0.0
 50
0.0
 51
0.0
 71
     0
 72
   100
 73
     1
 74
     3
 75
     0
 76
     0
 77
     0
 78
     0
281
     0
 65
     1
110
0.0
120
0.0
130
0.0
111
1.0
121
0.0
131
0.0
112
0.0
122
1.0
132
0.0
 79
     0
146
0.0
 60
     3
 61
     5
292
     1
282
     1
141
0.0
142
0.0
 63
   250
361
3F
  0
ENDTAB
  0
TABLE
  2
LTYPE
  5
5
330
0
100
AcDbSymbolTable
 70
     1
  0
LTYPE
  5
14
330
5
100
AcDbSymbolTableRecord
100
AcDbLinetypeTableRecord
  2
ByBlock
 70
     0
  3

 72
    65
 73
     0
 40
0.0
  0
LTYPE
  5
15
330
5
100
AcDbSymbolTableRecord
100
AcDbLinetypeTableRecord
  2
ByLayer
 70
     0
  3

 72
    65
 73
     0
 40
0.0
  0
LTYPE
  5
16
330
5
100
AcDbSymbolTableRecord
100
AcDbLinetypeTableRecord
  2
Continuous
 70
     0
  3
Solid line
 72
    65
 73
     0
 40
0.0
  0
ENDTAB
  0
TABLE
  2
LAYER
  5
2
330
0
100
AcDbSymbolTable
 70
     4
  0
LAYER
  5
10
330
2
100
AcDbSymbolTableRecord
100
AcDbLayerTableRecord
  2
0
 70
     0
 62
     7
  6
Continuous
370
    -3
390
F
347
3E
  0
LAYER
  5
40
330
2
100
AcDbSymbolTableRecord
100
AcDbLayerTableRecord
  2
Wire Cutouts
 70
     0
 62
     7
  6
Continuous
370
    -3
390
F
347
3E
  0
LAYER
  5
1E5
330
2
100
AcDbSymbolTableRecord
100
AcDbLayerTableRecord
  2
Segments
 70
     4
 62
     7
  6
Continuous
370
    -3
390
F
347
3E
  0
LAYER
  5
35C
330
2
100
AcDbSymbolTableRecord
100
AcDbLayerTableRecord
  2
Outer Rectangle
 70
     0
 62
     7
  6
Continuous
370
    -3
390
F
347
3E
  0
ENDTAB
  0
TABLE
  2
STYLE
  5
3
330
0
100
AcDbSymbolTable
 70
     1
  0
STYLE
  5
11
330
3
100
AcDbSymbolTableRecord
100
AcDbTextStyleTableRecord
  2
Standard
 70
     0
 40
0.0
 41
1.0
 50
0.0
 71
     0
 42
0.2
  3
txt
  4

  0
ENDTAB
  0
TABLE
  2
VIEW
  5
6
330
0
100
AcDbSymbolTable
 70
     0
  0
ENDTAB
  0
TABLE
  2
UCS
  5
7
330
0
100
AcDbSymbolTable
 70
     0
  0
ENDTAB
  0
TABLE
  2
APPID
  5
9
330
0
100
AcDbSymbolTable
 70
     1
  0
APPID
  5
12
330
9
100
AcDbSymbolTableRecord
100
AcDbRegAppTableRecord
  2
ACAD
 70
     0
  0
ENDTAB
  0
TABLE
  2
DIMSTYLE
  5
A
330
0
100
AcDbSymbolTable
 70
     1
100
AcDbDimStyleTable
  0
DIMSTYLE
105
27
330
A
100
AcDbSymbolTableRecord
100
AcDbDimStyleTableRecord
  2
Standard
 70
     0
178
     0
340
11
  0
ENDTAB
  0
TABLE
  2
BLOCK_RECORD
  5
1
330
0
100
AcDbSymbolTable
 70
    28
  0
BLOCK_RECORD
  5
1F
330
1
100
AcDbSymbolTableRecord
100
AcDbBlockTableRecord
  2
*Model_Space
340
22
 70
     0
280
     1
281
     0
  0
BLOCK_RECORD
  5
1B
330
1
100
AcDbSymbolTableRecord
100
AcDbBlockTableRecord
  2
*Paper_Space
340
1E
 70
     0
280
     1
281
     0
  0
BLOCK_RECORD
  5
23
330
1
100
AcDbSymbolTableRecord
100
AcDbBlockTableRecord
  2
*Paper_Space0
340
26
 70
     0
280
     1
281
     0
  0
BLOCK_RECORD
  5
1FD
330
1
100
AcDbSymbolTableRecord
100
AcDbBlockTableRecord
  2
block 2
340
0
102
{BLKREFS
331
1FE
102
}
 70
     0
280
     1
281
     0
  0
BLOCK_RECORD
  5
20A
330
1
100
AcDbSymbolTableRecord
100
AcDbBlockTableRecord
  2
block 3
340
0
102
{BLKREFS
331
20B
102
}
 70
     0
280
     1
281
     0
  0
BLOCK_RECORD
  5
217
330
1
100
AcDbSymbolTableRecord
100
AcDbBlockTableRecord
  2
block 4
340
0
102
{BLKREFS
331
218
102
}
 70
     0
280
     1
281
     0
  0
BLOCK_RECORD
  5
224
330
1
100
AcDbSymbolTableRecord
100
AcDbBlockTableRecord
  2
block 5
340
0
102
{BLKREFS
331
225
102
}
 70
     0
280
     1
281
     0
  0
BLOCK_RECORD
  5
231
330
1
100
AcDbSymbolTableRecord
100
AcDbBlockTableRecord
  2
block 6
340
0
102
{BLKREFS
331
232
102
}
 70
     0
280
     1
281
     0
  0
BLOCK_RECORD
  5
23E
330
1
100
AcDbSymbolTableRecord
100
AcDbBlockTableRecord
  2
block 7
340
0
102
{BLKREFS
331
23F
102
}
 70
     0
280
     1
281
     0
  0
BLOCK_RECORD
  5
24B
330
1
100
AcDbSymbolTableRecord
100
AcDbBlockTableRecord
  2
block 8
340
0
102
{BLKREFS
331
24C
102
}
 70
     0
280
     1
281
     0
  0
BLOCK_RECORD
  5
258
330
1
100
AcDbSymbolTableRecord
100
AcDbBlockTableRecord
  2
block 9
340
0
102
{BLKREFS
331
259
102
}
 70
     0
280
     1
281
     0
  0
BLOCK_RECORD
  5
265
330
1
100
AcDbSymbolTableRecord
100
AcDbBlockTableRecord
  2
block 10
340
0
102
{BLKREFS
331
266
102
}
 70
     0
280
     1
281
     0
  0
BLOCK_RECORD
  5
272
330
1
100
AcDbSymbolTableRecord
100
AcDbBlockTableRecord
  2
block 11
340
0
102
{BLKREFS
331
273
102
}
 70
     0
280
     1
281
     0
  0
BLOCK_RECORD
  5
27F
330
1
100
AcDbSymbolTableRecord
100
AcDbBlockTableRecord
  2
block 12
340
0
102
{BLKREFS
331
280
102
}
 70
     0
280
     1
281
     0
  0
BLOCK_RECORD
  5
28C
330
1
100
AcDbSymbolTableRecord
100
AcDbBlockTableRecord
  2
block 13
340
0
102
{BLKREFS
331
28D
102
}
 70
     0
280
     1
281
     0
  0
BLOCK_RECORD
  5
299
330
1
100
AcDbSymbolTableRecord
100
AcDbBlockTableRecord
  2
block 14
340
0
102
{BLKREFS
331
29A
102
}
 70
     0
280
     1
281
     0
  0
BLOCK_RECORD
  5
2A6
330
1
100
AcDbSymbolTableRecord
100
AcDbBlockTableRecord
  2
block 15
340
0
102
{BLKREFS
331
2A7
102
}
 70
     0
280
     1
281
     0
  0
BLOCK_RECORD
  5
2B3
330
1
100
AcDbSymbolTableRecord
100
AcDbBlockTableRecord
  2
block 16
340
0
102
{BLKREFS
331
2B4
102
}
 70
     0
280
     1
281
     0
  0
BLOCK_RECORD
  5
2C0
330
1
100
AcDbSymbolTableRecord
100
AcDbBlockTableRecord
  2
block 17
340
0
102
{BLKREFS
331
2C1
102
}
 70
     0
280
     1
281
     0
  0
BLOCK_RECORD
  5
2CD
330
1
100
AcDbSymbolTableRecord
100
AcDbBlockTableRecord
  2
block 18
340
0
102
{BLKREFS
331
2CE
102
}
 70
     0
280
     1
281
     0
  0
BLOCK_RECORD
  5
2DA
330
1
100
AcDbSymbolTableRecord
100
AcDbBlockTableRecord
  2
block 19
340
0
102
{BLKREFS
331
2DB
102
}
 70
     0
280
     1
281
     0
  0
BLOCK_RECORD
  5
2E7
330
1
100
AcDbSymbolTableRecord
100
AcDbBlockTableRecord
  2
block 20
340
0
102
{BLKREFS
331
2E8
102
}
 70
     0
280
     1
281
     0
  0
BLOCK_RECORD
  5
2F4
330
1
100
AcDbSymbolTableRecord
100
AcDbBlockTableRecord
  2
block 21
340
0
102
{BLKREFS
331
2F5
102
}
 70
     0
280
     1
281
     0
  0
BLOCK_RECORD
  5
301
330
1
100
AcDbSymbolTableRecord
100
AcDbBlockTableRecord
  2
block 22
340
0
102
{BLKREFS
331
302
102
}
 70
     0
280
     1
281
     0
  0
BLOCK_RECORD
  5
30E
330
1
100
AcDbSymbolTableRecord
100
AcDbBlockTableRecord
  2
block 23
340
0
102
{BLKREFS
331
30F
102
}
 70
     0
280
     1
281
     0
  0
BLOCK_RECORD
  5
31B
330
1
100
AcDbSymbolTableRecord
100
AcDbBlockTableRecord
  2
block 24
340
0
102
{BLKREFS
331
31C
102
}
 70
     0
280
     1
281
     0
  0
BLOCK_RECORD
  5
328
330
1
100
AcDbSymbolTableRecord
100
AcDbBlockTableRecord
  2
block 25
340
0
102
{BLKREFS
331
329
102
}
 70
     0
280
     1
281
     0
  0
BLOCK_RECORD
  5
335
330
1
100
AcDbSymbolTableRecord
100
AcDbBlockTableRecord
  2
block 26
340
0
102
{BLKREFS
331
336
102
}
 70
     0
280
     1
281
     0
  0
BLOCK_RECORD
  5
342
330
1
100
AcDbSymbolTableRecord
100
AcDbBlockTableRecord
  2
block 27
340
0
102
{BLKREFS
331
343
102
}
 70
     0
280
     1
281
     0
  0
BLOCK_RECORD
  5
34F
330
1
100
AcDbSymbolTableRecord
100
AcDbBlockTableRecord
  2
block 28
340
0
102
{BLKREFS
331
350
102
}
 70
     0
280
     1
281
     0
  0
ENDTAB
  0
ENDSEC
  0
SECTION
  2
BLOCKS
  0
BLOCK
  5
20
330
1F
100
AcDbEntity
  8
0
100
AcDbBlockBegin
  2
*Model_Space
 70
     0
 10
0.0
 20
0.0
 30
0.0
  3
*Model_Space
  1

  0
ENDBLK
  5
21
330
1F
100
AcDbEntity
  8
0
100
AcDbBlockEnd
  0
BLOCK
  5
1C
330
1B
100
AcDbEntity
 67
     1
  8
0
100
AcDbBlockBegin
  2
*Paper_Space
 70
     0
 10
0.0
 20
0.0
 30
0.0
  3
*Paper_Space
  1

  0
ENDBLK
  5
1D
330
1B
100
AcDbEntity
 67
     1
  8
0
100
AcDbBlockEnd
  0
BLOCK
  5
24
330
23
100
AcDbEntity
  8
0
100
AcDbBlockBegin
  2
*Paper_Space0
 70
     0
 10
0.0
 20
0.0
 30
0.0
  3
*Paper_Space0
  1

  0
ENDBLK
  5
25
330
23
100
AcDbEntity
  8
0
100
AcDbBlockEnd
  0
BLOCK
  5
1FF
330
1FD
100
AcDbEntity
  8
0
100
AcDbBlockBegin
  2
block 2
 70
     0
 10
0.0
 20
0.0
 30
0.0
  3
block 2
  1

  0
POLYLINE
  5
201
330
1FD
100
AcDbEntity
  8
Segments
 62
   144
420
  1929399
370
    35
100
AcDb2dPolyline
 66
     1
 10
0.0
 20
0.0
 30
0.0
  0
VERTEX
  5
202
330
201
100
AcDbEntity
  8
Segments
 62
   144
420
  1929399
370
    35
100
AcDbVertex
100
AcDb2dVertex
 10
557.932904285311
 20
-109.504352501671
 30
0.0
  0
VERTEX
  5
203
330
201
100
AcDbEntity
  8
Segments
 62
   144
420
  1929399
370
    35
100
AcDbVertex
100
AcDb2dVertex
 10
544.0704675243493
 20
-95.89914835388029
 30
0.0
  0
VERTEX
  5
204
330
201
100
AcDbEntity
  8
Segments
 62
   144
420
  1929399
370
    35
100
AcDbVertex
100
AcDb2dVertex
 10
544.0704675243493
 20
-43.13010876503089
 30
0.0
  0
VERTEX
  5
205
330
201
100
AcDbEntity
  8
Segments
 62
   144
420
  1929399
370
    35
100
AcDbVertex
100
AcDb2dVertex
 10
557.932904285311
 20
-29.25155309845882
 30
0.0
  0
VERTEX
  5
206
330
201
100
AcDbEntity
  8
Segments
 62
   144
420
  1929399
370
    35
100
AcDbVertex
100
AcDb2dVertex
 10
571.7953305794517
 20
-43.13010876503089
 30
0.0
  0
VERTEX
  5
207
330
201
100
AcDbEntity
  8
Segments
 62
   144
420
  1929399
370
    35
100
AcDbVertex
100
AcDb2dVertex
 10
571.7953305794517
 20
-95.89914835388029
 30
0.0
  0
VERTEX
  5
208
330
201
100
AcDbEntity
  8
Segments
 62
   144
420
  1929399
370
    35
100
AcDbVertex
100
AcDb2dVertex
 10
557.932904285311
 20
-109.504352501671
 30
0.0
  0
SEQEND
  5
209
330
201
100
AcDbEntity
  8
Segments
 62
   144
420
  1929399
370
    35
  0
ENDBLK
  5
200
330
1FD
100
AcDbEntity
  8
0
100
AcDbBlockEnd
  0
BLOCK
  5
20C
330
20A
100
AcDbEntity
  8
0
100
AcDbBlockBegin
  2
block 3
 70
     0
 10
0.0
 20
0.0
 30
0.0
  3
block 3
  1

  0
POLYLINE
  5
20E
330
20A
100
AcDbEntity
  8
Segments
 62
   144
420
  1929399
370
    35
100
AcDb2dPolyline
 66
     1
 10
0.0
 20
0.0
 30
0.0
  0
VERTEX
  5
20F
330
20E
100
AcDbEntity
  8
Segments
 62
   144
420
  1929399
370
    35
100
AcDbVertex
100
AcDb2dVertex
 10
472.9822698346675
 20
-113.6872910837087
 30
0.0
  0
VERTEX
  5
210
330
20E
100
AcDbEntity
  8
Segments
 62
   144
420
  1929399
370
    35
100
AcDbVertex
100
AcDb2dVertex
 10
486.8447065956293
 20
-127.2924952314994
 30
0.0
  0
VERTEX
  5
211
330
20E
100
AcDbEntity
  8
Segments
 62
   144
420
  1929399
370
    35
100
AcDbVertex
100
AcDb2dVertex
 10
486.8447065956293
 20
-180.0615348203485
 30
0.0
  0
VERTEX
  5
212
330
20E
100
AcDbEntity
  8
Segments
 62
   144
420
  1929399
370
    35
100
AcDbVertex
100
AcDb2dVertex
 10
472.9822698346675
 20
-193.9400904869206
 30
0.0
  0
VERTEX
  5
213
330
20E
100
AcDbEntity
  8
Segments
 62
   144
420
  1929399
370
    35
100
AcDbVertex
100
AcDb2dVertex
 10
459.1198435405269
 20
-180.0615348203485
 30
0.0
  0
VERTEX
  5
214
330
20E
100
AcDbEntity
  8
Segments
 62
   144
420
  1929399
370
    35
100
AcDbVertex
100
AcDb2dVertex
 10
459.1198435405269
 20
-127.2924952314994
 30
0.0
  0
VERTEX
  5
215
330
20E
100
AcDbEntity
  8
Segments
 62
   144
420
  1929399
370
    35
100
AcDbVertex
100
AcDb2dVertex
 10
472.9822698346675
 20
-113.6872910837087
 30
0.0
  0
SEQEND
  5
216
330
20E
100
AcDbEntity
  8
Segments
 62
   144
420
  1929399
370
    35
  0
ENDBLK
  5
20D
330
20A
100
AcDbEntity
  8
0
100
AcDbBlockEnd
  0
BLOCK
  5
219
330
217
100
AcDbEntity
  8
0
100
AcDbBlockBegin
  2
block 4
 70
     0
 10
0.0
 20
0.0
 30
0.0
  3
block 4
  1

  0
POLYLINE
  5
21B
330
217
100
AcDbEntity
  8
Segments
 62
   144
420
  1929399
370
    35
100
AcDb2dPolyline
 66
     1
 10
0.0
 20
0.0
 30
0.0
  0
VERTEX
  5
21C
330
21B
100
AcDbEntity
  8
Segments
 62
   144
420
  1929399
370
    35
100
AcDbVertex
100
AcDb2dVertex
 10
475.3696047465932
 20
-196.3112616608305
 30
0.0
  0
VERTEX
  5
21D
330
21B
100
AcDbEntity
  8
Segments
 62
   144
420
  1929399
370
    35
100
AcDbVertex
100
AcDb2dVertex
 10
488.9748088943833
 20
-182.4488248998691
 30
0.0
  0
VERTEX
  5
21E
330
21B
100
AcDbEntity
  8
Segments
 62
   144
420
  1929399
370
    35
100
AcDbVertex
100
AcDb2dVertex
 10
541.7438484832323
 20
-182.4488248998691
 30
0.0
  0
VERTEX
  5
21F
330
21B
100
AcDbEntity
  8
Segments
 62
   144
420
  1929399
370
    35
100
AcDbVertex
100
AcDb2dVertex
 10
555.6224041498073
 20
-196.3112616608305
 30
0.0
  0
VERTEX
  5
220
330
21B
100
AcDbEntity
  8
Segments
 62
   144
420
  1929399
370
    35
100
AcDbVertex
100
AcDb2dVertex
 10
541.7438484832323
 20
-210.1736879549702
 30
0.0
  0
VERTEX
  5
221
330
21B
100
AcDbEntity
  8
Segments
 62
   144
420
  1929399
370
    35
100
AcDbVertex
100
AcDb2dVertex
 10
488.9748088943833
 20
-210.1736879549702
 30
0.0
  0
VERTEX
  5
222
330
21B
100
AcDbEntity
  8
Segments
 62
   144
420
  1929399
370
    35
100
AcDbVertex
100
AcDb2dVertex
 10
475.3696047465932
 20
-196.3112616608305
 30
0.0
  0
SEQEND
  5
223
330
21B
100
AcDbEntity
  8
Segments
 62
   144
420
  1929399
370
    35
  0
ENDBLK
  5
21A
330
217
100
AcDbEntity
  8
0
100
AcDbBlockEnd
  0
BLOCK
  5
226
330
224
100
AcDbEntity
  8
0
100
AcDbBlockBegin
  2
block 5
 70
     0
 10
0.0
 20
0.0
 30
0.0
  3
block 5
  1

  0
POLYLINE
  5
228
330
224
100
AcDbEntity
  8
Segments
 62
   144
420
  1929399
370
    35
100
AcDb2dPolyline
 66
     1
 10
0.0
 20
0.0
 30
0.0
  0
VERTEX
  5
229
330
228
100
AcDbEntity
  8
Segments
 62
   144
420
  1929399
370
    35
100
AcDbVertex
100
AcDb2dVertex
 10
555.5455693733853
 20
-26.8803819245489
 30
0.0
  0
VERTEX
  5
22A
330
228
100
AcDbEntity
  8
Segments
 62
   144
420
  1929399
370
    35
100
AcDbVertex
100
AcDb2dVertex
 10
541.9403652255953
 20
-40.74281868551031
 30
0.0
  0
VERTEX
  5
22B
330
228
100
AcDbEntity
  8
Segments
 62
   144
420
  1929399
370
    35
100
AcDbVertex
100
AcDb2dVertex
 10
489.1713256367456
 20
-40.74281868551031
 30
0.0
  0
VERTEX
  5
22C
330
228
100
AcDbEntity
  8
Segments
 62
   144
420
  1929399
370
    35
100
AcDbVertex
100
AcDb2dVertex
 10
475.2927699701745
 20
-26.8803819245489
 30
0.0
  0
VERTEX
  5
22D
330
228
100
AcDbEntity
  8
Segments
 62
   144
420
  1929399
370
    35
100
AcDbVertex
100
AcDb2dVertex
 10
489.1713256367456
 20
-13.01795563040949
 30
0.0
  0
VERTEX
  5
22E
330
228
100
AcDbEntity
  8
Segments
 62
   144
420
  1929399
370
    35
100
AcDbVertex
100
AcDb2dVertex
 10
541.9403652255953
 20
-13.01795563040949
 30
0.0
  0
VERTEX
  5
22F
330
228
100
AcDbEntity
  8
Segments
 62
   144
420
  1929399
370
    35
100
AcDbVertex
100
AcDb2dVertex
 10
555.5455693733853
 20
-26.8803819245489
 30
0.0
  0
SEQEND
  5
230
330
228
100
AcDbEntity
  8
Segments
 62
   144
420
  1929399
370
    35
  0
ENDBLK
  5
227
330
224
100
AcDbEntity
  8
0
100
AcDbBlockEnd
  0
BLOCK
  5
233
330
231
100
AcDbEntity
  8
0
100
AcDbBlockBegin
  2
block 6
 70
     0
 10
0.0
 20
0.0
 30
0.0
  3
block 6
  1

  0
POLYLINE
  5
235
330
231
100
AcDbEntity
  8
Segments
 62
   144
420
  1929399
370
    35
100
AcDb2dPolyline
 66
     1
 10
0.0
 20
0.0
 30
0.0
  0
VERTEX
  5
236
330
235
100
AcDbEntity
  8
Segments
 62
   144
420
  1929399
370
    35
100
AcDbVertex
100
AcDb2dVertex
 10
473.1520320073096
 20
-29.07239425362694
 30
0.0
  0
VERTEX
  5
237
330
235
100
AcDbEntity
  8
Segments
 62
   144
420
  1929399
370
    35
100
AcDbVertex
100
AcDb2dVertex
 10
487.0144687682713
 20
-42.67759840141764
 30
0.0
  0
VERTEX
  5
238
330
235
100
AcDbEntity
  8
Segments
 62
   144
420
  1929399
370
    35
100
AcDbVertex
100
AcDb2dVertex
 10
487.0144687682713
 20
-95.44663799026736
 30
0.0
  0
VERTEX
  5
239
330
235
100
AcDbEntity
  8
Segments
 62
   144
420
  1929399
370
    35
100
AcDbVertex
100
AcDb2dVertex
 10
473.1520320073096
 20
-109.3251936568388
 30
0.0
  0
VERTEX
  5
23A
330
235
100
AcDbEntity
  8
Segments
 62
   144
420
  1929399
370
    35
100
AcDbVertex
100
AcDb2dVertex
 10
459.2896057131689
 20
-95.44663799026736
 30
0.0
  0
VERTEX
  5
23B
330
235
100
AcDbEntity
  8
Segments
 62
   144
420
  1929399
370
    35
100
AcDbVertex
100
AcDb2dVertex
 10
459.2896057131689
 20
-42.67759840141764
 30
0.0
  0
VERTEX
  5
23C
330
235
100
AcDbEntity
  8
Segments
 62
   144
420
  1929399
370
    35
100
AcDbVertex
100
AcDb2dVertex
 10
473.1520320073096
 20
-29.07239425362694
 30
0.0
  0
SEQEND
  5
23D
330
235
100
AcDbEntity
  8
Segments
 62
   144
420
  1929399
370
    35
  0
ENDBLK
  5
234
330
231
100
AcDbEntity
  8
0
100
AcDbBlockEnd
  0
BLOCK
  5
240
330
23E
100
AcDbEntity
  8
0
100
AcDbBlockBegin
  2
block 7
 70
     0
 10
0.0
 20
0.0
 30
0.0
  3
block 7
  1

  0
POLYLINE
  5
242
330
23E
100
AcDbEntity
  8
Segments
 62
   144
420
  1929399
370
    35
100
AcDb2dPolyline
 66
     1
 10
0.0
 20
0.0
 30
0.0
  0
VERTEX
  5
243
330
242
100
AcDbEntity
  8
Segments
 62
   144
420
  1929399
370
    35
100
AcDbVertex
100
AcDb2dVertex
 10
475.5393669192352
 20
-111.6963648307487
 30
0.0
  0
VERTEX
  5
244
330
242
100
AcDbEntity
  8
Segments
 62
   144
420
  1929399
370
    35
100
AcDbVertex
100
AcDb2dVertex
 10
489.1445710670253
 20
-97.83392806978762
 30
0.0
  0
VERTEX
  5
245
330
242
100
AcDbEntity
  8
Segments
 62
   144
420
  1929399
370
    35
100
AcDbVertex
100
AcDb2dVertex
 10
541.913610655875
 20
-97.83392806978762
 30
0.0
  0
VERTEX
  5
246
330
242
100
AcDbEntity
  8
Segments
 62
   144
420
  1929399
370
    35
100
AcDbVertex
100
AcDb2dVertex
 10
555.7921663224494
 20
-111.6963648307487
 30
0.0
  0
VERTEX
  5
247
330
242
100
AcDbEntity
  8
Segments
 62
   144
420
  1929399
370
    35
100
AcDbVertex
100
AcDb2dVertex
 10
541.913610655875
 20
-125.5587911248884
 30
0.0
  0
VERTEX
  5
248
330
242
100
AcDbEntity
  8
Segments
 62
   144
420
  1929399
370
    35
100
AcDbVertex
100
AcDb2dVertex
 10
489.1445710670253
 20
-125.5587911248884
 30
0.0
  0
VERTEX
  5
249
330
242
100
AcDbEntity
  8
Segments
 62
   144
420
  1929399
370
    35
100
AcDbVertex
100
AcDb2dVertex
 10
475.5393669192352
 20
-111.6963648307487
 30
0.0
  0
SEQEND
  5
24A
330
242
100
AcDbEntity
  8
Segments
 62
   144
420
  1929399
370
    35
  0
ENDBLK
  5
241
330
23E
100
AcDbEntity
  8
0
100
AcDbBlockEnd
  0
BLOCK
  5
24D
330
24B
100
AcDbEntity
  8
0
100
AcDbBlockBegin
  2
block 8
 70
     0
 10
0.0
 20
0.0
 30
0.0
  3
block 8
  1

  0
POLYLINE
  5
24F
330
24B
100
AcDbEntity
  8
Segments
 62
   144
420
  1929399
370
    35
100
AcDb2dPolyline
 66
     1
 10
0.0
 20
0.0
 30
0.0
  0
VERTEX
  5
250
330
24F
100
AcDbEntity
  8
Segments
 62
   144
420
  1929399
370
    35
100
AcDbVertex
100
AcDb2dVertex
 10
426.35043871992
 20
-26.77984411990089
 30
0.0
  0
VERTEX
  5
251
330
24F
100
AcDbEntity
  8
Segments
 62
   144
420
  1929399
370
    35
100
AcDbVertex
100
AcDb2dVertex
 10
412.7452345721299
 20
-40.64228088086199
 30
0.0
  0
VERTEX
  5
252
330
24F
100
AcDbEntity
  8
Segments
 62
   144
420
  1929399
370
    35
100
AcDbVertex
100
AcDb2dVertex
 10
359.9761949832802
 20
-40.64228088086199
 30
0.0
  0
VERTEX
  5
253
330
24F
100
AcDbEntity
  8
Segments
 62
   144
420
  1929399
370
    35
100
AcDbVertex
100
AcDb2dVertex
 10
346.0976393167091
 20
-26.77984411990089
 30
0.0
  0
VERTEX
  5
254
330
24F
100
AcDbEntity
  8
Segments
 62
   144
420
  1929399
370
    35
100
AcDbVertex
100
AcDb2dVertex
 10
359.9761949832802
 20
-12.91741782576117
 30
0.0
  0
VERTEX
  5
255
330
24F
100
AcDbEntity
  8
Segments
 62
   144
420
  1929399
370
    35
100
AcDbVertex
100
AcDb2dVertex
 10
412.7452345721299
 20
-12.91741782576117
 30
0.0
  0
VERTEX
  5
256
330
24F
100
AcDbEntity
  8
Segments
 62
   144
420
  1929399
370
    35
100
AcDbVertex
100
AcDb2dVertex
 10
426.35043871992
 20
-26.77984411990089
 30
0.0
  0
SEQEND
  5
257
330
24F
100
AcDbEntity
  8
Segments
 62
   144
420
  1929399
370
    35
  0
ENDBLK
  5
24E
330
24B
100
AcDbEntity
  8
0
100
AcDbBlockEnd
  0
BLOCK
  5
25A
330
258
100
AcDbEntity
  8
0
100
AcDbBlockBegin
  2
block 9
 70
     0
 10
0.0
 20
0.0
 30
0.0
  3
block 9
  1

  0
POLYLINE
  5
25C
330
258
100
AcDbEntity
  8
Segments
 62
   144
420
  1929399
370
    35
100
AcDb2dPolyline
 66
     1
 10
0.0
 20
0.0
 30
0.0
  0
VERTEX
  5
25D
330
25C
100
AcDbEntity
  8
Segments
 62
   144
420
  1929399
370
    35
100
AcDbVertex
100
AcDb2dVertex
 10
343.9569013538461
 20
-28.97185644897862
 30
0.0
  0
VERTEX
  5
25E
330
25C
100
AcDbEntity
  8
Segments
 62
   144
420
  1929399
370
    35
100
AcDbVertex
100
AcDb2dVertex
 10
357.8193381148072
 20
-42.57706059676963
 30
0.0
  0
VERTEX
  5
25F
330
25C
100
AcDbEntity
  8
Segments
 62
   144
420
  1929399
370
    35
100
AcDbVertex
100
AcDb2dVertex
 10
357.8193381148072
 20
-95.34610018561872
 30
0.0
  0
VERTEX
  5
260
330
25C
100
AcDbEntity
  8
Segments
 62
   144
420
  1929399
370
    35
100
AcDbVertex
100
AcDb2dVertex
 10
343.9569013538461
 20
-109.2246558521908
 30
0.0
  0
VERTEX
  5
261
330
25C
100
AcDbEntity
  8
Segments
 62
   144
420
  1929399
370
    35
100
AcDbVertex
100
AcDb2dVertex
 10
330.0944750597061
 20
-95.34610018561872
 30
0.0
  0
VERTEX
  5
262
330
25C
100
AcDbEntity
  8
Segments
 62
   144
420
  1929399
370
    35
100
AcDbVertex
100
AcDb2dVertex
 10
330.0944750597061
 20
-42.57706059676963
 30
0.0
  0
VERTEX
  5
263
330
25C
100
AcDbEntity
  8
Segments
 62
   144
420
  1929399
370
    35
100
AcDbVertex
100
AcDb2dVertex
 10
343.9569013538461
 20
-28.97185644897862
 30
0.0
  0
SEQEND
  5
264
330
25C
100
AcDbEntity
  8
Segments
 62
   144
420
  1929399
370
    35
  0
ENDBLK
  5
25B
330
258
100
AcDbEntity
  8
0
100
AcDbBlockEnd
  0
BLOCK
  5
267
330
265
100
AcDbEntity
  8
0
100
AcDbBlockBegin
  2
block 10
 70
     0
 10
0.0
 20
0.0
 30
0.0
  3
block 10
  1

  0
POLYLINE
  5
269
330
265
100
AcDbEntity
  8
Segments
 62
   144
420
  1929399
370
    35
100
AcDb2dPolyline
 66
     1
 10
0.0
 20
0.0
 30
0.0
  0
VERTEX
  5
26A
330
269
100
AcDbEntity
  8
Segments
 62
   144
420
  1929399
370
    35
100
AcDbVertex
100
AcDb2dVertex
 10
346.3442362657718
 20
-111.5958270261007
 30
0.0
  0
VERTEX
  5
26B
330
269
100
AcDbEntity
  8
Segments
 62
   144
420
  1929399
370
    35
100
AcDbVertex
100
AcDb2dVertex
 10
359.9494404135638
 20
-97.7333902651393
 30
0.0
  0
VERTEX
  5
26C
330
269
100
AcDbEntity
  8
Segments
 62
   144
420
  1929399
370
    35
100
AcDbVertex
100
AcDb2dVertex
 10
412.7184800024129
 20
-97.7333902651393
 30
0.0
  0
VERTEX
  5
26D
330
269
100
AcDbEntity
  8
Segments
 62
   144
420
  1929399
370
    35
100
AcDbVertex
100
AcDb2dVertex
 10
426.597035668984
 20
-111.5958270261007
 30
0.0
  0
VERTEX
  5
26E
330
269
100
AcDbEntity
  8
Segments
 62
   144
420
  1929399
370
    35
100
AcDbVertex
100
AcDb2dVertex
 10
412.7184800024129
 20
-125.4582533202404
 30
0.0
  0
VERTEX
  5
26F
330
269
100
AcDbEntity
  8
Segments
 62
   144
420
  1929399
370
    35
100
AcDbVertex
100
AcDb2dVertex
 10
359.9494404135638
 20
-125.4582533202404
 30
0.0
  0
VERTEX
  5
270
330
269
100
AcDbEntity
  8
Segments
 62
   144
420
  1929399
370
    35
100
AcDbVertex
100
AcDb2dVertex
 10
346.3442362657718
 20
-111.5958270261007
 30
0.0
  0
SEQEND
  5
271
330
269
100
AcDbEntity
  8
Segments
 62
   144
420
  1929399
370
    35
  0
ENDBLK
  5
268
330
265
100
AcDbEntity
  8
0
100
AcDbBlockEnd
  0
BLOCK
  5
274
330
272
100
AcDbEntity
  8
0
100
AcDbBlockBegin
  2
block 11
 70
     0
 10
0.0
 20
0.0
 30
0.0
  3
block 11
  1

  0
POLYLINE
  5
276
330
272
100
AcDbEntity
  8
Segments
 62
   144
420
  1929399
370
    35
100
AcDb2dPolyline
 66
     1
 10
0.0
 20
0.0
 30
0.0
  0
VERTEX
  5
277
330
276
100
AcDbEntity
  8
Segments
 62
   144
420
  1929399
370
    35
100
AcDbVertex
100
AcDb2dVertex
 10
428.7377736318495
 20
-109.4038146970227
 30
0.0
  0
VERTEX
  5
278
330
276
100
AcDbEntity
  8
Segments
 62
   144
420
  1929399
370
    35
100
AcDbVertex
100
AcDb2dVertex
 10
414.8753368708871
 20
-95.79861054923197
 30
0.0
  0
VERTEX
  5
279
330
276
100
AcDbEntity
  8
Segments
 62
   144
420
  1929399
370
    35
100
AcDbVertex
100
AcDb2dVertex
 10
414.8753368708871
 20
-43.02957096038256
 30
0.0
  0
VERTEX
  5
27A
330
276
100
AcDbEntity
  8
Segments
 62
   144
420
  1929399
370
    35
100
AcDbVertex
100
AcDb2dVertex
 10
428.7377736318495
 20
-29.15101529381082
 30
0.0
  0
VERTEX
  5
27B
330
276
100
AcDbEntity
  8
Segments
 62
   144
420
  1929399
370
    35
100
AcDbVertex
100
AcDb2dVertex
 10
442.6001999259864
 20
-43.02957096038256
 30
0.0
  0
VERTEX
  5
27C
330
276
100
AcDbEntity
  8
Segments
 62
   144
420
  1929399
370
    35
100
AcDbVertex
100
AcDb2dVertex
 10
442.6001999259864
 20
-95.79861054923197
 30
0.0
  0
VERTEX
  5
27D
330
276
100
AcDbEntity
  8
Segments
 62
   144
420
  1929399
370
    35
100
AcDbVertex
100
AcDb2dVertex
 10
428.7377736318495
 20
-109.4038146970227
 30
0.0
  0
SEQEND
  5
27E
330
276
100
AcDbEntity
  8
Segments
 62
   144
420
  1929399
370
    35
  0
ENDBLK
  5
275
330
272
100
AcDbEntity
  8
0
100
AcDbBlockEnd
  0
BLOCK
  5
281
330
27F
100
AcDbEntity
  8
0
100
AcDbBlockBegin
  2
block 12
 70
     0
 10
0.0
 20
0.0
 30
0.0
  3
block 12
  1

  0
POLYLINE
  5
283
330
27F
100
AcDbEntity
  8
Segments
 62
   144
420
  1929399
370
    35
100
AcDb2dPolyline
 66
     1
 10
0.0
 20
0.0
 30
0.0
  0
VERTEX
  5
284
330
283
100
AcDbEntity
  8
Segments
 62
   144
420
  1929399
370
    35
100
AcDbVertex
100
AcDb2dVertex
 10
343.7871391812034
 20
-113.5867532790604
 30
0.0
  0
VERTEX
  5
285
330
283
100
AcDbEntity
  8
Segments
 62
   144
420
  1929399
370
    35
100
AcDbVertex
100
AcDb2dVertex
 10
357.6495759421652
 20
-127.1919574268511
 30
0.0
  0
VERTEX
  5
286
330
283
100
AcDbEntity
  8
Segments
 62
   144
420
  1929399
370
    35
100
AcDbVertex
100
AcDb2dVertex
 10
357.6495759421652
 20
-179.9609970157005
 30
0.0
  0
VERTEX
  5
287
330
283
100
AcDbEntity
  8
Segments
 62
   144
420
  1929399
370
    35
100
AcDbVertex
100
AcDb2dVertex
 10
343.7871391812034
 20
-193.8395526822723
 30
0.0
  0
VERTEX
  5
288
330
283
100
AcDbEntity
  8
Segments
 62
   144
420
  1929399
370
    35
100
AcDbVertex
100
AcDb2dVertex
 10
329.9247128870641
 20
-179.9609970157005
 30
0.0
  0
VERTEX
  5
289
330
283
100
AcDbEntity
  8
Segments
 62
   144
420
  1929399
370
    35
100
AcDbVertex
100
AcDb2dVertex
 10
329.9247128870641
 20
-127.1919574268511
 30
0.0
  0
VERTEX
  5
28A
330
283
100
AcDbEntity
  8
Segments
 62
   144
420
  1929399
370
    35
100
AcDbVertex
100
AcDb2dVertex
 10
343.7871391812034
 20
-113.5867532790604
 30
0.0
  0
SEQEND
  5
28B
330
283
100
AcDbEntity
  8
Segments
 62
   144
420
  1929399
370
    35
  0
ENDBLK
  5
282
330
27F
100
AcDbEntity
  8
0
100
AcDbBlockEnd
  0
BLOCK
  5
28E
330
28C
100
AcDbEntity
  8
0
100
AcDbBlockBegin
  2
block 13
 70
     0
 10
0.0
 20
0.0
 30
0.0
  3
block 13
  1

  0
POLYLINE
  5
290
330
28C
100
AcDbEntity
  8
Segments
 62
   144
420
  1929399
370
    35
100
AcDb2dPolyline
 66
     1
 10
0.0
 20
0.0
 30
0.0
  0
VERTEX
  5
291
330
290
100
AcDbEntity
  8
Segments
 62
   144
420
  1929399
370
    35
100
AcDbVertex
100
AcDb2dVertex
 10
346.1744740931291
 20
-196.2107238561825
 30
0.0
  0
VERTEX
  5
292
330
290
100
AcDbEntity
  8
Segments
 62
   144
420
  1929399
370
    35
100
AcDbVertex
100
AcDb2dVertex
 10
359.7796782409217
 20
-182.3482870952208
 30
0.0
  0
VERTEX
  5
293
330
290
100
AcDbEntity
  8
Segments
 62
   144
420
  1929399
370
    35
100
AcDbVertex
100
AcDb2dVertex
 10
412.5487178297709
 20
-182.3482870952208
 30
0.0
  0
VERTEX
  5
294
330
290
100
AcDbEntity
  8
Segments
 62
   144
420
  1929399
370
    35
100
AcDbVertex
100
AcDb2dVertex
 10
426.4272734963419
 20
-196.2107238561825
 30
0.0
  0
VERTEX
  5
295
330
290
100
AcDbEntity
  8
Segments
 62
   144
420
  1929399
370
    35
100
AcDbVertex
100
AcDb2dVertex
 10
412.5487178297709
 20
-210.0731501503219
 30
0.0
  0
VERTEX
  5
296
330
290
100
AcDbEntity
  8
Segments
 62
   144
420
  1929399
370
    35
100
AcDbVertex
100
AcDb2dVertex
 10
359.7796782409217
 20
-210.0731501503219
 30
0.0
  0
VERTEX
  5
297
330
290
100
AcDbEntity
  8
Segments
 62
   144
420
  1929399
370
    35
100
AcDbVertex
100
AcDb2dVertex
 10
346.1744740931291
 20
-196.2107238561825
 30
0.0
  0
SEQEND
  5
298
330
290
100
AcDbEntity
  8
Segments
 62
   144
420
  1929399
370
    35
  0
ENDBLK
  5
28F
330
28C
100
AcDbEntity
  8
0
100
AcDbBlockEnd
  0
BLOCK
  5
29B
330
299
100
AcDbEntity
  8
0
100
AcDbBlockBegin
  2
block 14
 70
     0
 10
0.0
 20
0.0
 30
0.0
  3
block 14
  1

  0
POLYLINE
  5
29D
330
299
100
AcDbEntity
  8
Segments
 62
   144
420
  1929399
370
    35
100
AcDb2dPolyline
 66
     1
 10
0.0
 20
0.0
 30
0.0
  0
VERTEX
  5
29E
330
29D
100
AcDbEntity
  8
Segments
 62
   144
420
  1929399
370
    35
100
AcDbVertex
100
AcDb2dVertex
 10
428.5680114592068
 20
-194.0187115271045
 30
0.0
  0
VERTEX
  5
29F
330
29D
100
AcDbEntity
  8
Segments
 62
   144
420
  1929399
370
    35
100
AcDbVertex
100
AcDb2dVertex
 10
414.7055746982451
 20
-180.4135073793138
 30
0.0
  0
VERTEX
  5
2A0
330
29D
100
AcDbEntity
  8
Segments
 62
   144
420
  1929399
370
    35
100
AcDbVertex
100
AcDb2dVertex
 10
414.7055746982451
 20
-127.644467790464
 30
0.0
  0
VERTEX
  5
2A1
330
29D
100
AcDbEntity
  8
Segments
 62
   144
420
  1929399
370
    35
100
AcDbVertex
100
AcDb2dVertex
 10
428.5680114592068
 20
-113.7659121238923
 30
0.0
  0
VERTEX
  5
2A2
330
29D
100
AcDbEntity
  8
Segments
 62
   144
420
  1929399
370
    35
100
AcDbVertex
100
AcDb2dVertex
 10
442.4304377533443
 20
-127.644467790464
 30
0.0
  0
VERTEX
  5
2A3
330
29D
100
AcDbEntity
  8
Segments
 62
   144
420
  1929399
370
    35
100
AcDbVertex
100
AcDb2dVertex
 10
442.4304377533443
 20
-180.4135073793138
 30
0.0
  0
VERTEX
  5
2A4
330
29D
100
AcDbEntity
  8
Segments
 62
   144
420
  1929399
370
    35
100
AcDbVertex
100
AcDb2dVertex
 10
428.5680114592068
 20
-194.0187115271045
 30
0.0
  0
SEQEND
  5
2A5
330
29D
100
AcDbEntity
  8
Segments
 62
   144
420
  1929399
370
    35
  0
ENDBLK
  5
29C
330
299
100
AcDbEntity
  8
0
100
AcDbBlockEnd
  0
BLOCK
  5
2A8
330
2A6
100
AcDbEntity
  8
0
100
AcDbBlockBegin
  2
block 15
 70
     0
 10
0.0
 20
0.0
 30
0.0
  3
block 15
  1

  0
POLYLINE
  5
2AA
330
2A6
100
AcDbEntity
  8
Segments
 62
   144
420
  1929399
370
    35
100
AcDb2dPolyline
 66
     1
 10
0.0
 20
0.0
 30
0.0
  0
VERTEX
  5
2AB
330
2AA
100
AcDbEntity
  8
Segments
 62
   144
420
  1929399
370
    35
100
AcDbVertex
100
AcDb2dVertex
 10
109.4210565520096
 20
-28.82104450859529
 30
0.0
  0
VERTEX
  5
2AC
330
2AA
100
AcDbEntity
  8
Segments
 62
   144
420
  1929399
370
    35
100
AcDbVertex
100
AcDb2dVertex
 10
95.81585240421886
 20
-42.6834812695567
 30
0.0
  0
VERTEX
  5
2AD
330
2AA
100
AcDbEntity
  8
Segments
 62
   144
420
  1929399
370
    35
100
AcDbVertex
100
AcDb2dVertex
 10
43.04681281536945
 20
-42.6834812695567
 30
0.0
  0
VERTEX
  5
2AE
330
2AA
100
AcDbEntity
  8
Segments
 62
   144
420
  1929399
370
    35
100
AcDbVertex
100
AcDb2dVertex
 10
29.16825714879771
 20
-28.82104450859529
 30
0.0
  0
VERTEX
  5
2AF
330
2AA
100
AcDbEntity
  8
Segments
 62
   144
420
  1929399
370
    35
100
AcDbVertex
100
AcDb2dVertex
 10
43.04681281536945
 20
-14.95861821445556
 30
0.0
  0
VERTEX
  5
2B0
330
2AA
100
AcDbEntity
  8
Segments
 62
   144
420
  1929399
370
    35
100
AcDbVertex
100
AcDb2dVertex
 10
95.81585240421886
 20
-14.95861821445556
 30
0.0
  0
VERTEX
  5
2B1
330
2AA
100
AcDbEntity
  8
Segments
 62
   144
420
  1929399
370
    35
100
AcDbVertex
100
AcDb2dVertex
 10
109.4210565520096
 20
-28.82104450859529
 30
0.0
  0
SEQEND
  5
2B2
330
2AA
100
AcDbEntity
  8
Segments
 62
   144
420
  1929399
370
    35
  0
ENDBLK
  5
2A9
330
2A6
100
AcDbEntity
  8
0
100
AcDbBlockEnd
  0
BLOCK
  5
2B5
330
2B3
100
AcDbEntity
  8
0
100
AcDbBlockBegin
  2
block 16
 70
     0
 10
0.0
 20
0.0
 30
0.0
  3
block 16
  1

  0
POLYLINE
  5
2B7
330
2B3
100
AcDbEntity
  8
Segments
 62
   144
420
  1929399
370
    35
100
AcDb2dPolyline
 66
     1
 10
0.0
 20
0.0
 30
0.0
  0
VERTEX
  5
2B8
330
2B7
100
AcDbEntity
  8
Segments
 62
   144
420
  1929399
370
    35
100
AcDbVertex
100
AcDb2dVertex
 10
27.02751918593378
 20
-31.01305683767333
 30
0.0
  0
VERTEX
  5
2B9
330
2B7
100
AcDbEntity
  8
Segments
 62
   144
420
  1929399
370
    35
100
AcDbVertex
100
AcDb2dVertex
 10
40.88995594689488
 20
-44.61826098546403
 30
0.0
  0
VERTEX
  5
2BA
330
2B7
100
AcDbEntity
  8
Segments
 62
   144
420
  1929399
370
    35
100
AcDbVertex
100
AcDb2dVertex
 10
40.88995594689488
 20
-97.38730057431376
 30
0.0
  0
VERTEX
  5
2BB
330
2B7
100
AcDbEntity
  8
Segments
 62
   144
420
  1929399
370
    35
100
AcDbVertex
100
AcDb2dVertex
 10
27.02751918593378
 20
-111.2658562408852
 30
0.0
  0
VERTEX
  5
2BC
330
2B7
100
AcDbEntity
  8
Segments
 62
   144
420
  1929399
370
    35
100
AcDbVertex
100
AcDb2dVertex
 10
13.16509289179374
 20
-97.38730057431376
 30
0.0
  0
VERTEX
  5
2BD
330
2B7
100
AcDbEntity
  8
Segments
 62
   144
420
  1929399
370
    35
100
AcDbVertex
100
AcDb2dVertex
 10
13.16509289179374
 20
-44.61826098546403
 30
0.0
  0
VERTEX
  5
2BE
330
2B7
100
AcDbEntity
  8
Segments
 62
   144
420
  1929399
370
    35
100
AcDbVertex
100
AcDb2dVertex
 10
27.02751918593378
 20
-31.01305683767333
 30
0.0
  0
SEQEND
  5
2BF
330
2B7
100
AcDbEntity
  8
Segments
 62
   144
420
  1929399
370
    35
  0
ENDBLK
  5
2B6
330
2B3
100
AcDbEntity
  8
0
100
AcDbBlockEnd
  0
BLOCK
  5
2C2
330
2C0
100
AcDbEntity
  8
0
100
AcDbBlockBegin
  2
block 17
 70
     0
 10
0.0
 20
0.0
 30
0.0
  3
block 17
  1

  0
POLYLINE
  5
2C4
330
2C0
100
AcDbEntity
  8
Segments
 62
   144
420
  1929399
370
    35
100
AcDb2dPolyline
 66
     1
 10
0.0
 20
0.0
 30
0.0
  0
VERTEX
  5
2C5
330
2C4
100
AcDbEntity
  8
Segments
 62
   144
420
  1929399
370
    35
100
AcDbVertex
100
AcDb2dVertex
 10
29.41485409785978
 20
-113.6370274147951
 30
0.0
  0
VERTEX
  5
2C6
330
2C4
100
AcDbEntity
  8
Segments
 62
   144
420
  1929399
370
    35
100
AcDbVertex
100
AcDb2dVertex
 10
43.02005824565047
 20
-99.77459065383401
 30
0.0
  0
VERTEX
  5
2C7
330
2C4
100
AcDbEntity
  8
Segments
 62
   144
420
  1929399
370
    35
100
AcDbVertex
100
AcDb2dVertex
 10
95.78909783449988
 20
-99.77459065383401
 30
0.0
  0
VERTEX
  5
2C8
330
2C4
100
AcDbEntity
  8
Segments
 62
   144
420
  1929399
370
    35
100
AcDbVertex
100
AcDb2dVertex
 10
109.6676535010716
 20
-113.6370274147951
 30
0.0
  0
VERTEX
  5
2C9
330
2C4
100
AcDbEntity
  8
Segments
 62
   144
420
  1929399
370
    35
100
AcDbVertex
100
AcDb2dVertex
 10
95.78909783449988
 20
-127.4994537089348
 30
0.0
  0
VERTEX
  5
2CA
330
2C4
100
AcDbEntity
  8
Segments
 62
   144
420
  1929399
370
    35
100
AcDbVertex
100
AcDb2dVertex
 10
43.02005824565047
 20
-127.4994537089348
 30
0.0
  0
VERTEX
  5
2CB
330
2C4
100
AcDbEntity
  8
Segments
 62
   144
420
  1929399
370
    35
100
AcDbVertex
100
AcDb2dVertex
 10
29.41485409785978
 20
-113.6370274147951
 30
0.0
  0
SEQEND
  5
2CC
330
2C4
100
AcDbEntity
  8
Segments
 62
   144
420
  1929399
370
    35
  0
ENDBLK
  5
2C3
330
2C0
100
AcDbEntity
  8
0
100
AcDbBlockEnd
  0
BLOCK
  5
2CF
330
2CD
100
AcDbEntity
  8
0
100
AcDbBlockBegin
  2
block 18
 70
     0
 10
0.0
 20
0.0
 30
0.0
  3
block 18
  1

  0
POLYLINE
  5
2D1
330
2CD
100
AcDbEntity
  8
Segments
 62
   144
420
  1929399
370
    35
100
AcDb2dPolyline
 66
     1
 10
0.0
 20
0.0
 30
0.0
  0
VERTEX
  5
2D2
330
2D1
100
AcDbEntity
  8
Segments
 62
   144
420
  1929399
370
    35
100
AcDbVertex
100
AcDb2dVertex
 10
111.8083914639359
 20
-111.4450150857171
 30
0.0
  0
VERTEX
  5
2D3
330
2D1
100
AcDbEntity
  8
Segments
 62
   144
420
  1929399
370
    35
100
AcDbVertex
100
AcDb2dVertex
 10
97.94595470297446
 20
-97.83981093792637
 30
0.0
  0
VERTEX
  5
2D4
330
2D1
100
AcDbEntity
  8
Segments
 62
   144
420
  1929399
370
    35
100
AcDbVertex
100
AcDb2dVertex
 10
97.94595470297446
 20
-45.07077134907728
 30
0.0
  0
VERTEX
  5
2D5
330
2D1
100
AcDbEntity
  8
Segments
 62
   144
420
  1929399
370
    35
100
AcDbVertex
100
AcDb2dVertex
 10
111.8083914639359
 20
-31.19221568250522
 30
0.0
  0
VERTEX
  5
2D6
330
2D1
100
AcDbEntity
  8
Segments
 62
   144
420
  1929399
370
    35
100
AcDbVertex
100
AcDb2dVertex
 10
125.6708177580753
 20
-45.07077134907728
 30
0.0
  0
VERTEX
  5
2D7
330
2D1
100
AcDbEntity
  8
Segments
 62
   144
420
  1929399
370
    35
100
AcDbVertex
100
AcDb2dVertex
 10
125.6708177580753
 20
-97.83981093792637
 30
0.0
  0
VERTEX
  5
2D8
330
2D1
100
AcDbEntity
  8
Segments
 62
   144
420
  1929399
370
    35
100
AcDbVertex
100
AcDb2dVertex
 10
111.8083914639359
 20
-111.4450150857171
 30
0.0
  0
SEQEND
  5
2D9
330
2D1
100
AcDbEntity
  8
Segments
 62
   144
420
  1929399
370
    35
  0
ENDBLK
  5
2D0
330
2CD
100
AcDbEntity
  8
0
100
AcDbBlockEnd
  0
BLOCK
  5
2DC
330
2DA
100
AcDbEntity
  8
0
100
AcDbBlockBegin
  2
block 19
 70
     0
 10
0.0
 20
0.0
 30
0.0
  3
block 19
  1

  0
POLYLINE
  5
2DE
330
2DA
100
AcDbEntity
  8
Segments
 62
   144
420
  1929399
370
    35
100
AcDb2dPolyline
 66
     1
 10
0.0
 20
0.0
 30
0.0
  0
VERTEX
  5
2DF
330
2DE
100
AcDbEntity
  8
Segments
 62
   144
420
  1929399
370
    35
100
AcDbVertex
100
AcDb2dVertex
 10
26.85775701329142
 20
-115.6279536677548
 30
0.0
  0
VERTEX
  5
2E0
330
2DE
100
AcDbEntity
  8
Segments
 62
   144
420
  1929399
370
    35
100
AcDbVertex
100
AcDb2dVertex
 10
40.72019377425283
 20
-129.2331578155455
 30
0.0
  0
VERTEX
  5
2E1
330
2DE
100
AcDbEntity
  8
Segments
 62
   144
420
  1929399
370
    35
100
AcDbVertex
100
AcDb2dVertex
 10
40.72019377425283
 20
-182.0021974043949
 30
0.0
  0
VERTEX
  5
2E2
330
2DE
100
AcDbEntity
  8
Segments
 62
   144
420
  1929399
370
    35
100
AcDbVertex
100
AcDb2dVertex
 10
26.85775701329142
 20
-195.880753070967
 30
0.0
  0
VERTEX
  5
2E3
330
2DE
100
AcDbEntity
  8
Segments
 62
   144
420
  1929399
370
    35
100
AcDbVertex
100
AcDb2dVertex
 10
12.9953307191517
 20
-182.0021974043949
 30
0.0
  0
VERTEX
  5
2E4
330
2DE
100
AcDbEntity
  8
Segments
 62
   144
420
  1929399
370
    35
100
AcDbVertex
100
AcDb2dVertex
 10
12.9953307191517
 20
-129.2331578155455
 30
0.0
  0
VERTEX
  5
2E5
330
2DE
100
AcDbEntity
  8
Segments
 62
   144
420
  1929399
370
    35
100
AcDbVertex
100
AcDb2dVertex
 10
26.85775701329142
 20
-115.6279536677548
 30
0.0
  0
SEQEND
  5
2E6
330
2DE
100
AcDbEntity
  8
Segments
 62
   144
420
  1929399
370
    35
  0
ENDBLK
  5
2DD
330
2DA
100
AcDbEntity
  8
0
100
AcDbBlockEnd
  0
BLOCK
  5
2E9
330
2E7
100
AcDbEntity
  8
0
100
AcDbBlockBegin
  2
block 20
 70
     0
 10
0.0
 20
0.0
 30
0.0
  3
block 20
  1

  0
POLYLINE
  5
2EB
330
2E7
100
AcDbEntity
  8
Segments
 62
   144
420
  1929399
370
    35
100
AcDb2dPolyline
 66
     1
 10
0.0
 20
0.0
 30
0.0
  0
VERTEX
  5
2EC
330
2EB
100
AcDbEntity
  8
Segments
 62
   144
420
  1929399
370
    35
100
AcDbVertex
100
AcDb2dVertex
 10
29.24509192521742
 20
-198.2519242448769
 30
0.0
  0
VERTEX
  5
2ED
330
2EB
100
AcDbEntity
  8
Segments
 62
   144
420
  1929399
370
    35
100
AcDbVertex
100
AcDb2dVertex
 10
42.85029607300844
 20
-184.3894874839155
 30
0.0
  0
VERTEX
  5
2EE
330
2EB
100
AcDbEntity
  8
Segments
 62
   144
420
  1929399
370
    35
100
AcDbVertex
100
AcDb2dVertex
 10
95.61933566185785
 20
-184.3894874839155
 30
0.0
  0
VERTEX
  5
2EF
330
2EB
100
AcDbEntity
  8
Segments
 62
   144
420
  1929399
370
    35
100
AcDbVertex
100
AcDb2dVertex
 10
109.4978913284296
 20
-198.2519242448769
 30
0.0
  0
VERTEX
  5
2F0
330
2EB
100
AcDbEntity
  8
Segments
 62
   144
420
  1929399
370
    35
100
AcDbVertex
100
AcDb2dVertex
 10
95.61933566185785
 20
-212.1143505390166
 30
0.0
  0
VERTEX
  5
2F1
330
2EB
100
AcDbEntity
  8
Segments
 62
   144
420
  1929399
370
    35
100
AcDbVertex
100
AcDb2dVertex
 10
42.85029607300844
 20
-212.1143505390166
 30
0.0
  0
VERTEX
  5
2F2
330
2EB
100
AcDbEntity
  8
Segments
 62
   144
420
  1929399
370
    35
100
AcDbVertex
100
AcDb2dVertex
 10
29.24509192521742
 20
-198.2519242448769
 30
0.0
  0
SEQEND
  5
2F3
330
2EB
100
AcDbEntity
  8
Segments
 62
   144
420
  1929399
370
    35
  0
ENDBLK
  5
2EA
330
2E7
100
AcDbEntity
  8
0
100
AcDbBlockEnd
  0
BLOCK
  5
2F6
330
2F4
100
AcDbEntity
  8
0
100
AcDbBlockBegin
  2
block 21
 70
     0
 10
0.0
 20
0.0
 30
0.0
  3
block 21
  1

  0
POLYLINE
  5
2F8
330
2F4
100
AcDbEntity
  8
Segments
 62
   144
420
  1929399
370
    35
100
AcDb2dPolyline
 66
     1
 10
0.0
 20
0.0
 30
0.0
  0
VERTEX
  5
2F9
330
2F8
100
AcDbEntity
  8
Segments
 62
   144
420
  1929399
370
    35
100
AcDbVertex
100
AcDb2dVertex
 10
111.6386292912935
 20
-196.0599119157989
 30
0.0
  0
VERTEX
  5
2FA
330
2F8
100
AcDbEntity
  8
Segments
 62
   144
420
  1929399
370
    35
100
AcDbVertex
100
AcDb2dVertex
 10
97.7761925303321
 20
-182.4547077680082
 30
0.0
  0
VERTEX
  5
2FB
330
2F8
100
AcDbEntity
  8
Segments
 62
   144
420
  1929399
370
    35
100
AcDbVertex
100
AcDb2dVertex
 10
97.7761925303321
 20
-129.6856681791585
 30
0.0
  0
VERTEX
  5
2FC
330
2F8
100
AcDbEntity
  8
Segments
 62
   144
420
  1929399
370
    35
100
AcDbVertex
100
AcDb2dVertex
 10
111.6386292912935
 20
-115.807112512587
 30
0.0
  0
VERTEX
  5
2FD
330
2F8
100
AcDbEntity
  8
Segments
 62
   144
420
  1929399
370
    35
100
AcDbVertex
100
AcDb2dVertex
 10
125.5010555854332
 20
-129.6856681791585
 30
0.0
  0
VERTEX
  5
2FE
330
2F8
100
AcDbEntity
  8
Segments
 62
   144
420
  1929399
370
    35
100
AcDbVertex
100
AcDb2dVertex
 10
125.5010555854332
 20
-182.4547077680082
 30
0.0
  0
VERTEX
  5
2FF
330
2F8
100
AcDbEntity
  8
Segments
 62
   144
420
  1929399
370
    35
100
AcDbVertex
100
AcDb2dVertex
 10
111.6386292912935
 20
-196.0599119157989
 30
0.0
  0
SEQEND
  5
300
330
2F8
100
AcDbEntity
  8
Segments
 62
   144
420
  1929399
370
    35
  0
ENDBLK
  5
2F7
330
2F4
100
AcDbEntity
  8
0
100
AcDbBlockEnd
  0
BLOCK
  5
303
330
301
100
AcDbEntity
  8
0
100
AcDbBlockBegin
  2
block 22
 70
     0
 10
0.0
 20
0.0
 30
0.0
  3
block 22
  1

  0
POLYLINE
  5
305
330
301
100
AcDbEntity
  8
Segments
 62
   144
420
  1929399
370
    35
100
AcDb2dPolyline
 66
     1
 10
0.0
 20
0.0
 30
0.0
  0
VERTEX
  5
306
330
305
100
AcDbEntity
  8
Segments
 62
   144
420
  1929399
370
    35
100
AcDbVertex
100
AcDb2dVertex
 10
238.616187205474
 20
-28.92158231324361
 30
0.0
  0
VERTEX
  5
307
330
305
100
AcDbEntity
  8
Segments
 62
   144
420
  1929399
370
    35
100
AcDbVertex
100
AcDb2dVertex
 10
225.0109830576833
 20
-42.78401907420503
 30
0.0
  0
VERTEX
  5
308
330
305
100
AcDbEntity
  8
Segments
 62
   144
420
  1929399
370
    35
100
AcDbVertex
100
AcDb2dVertex
 10
172.2419434688339
 20
-42.78401907420503
 30
0.0
  0
VERTEX
  5
309
330
305
100
AcDbEntity
  8
Segments
 62
   144
420
  1929399
370
    35
100
AcDbVertex
100
AcDb2dVertex
 10
158.3633878022621
 20
-28.92158231324361
 30
0.0
  0
VERTEX
  5
30A
330
305
100
AcDbEntity
  8
Segments
 62
   144
420
  1929399
370
    35
100
AcDbVertex
100
AcDb2dVertex
 10
172.2419434688339
 20
-15.05915601910389
 30
0.0
  0
VERTEX
  5
30B
330
305
100
AcDbEntity
  8
Segments
 62
   144
420
  1929399
370
    35
100
AcDbVertex
100
AcDb2dVertex
 10
225.0109830576833
 20
-15.05915601910389
 30
0.0
  0
VERTEX
  5
30C
330
305
100
AcDbEntity
  8
Segments
 62
   144
420
  1929399
370
    35
100
AcDbVertex
100
AcDb2dVertex
 10
238.616187205474
 20
-28.92158231324361
 30
0.0
  0
SEQEND
  5
30D
330
305
100
AcDbEntity
  8
Segments
 62
   144
420
  1929399
370
    35
  0
ENDBLK
  5
304
330
301
100
AcDbEntity
  8
0
100
AcDbBlockEnd
  0
BLOCK
  5
310
330
30E
100
AcDbEntity
  8
0
100
AcDbBlockBegin
  2
block 23
 70
     0
 10
0.0
 20
0.0
 30
0.0
  3
block 23
  1

  0
POLYLINE
  5
312
330
30E
100
AcDbEntity
  8
Segments
 62
   144
420
  1929399
370
    35
100
AcDb2dPolyline
 66
     1
 10
0.0
 20
0.0
 30
0.0
  0
VERTEX
  5
313
330
312
100
AcDbEntity
  8
Segments
 62
   144
420
  1929399
370
    35
100
AcDbVertex
100
AcDb2dVertex
 10
156.2226498393982
 20
-31.11359464232166
 30
0.0
  0
VERTEX
  5
314
330
312
100
AcDbEntity
  8
Segments
 62
   144
420
  1929399
370
    35
100
AcDbVertex
100
AcDb2dVertex
 10
170.0850866003596
 20
-44.71879879011203
 30
0.0
  0
VERTEX
  5
315
330
312
100
AcDbEntity
  8
Segments
 62
   144
420
  1929399
370
    35
100
AcDbVertex
100
AcDb2dVertex
 10
170.0850866003596
 20
-97.48783837896175
 30
0.0
  0
VERTEX
  5
316
330
312
100
AcDbEntity
  8
Segments
 62
   144
420
  1929399
370
    35
100
AcDbVertex
100
AcDb2dVertex
 10
156.2226498393982
 20
-111.3663940455335
 30
0.0
  0
VERTEX
  5
317
330
312
100
AcDbEntity
  8
Segments
 62
   144
420
  1929399
370
    35
100
AcDbVertex
100
AcDb2dVertex
 10
142.3602235452585
 20
-97.48783837896175
 30
0.0
  0
VERTEX
  5
318
330
312
100
AcDbEntity
  8
Segments
 62
   144
420
  1929399
370
    35
100
AcDbVertex
100
AcDb2dVertex
 10
142.3602235452585
 20
-44.71879879011203
 30
0.0
  0
VERTEX
  5
319
330
312
100
AcDbEntity
  8
Segments
 62
   144
420
  1929399
370
    35
100
AcDbVertex
100
AcDb2dVertex
 10
156.2226498393982
 20
-31.11359464232166
 30
0.0
  0
SEQEND
  5
31A
330
312
100
AcDbEntity
  8
Segments
 62
   144
420
  1929399
370
    35
  0
ENDBLK
  5
311
330
30E
100
AcDbEntity
  8
0
100
AcDbBlockEnd
  0
BLOCK
  5
31D
330
31B
100
AcDbEntity
  8
0
100
AcDbBlockBegin
  2
block 24
 70
     0
 10
0.0
 20
0.0
 30
0.0
  3
block 24
  1

  0
POLYLINE
  5
31F
330
31B
100
AcDbEntity
  8
Segments
 62
   144
420
  1929399
370
    35
100
AcDb2dPolyline
 66
     1
 10
0.0
 20
0.0
 30
0.0
  0
VERTEX
  5
320
330
31F
100
AcDbEntity
  8
Segments
 62
   144
420
  1929399
370
    35
100
AcDbVertex
100
AcDb2dVertex
 10
158.6099847513242
 20
-113.7375652194434
 30
0.0
  0
VERTEX
  5
321
330
31F
100
AcDbEntity
  8
Segments
 62
   144
420
  1929399
370
    35
100
AcDbVertex
100
AcDb2dVertex
 10
172.2151888991152
 20
-99.87512845848201
 30
0.0
  0
VERTEX
  5
322
330
31F
100
AcDbEntity
  8
Segments
 62
   144
420
  1929399
370
    35
100
AcDbVertex
100
AcDb2dVertex
 10
224.9842284879643
 20
-99.87512845848201
 30
0.0
  0
VERTEX
  5
323
330
31F
100
AcDbEntity
  8
Segments
 62
   144
420
  1929399
370
    35
100
AcDbVertex
100
AcDb2dVertex
 10
238.8627841545364
 20
-113.7375652194434
 30
0.0
  0
VERTEX
  5
324
330
31F
100
AcDbEntity
  8
Segments
 62
   144
420
  1929399
370
    35
100
AcDbVertex
100
AcDb2dVertex
 10
224.9842284879643
 20
-127.5999915135832
 30
0.0
  0
VERTEX
  5
325
330
31F
100
AcDbEntity
  8
Segments
 62
   144
420
  1929399
370
    35
100
AcDbVertex
100
AcDb2dVertex
 10
172.2151888991152
 20
-127.5999915135832
 30
0.0
  0
VERTEX
  5
326
330
31F
100
AcDbEntity
  8
Segments
 62
   144
420
  1929399
370
    35
100
AcDbVertex
100
AcDb2dVertex
 10
158.6099847513242
 20
-113.7375652194434
 30
0.0
  0
SEQEND
  5
327
330
31F
100
AcDbEntity
  8
Segments
 62
   144
420
  1929399
370
    35
  0
ENDBLK
  5
31E
330
31B
100
AcDbEntity
  8
0
100
AcDbBlockEnd
  0
BLOCK
  5
32A
330
328
100
AcDbEntity
  8
0
100
AcDbBlockBegin
  2
block 25
 70
     0
 10
0.0
 20
0.0
 30
0.0
  3
block 25
  1

  0
POLYLINE
  5
32C
330
328
100
AcDbEntity
  8
Segments
 62
   144
420
  1929399
370
    35
100
AcDb2dPolyline
 66
     1
 10
0.0
 20
0.0
 30
0.0
  0
VERTEX
  5
32D
330
32C
100
AcDbEntity
  8
Segments
 62
   144
420
  1929399
370
    35
100
AcDbVertex
100
AcDb2dVertex
 10
241.0035221174006
 20
-111.5455528903654
 30
0.0
  0
VERTEX
  5
32E
330
32C
100
AcDbEntity
  8
Segments
 62
   144
420
  1929399
370
    35
100
AcDbVertex
100
AcDb2dVertex
 10
227.1410853564392
 20
-97.94034874257501
 30
0.0
  0
VERTEX
  5
32F
330
32C
100
AcDbEntity
  8
Segments
 62
   144
420
  1929399
370
    35
100
AcDbVertex
100
AcDb2dVertex
 10
227.1410853564392
 20
-45.17130915372528
 30
0.0
  0
VERTEX
  5
330
330
32C
100
AcDbEntity
  8
Segments
 62
   144
420
  1929399
370
    35
100
AcDbVertex
100
AcDb2dVertex
 10
241.0035221174006
 20
-31.29275348715354
 30
0.0
  0
VERTEX
  5
331
330
32C
100
AcDbEntity
  8
Segments
 62
   144
420
  1929399
370
    35
100
AcDbVertex
100
AcDb2dVertex
 10
254.86594841154
 20
-45.17130915372528
 30
0.0
  0
VERTEX
  5
332
330
32C
100
AcDbEntity
  8
Segments
 62
   144
420
  1929399
370
    35
100
AcDbVertex
100
AcDb2dVertex
 10
254.86594841154
 20
-97.94034874257501
 30
0.0
  0
VERTEX
  5
333
330
32C
100
AcDbEntity
  8
Segments
 62
   144
420
  1929399
370
    35
100
AcDbVertex
100
AcDb2dVertex
 10
241.0035221174006
 20
-111.5455528903654
 30
0.0
  0
SEQEND
  5
334
330
32C
100
AcDbEntity
  8
Segments
 62
   144
420
  1929399
370
    35
  0
ENDBLK
  5
32B
330
328
100
AcDbEntity
  8
0
100
AcDbBlockEnd
  0
BLOCK
  5
337
330
335
100
AcDbEntity
  8
0
100
AcDbBlockBegin
  2
block 26
 70
     0
 10
0.0
 20
0.0
 30
0.0
  3
block 26
  1

  0
POLYLINE
  5
339
330
335
100
AcDbEntity
  8
Segments
 62
   144
420
  1929399
370
    35
100
AcDb2dPolyline
 66
     1
 10
0.0
 20
0.0
 30
0.0
  0
VERTEX
  5
33A
330
339
100
AcDbEntity
  8
Segments
 62
   144
420
  1929399
370
    35
100
AcDbVertex
100
AcDb2dVertex
 10
156.0528876667562
 20
-115.7284914724031
 30
0.0
  0
VERTEX
  5
33B
330
339
100
AcDbEntity
  8
Segments
 62
   144
420
  1929399
370
    35
100
AcDbVertex
100
AcDb2dVertex
 10
169.9153244277176
 20
-129.3336956201939
 30
0.0
  0
VERTEX
  5
33C
330
339
100
AcDbEntity
  8
Segments
 62
   144
420
  1929399
370
    35
100
AcDbVertex
100
AcDb2dVertex
 10
169.9153244277176
 20
-182.1027352090432
 30
0.0
  0
VERTEX
  5
33D
330
339
100
AcDbEntity
  8
Segments
 62
   144
420
  1929399
370
    35
100
AcDbVertex
100
AcDb2dVertex
 10
156.0528876667562
 20
-195.981290875615
 30
0.0
  0
VERTEX
  5
33E
330
339
100
AcDbEntity
  8
Segments
 62
   144
420
  1929399
370
    35
100
AcDbVertex
100
AcDb2dVertex
 10
142.1904613726161
 20
-182.1027352090432
 30
0.0
  0
VERTEX
  5
33F
330
339
100
AcDbEntity
  8
Segments
 62
   144
420
  1929399
370
    35
100
AcDbVertex
100
AcDb2dVertex
 10
142.1904613726161
 20
-129.3336956201939
 30
0.0
  0
VERTEX
  5
340
330
339
100
AcDbEntity
  8
Segments
 62
   144
420
  1929399
370
    35
100
AcDbVertex
100
AcDb2dVertex
 10
156.0528876667562
 20
-115.7284914724031
 30
0.0
  0
SEQEND
  5
341
330
339
100
AcDbEntity
  8
Segments
 62
   144
420
  1929399
370
    35
  0
ENDBLK
  5
338
330
335
100
AcDbEntity
  8
0
100
AcDbBlockEnd
  0
BLOCK
  5
344
330
342
100
AcDbEntity
  8
0
100
AcDbBlockBegin
  2
block 27
 70
     0
 10
0.0
 20
0.0
 30
0.0
  3
block 27
  1

  0
POLYLINE
  5
346
330
342
100
AcDbEntity
  8
Segments
 62
   144
420
  1929399
370
    35
100
AcDb2dPolyline
 66
     1
 10
0.0
 20
0.0
 30
0.0
  0
VERTEX
  5
347
330
346
100
AcDbEntity
  8
Segments
 62
   144
420
  1929399
370
    35
100
AcDbVertex
100
AcDb2dVertex
 10
158.4402225786822
 20
-198.3524620495249
 30
0.0
  0
VERTEX
  5
348
330
346
100
AcDbEntity
  8
Segments
 62
   144
420
  1929399
370
    35
100
AcDbVertex
100
AcDb2dVertex
 10
172.0454267264728
 20
-184.4900252885638
 30
0.0
  0
VERTEX
  5
349
330
346
100
AcDbEntity
  8
Segments
 62
   144
420
  1929399
370
    35
100
AcDbVertex
100
AcDb2dVertex
 10
224.8144663153222
 20
-184.4900252885638
 30
0.0
  0
VERTEX
  5
34A
330
346
100
AcDbEntity
  8
Segments
 62
   144
420
  1929399
370
    35
100
AcDbVertex
100
AcDb2dVertex
 10
238.693021981894
 20
-198.3524620495249
 30
0.0
  0
VERTEX
  5
34B
330
346
100
AcDbEntity
  8
Segments
 62
   144
420
  1929399
370
    35
100
AcDbVertex
100
AcDb2dVertex
 10
224.8144663153222
 20
-212.214888343665
 30
0.0
  0
VERTEX
  5
34C
330
346
100
AcDbEntity
  8
Segments
 62
   144
420
  1929399
370
    35
100
AcDbVertex
100
AcDb2dVertex
 10
172.0454267264728
 20
-212.214888343665
 30
0.0
  0
VERTEX
  5
34D
330
346
100
AcDbEntity
  8
Segments
 62
   144
420
  1929399
370
    35
100
AcDbVertex
100
AcDb2dVertex
 10
158.4402225786822
 20
-198.3524620495249
 30
0.0
  0
SEQEND
  5
34E
330
346
100
AcDbEntity
  8
Segments
 62
   144
420
  1929399
370
    35
  0
ENDBLK
  5
345
330
342
100
AcDbEntity
  8
0
100
AcDbBlockEnd
  0
BLOCK
  5
351
330
34F
100
AcDbEntity
  8
0
100
AcDbBlockBegin
  2
block 28
 70
     0
 10
0.0
 20
0.0
 30
0.0
  3
block 28
  1

  0
POLYLINE
  5
353
330
34F
100
AcDbEntity
  8
Segments
 62
   144
420
  1929399
370
    35
100
AcDb2dPolyline
 66
     1
 10
0.0
 20
0.0
 30
0.0
  0
VERTEX
  5
354
330
353
100
AcDbEntity
  8
Segments
 62
   144
420
  1929399
370
    35
100
AcDbVertex
100
AcDb2dVertex
 10
240.8337599447579
 20
-196.1604497204472
 30
0.0
  0
VERTEX
  5
355
330
353
100
AcDbEntity
  8
Segments
 62
   144
420
  1929399
370
    35
100
AcDbVertex
100
AcDb2dVertex
 10
226.9713231837968
 20
-182.5552455726562
 30
0.0
  0
VERTEX
  5
356
330
353
100
AcDbEntity
  8
Segments
 62
   144
420
  1929399
370
    35
100
AcDbVertex
100
AcDb2dVertex
 10
226.9713231837968
 20
-129.7862059838071
 30
0.0
  0
VERTEX
  5
357
330
353
100
AcDbEntity
  8
Segments
 62
   144
420
  1929399
370
    35
100
AcDbVertex
100
AcDb2dVertex
 10
240.8337599447579
 20
-115.907650317235
 30
0.0
  0
VERTEX
  5
358
330
353
100
AcDbEntity
  8
Segments
 62
   144
420
  1929399
370
    35
100
AcDbVertex
100
AcDb2dVertex
 10
254.6961862388973
 20
-129.7862059838071
 30
0.0
  0
VERTEX
  5
359
330
353
100
AcDbEntity
  8
Segments
 62
   144
420
  1929399
370
    35
100
AcDbVertex
100
AcDb2dVertex
 10
254.6961862388973
 20
-182.5552455726562
 30
0.0
  0
VERTEX
  5
35A
330
353
100
AcDbEntity
  8
Segments
 62
   144
420
  1929399
370
    35
100
AcDbVertex
100
AcDb2dVertex
 10
240.8337599447579
 20
-196.1604497204472
 30
0.0
  0
SEQEND
  5
35B
330
353
100
AcDbEntity
  8
Segments
 62
   144
420
  1929399
370
    35
  0
ENDBLK
  5
352
330
34F
100
AcDbEntity
  8
0
100
AcDbBlockEnd
  0
ENDSEC
  0
SECTION
  2
ENTITIES
  0
POLYLINE
  5
41
330
1F
100
AcDbEntity
  8
Wire Cutouts
 62
   179
420
  1842203
370
    35
100
AcDb2dPolyline
 66
     1
 10
0.0
 20
0.0
 30
0.0
  0
VERTEX
  5
42
330
41
100
AcDbEntity
  8
Wire Cutouts
 62
   179
420
  1842203
370
    35
100
AcDbVertex
100
AcDb2dVertex
 10
42.45886894887669
 20
-202.5122014534005
 30
0.0
  0
VERTEX
  5
43
330
41
100
AcDbEntity
  8
Wire Cutouts
 62
   179
420
  1842203
370
    35
100
AcDbVertex
100
AcDb2dVertex
 10
39.18758077860335
 20
-202.5122014534005
 30
0.0
  0
VERTEX
  5
44
330
41
100
AcDbEntity
  8
Wire Cutouts
 62
   179
420
  1842203
370
    35
100
AcDbVertex
100
AcDb2dVertex
 10
39.18758077860335
 20
-193.9916365695314
 30
0.0
  0
VERTEX
  5
45
330
41
100
AcDbEntity
  8
Wire Cutouts
 62
   179
420
  1842203
370
    35
100
AcDbVertex
100
AcDb2dVertex
 10
42.45886894887669
 20
-193.9916365695314
 30
0.0
  0
VERTEX
  5
46
330
41
100
AcDbEntity
  8
Wire Cutouts
 62
   179
420
  1842203
370
    35
100
AcDbVertex
100
AcDb2dVertex
 10
42.45886894887669
 20
-202.5122014534005
 30
0.0
  0
SEQEND
  5
47
330
41
100
AcDbEntity
  8
Wire Cutouts
 62
   179
420
  1842203
370
    35
  0
POLYLINE
  5
48
330
1F
100
AcDbEntity
  8
Wire Cutouts
 62
   179
420
  1842203
370
    35
100
AcDb2dPolyline
 66
     1
 10
0.0
 20
0.0
 30
0.0
  0
VERTEX
  5
49
330
48
100
AcDbEntity
  8
Wire Cutouts
 62
   179
420
  1842203
370
    35
100
AcDbVertex
100
AcDb2dVertex
 10
97.42474191963639
 20
-202.5122014534005
 30
0.0
  0
VERTEX
  5
4A
330
48
100
AcDbEntity
  8
Wire Cutouts
 62
   179
420
  1842203
370
    35
100
AcDbVertex
100
AcDb2dVertex
 10
94.15345374936305
 20
-202.5122014534005
 30
0.0
  0
VERTEX
  5
4B
330
48
100
AcDbEntity
  8
Wire Cutouts
 62
   179
420
  1842203
370
    35
100
AcDbVertex
100
AcDb2dVertex
 10
94.15345374936305
 20
-193.9916365695314
 30
0.0
  0
VERTEX
  5
4C
330
48
100
AcDbEntity
  8
Wire Cutouts
 62
   179
420
  1842203
370
    35
100
AcDbVertex
100
AcDb2dVertex
 10
97.42474191963639
 20
-193.9916365695314
 30
0.0
  0
VERTEX
  5
4D
330
48
100
AcDbEntity
  8
Wire Cutouts
 62
   179
420
  1842203
370
    35
100
AcDbVertex
100
AcDb2dVertex
 10
97.42474191963639
 20
-202.5122014534005
 30
0.0
  0
SEQEND
  5
4E
330
48
100
AcDbEntity
  8
Wire Cutouts
 62
   179
420
  1842203
370
    35
  0
POLYLINE
  5
4F
330
1F
100
AcDbEntity
  8
Wire Cutouts
 62
   179
420
  1842203
370
    35
100
AcDb2dPolyline
 66
     1
 10
0.0
 20
0.0
 30
0.0
  0
VERTEX
  5
50
330
4F
100
AcDbEntity
  8
Wire Cutouts
 62
   179
420
  1842203
370
    35
100
AcDbVertex
100
AcDb2dVertex
 10
97.25497974699435
 20
-117.6962290140223
 30
0.0
  0
VERTEX
  5
51
330
4F
100
AcDbEntity
  8
Wire Cutouts
 62
   179
420
  1842203
370
    35
100
AcDbVertex
100
AcDb2dVertex
 10
93.98369157672133
 20
-117.6962290140223
 30
0.0
  0
VERTEX
  5
52
330
4F
100
AcDbEntity
  8
Wire Cutouts
 62
   179
420
  1842203
370
    35
100
AcDbVertex
100
AcDb2dVertex
 10
93.98369157672133
 20
-109.1756641301529
 30
0.0
  0
VERTEX
  5
53
330
4F
100
AcDbEntity
  8
Wire Cutouts
 62
   179
420
  1842203
370
    35
100
AcDbVertex
100
AcDb2dVertex
 10
97.25497974699435
 20
-109.1756641301529
 30
0.0
  0
VERTEX
  5
54
330
4F
100
AcDbEntity
  8
Wire Cutouts
 62
   179
420
  1842203
370
    35
100
AcDbVertex
100
AcDb2dVertex
 10
97.25497974699435
 20
-117.6962290140223
 30
0.0
  0
SEQEND
  5
55
330
4F
100
AcDbEntity
  8
Wire Cutouts
 62
   179
420
  1842203
370
    35
  0
POLYLINE
  5
56
330
1F
100
AcDbEntity
  8
Wire Cutouts
 62
   179
420
  1842203
370
    35
100
AcDb2dPolyline
 66
     1
 10
0.0
 20
0.0
 30
0.0
  0
VERTEX
  5
57
330
56
100
AcDbEntity
  8
Wire Cutouts
 62
   179
420
  1842203
370
    35
100
AcDbVertex
100
AcDb2dVertex
 10
97.45149648935505
 20
-33.08133218394085
 30
0.0
  0
VERTEX
  5
58
330
56
100
AcDbEntity
  8
Wire Cutouts
 62
   179
420
  1842203
370
    35
100
AcDbVertex
100
AcDb2dVertex
 10
94.18020831908234
 20
-33.08133218394085
 30
0.0
  0
VERTEX
  5
59
330
56
100
AcDbEntity
  8
Wire Cutouts
 62
   179
420
  1842203
370
    35
100
AcDbVertex
100
AcDb2dVertex
 10
94.18020831908234
 20
-24.56076730007141
 30
0.0
  0
VERTEX
  5
5A
330
56
100
AcDbEntity
  8
Wire Cutouts
 62
   179
420
  1842203
370
    35
100
AcDbVertex
100
AcDb2dVertex
 10
97.45149648935505
 20
-24.56076730007141
 30
0.0
  0
VERTEX
  5
5B
330
56
100
AcDbEntity
  8
Wire Cutouts
 62
   179
420
  1842203
370
    35
100
AcDbVertex
100
AcDb2dVertex
 10
97.45149648935505
 20
-33.08133218394085
 30
0.0
  0
SEQEND
  5
5C
330
56
100
AcDbEntity
  8
Wire Cutouts
 62
   179
420
  1842203
370
    35
  0
POLYLINE
  5
5D
330
1F
100
AcDbEntity
  8
Wire Cutouts
 62
   179
420
  1842203
370
    35
100
AcDb2dPolyline
 66
     1
 10
0.0
 20
0.0
 30
0.0
  0
VERTEX
  5
5E
330
5D
100
AcDbEntity
  8
Wire Cutouts
 62
   179
420
  1842203
370
    35
100
AcDbVertex
100
AcDb2dVertex
 10
44.09451303401288
 20
-117.897304623319
 30
0.0
  0
VERTEX
  5
5F
330
5D
100
AcDbEntity
  8
Wire Cutouts
 62
   179
420
  1842203
370
    35
100
AcDbVertex
100
AcDb2dVertex
 10
40.82322486374018
 20
-117.897304623319
 30
0.0
  0
VERTEX
  5
60
330
5D
100
AcDbEntity
  8
Wire Cutouts
 62
   179
420
  1842203
370
    35
100
AcDbVertex
100
AcDb2dVertex
 10
40.82322486374018
 20
-109.3767397394495
 30
0.0
  0
VERTEX
  5
61
330
5D
100
AcDbEntity
  8
Wire Cutouts
 62
   179
420
  1842203
370
    35
100
AcDbVertex
100
AcDb2dVertex
 10
44.09451303401288
 20
-109.3767397394495
 30
0.0
  0
VERTEX
  5
62
330
5D
100
AcDbEntity
  8
Wire Cutouts
 62
   179
420
  1842203
370
    35
100
AcDbVertex
100
AcDb2dVertex
 10
44.09451303401288
 20
-117.897304623319
 30
0.0
  0
SEQEND
  5
63
330
5D
100
AcDbEntity
  8
Wire Cutouts
 62
   179
420
  1842203
370
    35
  0
POLYLINE
  5
64
330
1F
100
AcDbEntity
  8
Wire Cutouts
 62
   179
420
  1842203
370
    35
100
AcDb2dPolyline
 66
     1
 10
0.0
 20
0.0
 30
0.0
  0
VERTEX
  5
65
330
64
100
AcDbEntity
  8
Wire Cutouts
 62
   179
420
  1842203
370
    35
100
AcDbVertex
100
AcDb2dVertex
 10
44.09451303401288
 20
-32.88025657464421
 30
0.0
  0
VERTEX
  5
66
330
64
100
AcDbEntity
  8
Wire Cutouts
 62
   179
420
  1842203
370
    35
100
AcDbVertex
100
AcDb2dVertex
 10
40.82322486374018
 20
-32.88025657464421
 30
0.0
  0
VERTEX
  5
67
330
64
100
AcDbEntity
  8
Wire Cutouts
 62
   179
420
  1842203
370
    35
100
AcDbVertex
100
AcDb2dVertex
 10
40.82322486374018
 20
-24.35969169077477
 30
0.0
  0
VERTEX
  5
68
330
64
100
AcDbEntity
  8
Wire Cutouts
 62
   179
420
  1842203
370
    35
100
AcDbVertex
100
AcDb2dVertex
 10
44.09451303401288
 20
-24.35969169077477
 30
0.0
  0
VERTEX
  5
69
330
64
100
AcDbEntity
  8
Wire Cutouts
 62
   179
420
  1842203
370
    35
100
AcDbVertex
100
AcDb2dVertex
 10
44.09451303401288
 20
-32.88025657464421
 30
0.0
  0
SEQEND
  5
6A
330
64
100
AcDbEntity
  8
Wire Cutouts
 62
   179
420
  1842203
370
    35
  0
POLYLINE
  5
6B
330
1F
100
AcDbEntity
  8
Wire Cutouts
 62
   179
420
  1842203
370
    35
100
AcDb2dPolyline
 66
     1
 10
0.0
 20
0.0
 30
0.0
  0
VERTEX
  5
6C
330
6B
100
AcDbEntity
  8
Wire Cutouts
 62
   179
420
  1842203
370
    35
100
AcDbVertex
100
AcDb2dVertex
 10
31.28780686127903
 20
-41.0478371844202
 30
0.0
  0
VERTEX
  5
6D
330
6B
100
AcDbEntity
  8
Wire Cutouts
 62
   179
420
  1842203
370
    35
100
AcDbVertex
100
AcDb2dVertex
 10
31.28780686127903
 20
-44.31912535469289
 30
0.0
  0
VERTEX
  5
6E
330
6B
100
AcDbEntity
  8
Wire Cutouts
 62
   179
420
  1842203
370
    35
100
AcDbVertex
100
AcDb2dVertex
 10
22.76724197740959
 20
-44.31912535469289
 30
0.0
  0
VERTEX
  5
6F
330
6B
100
AcDbEntity
  8
Wire Cutouts
 62
   179
420
  1842203
370
    35
100
AcDbVertex
100
AcDb2dVertex
 10
22.76724197740959
 20
-41.0478371844202
 30
0.0
  0
VERTEX
  5
70
330
6B
100
AcDbEntity
  8
Wire Cutouts
 62
   179
420
  1842203
370
    35
100
AcDbVertex
100
AcDb2dVertex
 10
31.28780686127903
 20
-41.0478371844202
 30
0.0
  0
SEQEND
  5
71
330
6B
100
AcDbEntity
  8
Wire Cutouts
 62
   179
420
  1842203
370
    35
  0
POLYLINE
  5
72
330
1F
100
AcDbEntity
  8
Wire Cutouts
 62
   179
420
  1842203
370
    35
100
AcDb2dPolyline
 66
     1
 10
0.0
 20
0.0
 30
0.0
  0
VERTEX
  5
73
330
72
100
AcDbEntity
  8
Wire Cutouts
 62
   179
420
  1842203
370
    35
100
AcDbVertex
100
AcDb2dVertex
 10
30.51262770731514
 20
-97.93787095940054
 30
0.0
  0
VERTEX
  5
74
330
72
100
AcDbEntity
  8
Wire Cutouts
 62
   179
420
  1842203
370
    35
100
AcDbVertex
100
AcDb2dVertex
 10
30.51262770731514
 20
-101.2091591296739
 30
0.0
  0
VERTEX
  5
75
330
72
100
AcDbEntity
  8
Wire Cutouts
 62
   179
420
  1842203
370
    35
100
AcDbVertex
100
AcDb2dVertex
 10
21.99206282344602
 20
-101.2091591296739
 30
0.0
  0
VERTEX
  5
76
330
72
100
AcDbEntity
  8
Wire Cutouts
 62
   179
420
  1842203
370
    35
100
AcDbVertex
100
AcDb2dVertex
 10
21.99206282344602
 20
-97.93787095940054
 30
0.0
  0
VERTEX
  5
77
330
72
100
AcDbEntity
  8
Wire Cutouts
 62
   179
420
  1842203
370
    35
100
AcDbVertex
100
AcDb2dVertex
 10
30.51262770731514
 20
-97.93787095940054
 30
0.0
  0
SEQEND
  5
78
330
72
100
AcDbEntity
  8
Wire Cutouts
 62
   179
420
  1842203
370
    35
  0
POLYLINE
  5
79
330
1F
100
AcDbEntity
  8
Wire Cutouts
 62
   179
420
  1842203
370
    35
100
AcDb2dPolyline
 66
     1
 10
0.0
 20
0.0
 30
0.0
  0
VERTEX
  5
7A
330
79
100
AcDbEntity
  8
Wire Cutouts
 62
   179
420
  1842203
370
    35
100
AcDbVertex
100
AcDb2dVertex
 10
116.6740856537809
 20
-98.1389465686975
 30
0.0
  0
VERTEX
  5
7B
330
79
100
AcDbEntity
  8
Wire Cutouts
 62
   179
420
  1842203
370
    35
100
AcDbVertex
100
AcDb2dVertex
 10
116.6740856537809
 20
-101.4102347389702
 30
0.0
  0
VERTEX
  5
7C
330
79
100
AcDbEntity
  8
Wire Cutouts
 62
   179
420
  1842203
370
    35
100
AcDbVertex
100
AcDb2dVertex
 10
108.1535207699115
 20
-101.4102347389702
 30
0.0
  0
VERTEX
  5
7D
330
79
100
AcDbEntity
  8
Wire Cutouts
 62
   179
420
  1842203
370
    35
100
AcDbVertex
100
AcDb2dVertex
 10
108.1535207699115
 20
-98.1389465686975
 30
0.0
  0
VERTEX
  5
7E
330
79
100
AcDbEntity
  8
Wire Cutouts
 62
   179
420
  1842203
370
    35
100
AcDbVertex
100
AcDb2dVertex
 10
116.6740856537809
 20
-98.1389465686975
 30
0.0
  0
SEQEND
  5
7F
330
79
100
AcDbEntity
  8
Wire Cutouts
 62
   179
420
  1842203
370
    35
  0
POLYLINE
  5
80
330
1F
100
AcDbEntity
  8
Wire Cutouts
 62
   179
420
  1842203
370
    35
100
AcDb2dPolyline
 66
     1
 10
0.0
 20
0.0
 30
0.0
  0
VERTEX
  5
81
330
80
100
AcDbEntity
  8
Wire Cutouts
 62
   179
420
  1842203
370
    35
100
AcDbVertex
100
AcDb2dVertex
 10
115.8989064998174
 20
-182.753843398779
 30
0.0
  0
VERTEX
  5
82
330
80
100
AcDbEntity
  8
Wire Cutouts
 62
   179
420
  1842203
370
    35
100
AcDbVertex
100
AcDb2dVertex
 10
115.8989064998174
 20
-186.025131569052
 30
0.0
  0
VERTEX
  5
83
330
80
100
AcDbEntity
  8
Wire Cutouts
 62
   179
420
  1842203
370
    35
100
AcDbVertex
100
AcDb2dVertex
 10
107.3783416159483
 20
-186.025131569052
 30
0.0
  0
VERTEX
  5
84
330
80
100
AcDbEntity
  8
Wire Cutouts
 62
   179
420
  1842203
370
    35
100
AcDbVertex
100
AcDb2dVertex
 10
107.3783416159483
 20
-182.753843398779
 30
0.0
  0
VERTEX
  5
85
330
80
100
AcDbEntity
  8
Wire Cutouts
 62
   179
420
  1842203
370
    35
100
AcDbVertex
100
AcDb2dVertex
 10
115.8989064998174
 20
-182.753843398779
 30
0.0
  0
SEQEND
  5
86
330
80
100
AcDbEntity
  8
Wire Cutouts
 62
   179
420
  1842203
370
    35
  0
POLYLINE
  5
87
330
1F
100
AcDbEntity
  8
Wire Cutouts
 62
   179
420
  1842203
370
    35
100
AcDb2dPolyline
 66
     1
 10
0.0
 20
0.0
 30
0.0
  0
VERTEX
  5
88
330
87
100
AcDbEntity
  8
Wire Cutouts
 62
   179
420
  1842203
370
    35
100
AcDbVertex
100
AcDb2dVertex
 10
116.0686686724598
 20
-127.7005293182315
 30
0.0
  0
VERTEX
  5
89
330
87
100
AcDbEntity
  8
Wire Cutouts
 62
   179
420
  1842203
370
    35
100
AcDbVertex
100
AcDb2dVertex
 10
116.0686686724598
 20
-130.9718174885045
 30
0.0
  0
VERTEX
  5
8A
330
87
100
AcDbEntity
  8
Wire Cutouts
 62
   179
420
  1842203
370
    35
100
AcDbVertex
100
AcDb2dVertex
 10
107.5481037885903
 20
-130.9718174885045
 30
0.0
  0
VERTEX
  5
8B
330
87
100
AcDbEntity
  8
Wire Cutouts
 62
   179
420
  1842203
370
    35
100
AcDbVertex
100
AcDb2dVertex
 10
107.5481037885903
 20
-127.7005293182315
 30
0.0
  0
VERTEX
  5
8C
330
87
100
AcDbEntity
  8
Wire Cutouts
 62
   179
420
  1842203
370
    35
100
AcDbVertex
100
AcDb2dVertex
 10
116.0686686724598
 20
-127.7005293182315
 30
0.0
  0
SEQEND
  5
8D
330
87
100
AcDbEntity
  8
Wire Cutouts
 62
   179
420
  1842203
370
    35
  0
POLYLINE
  5
8E
330
1F
100
AcDbEntity
  8
Wire Cutouts
 62
   179
420
  1842203
370
    35
100
AcDb2dPolyline
 66
     1
 10
0.0
 20
0.0
 30
0.0
  0
VERTEX
  5
8F
330
8E
100
AcDbEntity
  8
Wire Cutouts
 62
   179
420
  1842203
370
    35
100
AcDbVertex
100
AcDb2dVertex
 10
30.51262770731514
 20
-127.7005293182315
 30
0.0
  0
VERTEX
  5
90
330
8E
100
AcDbEntity
  8
Wire Cutouts
 62
   179
420
  1842203
370
    35
100
AcDbVertex
100
AcDb2dVertex
 10
30.51262770731514
 20
-130.9718174885045
 30
0.0
  0
VERTEX
  5
91
330
8E
100
AcDbEntity
  8
Wire Cutouts
 62
   179
420
  1842203
370
    35
100
AcDbVertex
100
AcDb2dVertex
 10
21.99206282344602
 20
-130.9718174885045
 30
0.0
  0
VERTEX
  5
92
330
8E
100
AcDbEntity
  8
Wire Cutouts
 62
   179
420
  1842203
370
    35
100
AcDbVertex
100
AcDb2dVertex
 10
21.99206282344602
 20
-127.7005293182315
 30
0.0
  0
VERTEX
  5
93
330
8E
100
AcDbEntity
  8
Wire Cutouts
 62
   179
420
  1842203
370
    35
100
AcDbVertex
100
AcDb2dVertex
 10
30.51262770731514
 20
-127.7005293182315
 30
0.0
  0
SEQEND
  5
94
330
8E
100
AcDbEntity
  8
Wire Cutouts
 62
   179
420
  1842203
370
    35
  0
POLYLINE
  5
95
330
1F
100
AcDbEntity
  8
Wire Cutouts
 62
   179
420
  1842203
370
    35
100
AcDb2dPolyline
 66
     1
 10
0.0
 20
0.0
 30
0.0
  0
VERTEX
  5
96
330
95
100
AcDbEntity
  8
Wire Cutouts
 62
   179
420
  1842203
370
    35
100
AcDbVertex
100
AcDb2dVertex
 10
30.51262770731514
 20
-182.753843398779
 30
0.0
  0
VERTEX
  5
97
330
95
100
AcDbEntity
  8
Wire Cutouts
 62
   179
420
  1842203
370
    35
100
AcDbVertex
100
AcDb2dVertex
 10
30.51262770731514
 20
-186.025131569052
 30
0.0
  0
VERTEX
  5
98
330
95
100
AcDbEntity
  8
Wire Cutouts
 62
   179
420
  1842203
370
    35
100
AcDbVertex
100
AcDb2dVertex
 10
21.99206282344602
 20
-186.025131569052
 30
0.0
  0
VERTEX
  5
99
330
95
100
AcDbEntity
  8
Wire Cutouts
 62
   179
420
  1842203
370
    35
100
AcDbVertex
100
AcDb2dVertex
 10
21.99206282344602
 20
-182.753843398779
 30
0.0
  0
VERTEX
  5
9A
330
95
100
AcDbEntity
  8
Wire Cutouts
 62
   179
420
  1842203
370
    35
100
AcDbVertex
100
AcDb2dVertex
 10
30.51262770731514
 20
-182.753843398779
 30
0.0
  0
SEQEND
  5
9B
330
95
100
AcDbEntity
  8
Wire Cutouts
 62
   179
420
  1842203
370
    35
  0
POLYLINE
  5
9C
330
1F
100
AcDbEntity
  8
Wire Cutouts
 62
   179
420
  1842203
370
    35
100
AcDb2dPolyline
 66
     1
 10
0.0
 20
0.0
 30
0.0
  0
VERTEX
  5
9D
330
9C
100
AcDbEntity
  8
Wire Cutouts
 62
   179
420
  1842203
370
    35
100
AcDbVertex
100
AcDb2dVertex
 10
116.6918254477267
 20
-41.0478371844202
 30
0.0
  0
VERTEX
  5
9E
330
9C
100
AcDbEntity
  8
Wire Cutouts
 62
   179
420
  1842203
370
    35
100
AcDbVertex
100
AcDb2dVertex
 10
116.6918254477267
 20
-44.31912535469289
 30
0.0
  0
VERTEX
  5
9F
330
9C
100
AcDbEntity
  8
Wire Cutouts
 62
   179
420
  1842203
370
    35
100
AcDbVertex
100
AcDb2dVertex
 10
108.1712605638572
 20
-44.31912535469289
 30
0.0
  0
VERTEX
  5
A0
330
9C
100
AcDbEntity
  8
Wire Cutouts
 62
   179
420
  1842203
370
    35
100
AcDbVertex
100
AcDb2dVertex
 10
108.1712605638572
 20
-41.0478371844202
 30
0.0
  0
VERTEX
  5
A1
330
9C
100
AcDbEntity
  8
Wire Cutouts
 62
   179
420
  1842203
370
    35
100
AcDbVertex
100
AcDb2dVertex
 10
116.6918254477267
 20
-41.0478371844202
 30
0.0
  0
SEQEND
  5
A2
330
9C
100
AcDbEntity
  8
Wire Cutouts
 62
   179
420
  1842203
370
    35
  0
POLYLINE
  5
A3
330
1F
100
AcDbEntity
  8
Wire Cutouts
 62
   179
420
  1842203
370
    35
100
AcDb2dPolyline
 66
     1
 10
0.0
 20
0.0
 30
0.0
  0
VERTEX
  5
A4
330
A3
100
AcDbEntity
  8
Wire Cutouts
 62
   179
420
  1842203
370
    35
100
AcDbVertex
100
AcDb2dVertex
 10
171.6539996023411
 20
-202.6127392580488
 30
0.0
  0
VERTEX
  5
A5
330
A3
100
AcDbEntity
  8
Wire Cutouts
 62
   179
420
  1842203
370
    35
100
AcDbVertex
100
AcDb2dVertex
 10
168.3827114320678
 20
-202.6127392580488
 30
0.0
  0
VERTEX
  5
A6
330
A3
100
AcDbEntity
  8
Wire Cutouts
 62
   179
420
  1842203
370
    35
100
AcDbVertex
100
AcDb2dVertex
 10
168.3827114320678
 20
-194.0921743741797
 30
0.0
  0
VERTEX
  5
A7
330
A3
100
AcDbEntity
  8
Wire Cutouts
 62
   179
420
  1842203
370
    35
100
AcDbVertex
100
AcDb2dVertex
 10
171.6539996023411
 20
-194.0921743741797
 30
0.0
  0
VERTEX
  5
A8
330
A3
100
AcDbEntity
  8
Wire Cutouts
 62
   179
420
  1842203
370
    35
100
AcDbVertex
100
AcDb2dVertex
 10
171.6539996023411
 20
-202.6127392580488
 30
0.0
  0
SEQEND
  5
A9
330
A3
100
AcDbEntity
  8
Wire Cutouts
 62
   179
420
  1842203
370
    35
  0
POLYLINE
  5
AA
330
1F
100
AcDbEntity
  8
Wire Cutouts
 62
   179
420
  1842203
370
    35
100
AcDb2dPolyline
 66
     1
 10
0.0
 20
0.0
 30
0.0
  0
VERTEX
  5
AB
330
AA
100
AcDbEntity
  8
Wire Cutouts
 62
   179
420
  1842203
370
    35
100
AcDbVertex
100
AcDb2dVertex
 10
226.6198725731011
 20
-202.6127392580488
 30
0.0
  0
VERTEX
  5
AC
330
AA
100
AcDbEntity
  8
Wire Cutouts
 62
   179
420
  1842203
370
    35
100
AcDbVertex
100
AcDb2dVertex
 10
223.3485844028278
 20
-202.6127392580488
 30
0.0
  0
VERTEX
  5
AD
330
AA
100
AcDbEntity
  8
Wire Cutouts
 62
   179
420
  1842203
370
    35
100
AcDbVertex
100
AcDb2dVertex
 10
223.3485844028278
 20
-194.0921743741797
 30
0.0
  0
VERTEX
  5
AE
330
AA
100
AcDbEntity
  8
Wire Cutouts
 62
   179
420
  1842203
370
    35
100
AcDbVertex
100
AcDb2dVertex
 10
226.6198725731011
 20
-194.0921743741797
 30
0.0
  0
VERTEX
  5
AF
330
AA
100
AcDbEntity
  8
Wire Cutouts
 62
   179
420
  1842203
370
    35
100
AcDbVertex
100
AcDb2dVertex
 10
226.6198725731011
 20
-202.6127392580488
 30
0.0
  0
SEQEND
  5
B0
330
AA
100
AcDbEntity
  8
Wire Cutouts
 62
   179
420
  1842203
370
    35
  0
POLYLINE
  5
B1
330
1F
100
AcDbEntity
  8
Wire Cutouts
 62
   179
420
  1842203
370
    35
100
AcDb2dPolyline
 66
     1
 10
0.0
 20
0.0
 30
0.0
  0
VERTEX
  5
B2
330
B1
100
AcDbEntity
  8
Wire Cutouts
 62
   179
420
  1842203
370
    35
100
AcDbVertex
100
AcDb2dVertex
 10
226.4501104004588
 20
-117.7967668186707
 30
0.0
  0
VERTEX
  5
B3
330
B1
100
AcDbEntity
  8
Wire Cutouts
 62
   179
420
  1842203
370
    35
100
AcDbVertex
100
AcDb2dVertex
 10
223.1788222301857
 20
-117.7967668186707
 30
0.0
  0
VERTEX
  5
B4
330
B1
100
AcDbEntity
  8
Wire Cutouts
 62
   179
420
  1842203
370
    35
100
AcDbVertex
100
AcDb2dVertex
 10
223.1788222301857
 20
-109.2762019348015
 30
0.0
  0
VERTEX
  5
B5
330
B1
100
AcDbEntity
  8
Wire Cutouts
 62
   179
420
  1842203
370
    35
100
AcDbVertex
100
AcDb2dVertex
 10
226.4501104004588
 20
-109.2762019348015
 30
0.0
  0
VERTEX
  5
B6
330
B1
100
AcDbEntity
  8
Wire Cutouts
 62
   179
420
  1842203
370
    35
100
AcDbVertex
100
AcDb2dVertex
 10
226.4501104004588
 20
-117.7967668186707
 30
0.0
  0
SEQEND
  5
B7
330
B1
100
AcDbEntity
  8
Wire Cutouts
 62
   179
420
  1842203
370
    35
  0
POLYLINE
  5
B8
330
1F
100
AcDbEntity
  8
Wire Cutouts
 62
   179
420
  1842203
370
    35
100
AcDb2dPolyline
 66
     1
 10
0.0
 20
0.0
 30
0.0
  0
VERTEX
  5
B9
330
B8
100
AcDbEntity
  8
Wire Cutouts
 62
   179
420
  1842203
370
    35
100
AcDbVertex
100
AcDb2dVertex
 10
226.6466271428195
 20
-33.18186998858918
 30
0.0
  0
VERTEX
  5
BA
330
B8
100
AcDbEntity
  8
Wire Cutouts
 62
   179
420
  1842203
370
    35
100
AcDbVertex
100
AcDb2dVertex
 10
223.3753389725474
 20
-33.18186998858918
 30
0.0
  0
VERTEX
  5
BB
330
B8
100
AcDbEntity
  8
Wire Cutouts
 62
   179
420
  1842203
370
    35
100
AcDbVertex
100
AcDb2dVertex
 10
223.3753389725474
 20
-24.66130510471974
 30
0.0
  0
VERTEX
  5
BC
330
B8
100
AcDbEntity
  8
Wire Cutouts
 62
   179
420
  1842203
370
    35
100
AcDbVertex
100
AcDb2dVertex
 10
226.6466271428195
 20
-24.66130510471974
 30
0.0
  0
VERTEX
  5
BD
330
B8
100
AcDbEntity
  8
Wire Cutouts
 62
   179
420
  1842203
370
    35
100
AcDbVertex
100
AcDb2dVertex
 10
226.6466271428195
 20
-33.18186998858918
 30
0.0
  0
SEQEND
  5
BE
330
B8
100
AcDbEntity
  8
Wire Cutouts
 62
   179
420
  1842203
370
    35
  0
POLYLINE
  5
BF
330
1F
100
AcDbEntity
  8
Wire Cutouts
 62
   179
420
  1842203
370
    35
100
AcDb2dPolyline
 66
     1
 10
0.0
 20
0.0
 30
0.0
  0
VERTEX
  5
C0
330
BF
100
AcDbEntity
  8
Wire Cutouts
 62
   179
420
  1842203
370
    35
100
AcDbVertex
100
AcDb2dVertex
 10
173.2896436874773
 20
-117.9978424279673
 30
0.0
  0
VERTEX
  5
C1
330
BF
100
AcDbEntity
  8
Wire Cutouts
 62
   179
420
  1842203
370
    35
100
AcDbVertex
100
AcDb2dVertex
 10
170.0183555172046
 20
-117.9978424279673
 30
0.0
  0
VERTEX
  5
C2
330
BF
100
AcDbEntity
  8
Wire Cutouts
 62
   179
420
  1842203
370
    35
100
AcDbVertex
100
AcDb2dVertex
 10
170.0183555172046
 20
-109.4772775440979
 30
0.0
  0
VERTEX
  5
C3
330
BF
100
AcDbEntity
  8
Wire Cutouts
 62
   179
420
  1842203
370
    35
100
AcDbVertex
100
AcDb2dVertex
 10
173.2896436874773
 20
-109.4772775440979
 30
0.0
  0
VERTEX
  5
C4
330
BF
100
AcDbEntity
  8
Wire Cutouts
 62
   179
420
  1842203
370
    35
100
AcDbVertex
100
AcDb2dVertex
 10
173.2896436874773
 20
-117.9978424279673
 30
0.0
  0
SEQEND
  5
C5
330
BF
100
AcDbEntity
  8
Wire Cutouts
 62
   179
420
  1842203
370
    35
  0
POLYLINE
  5
C6
330
1F
100
AcDbEntity
  8
Wire Cutouts
 62
   179
420
  1842203
370
    35
100
AcDb2dPolyline
 66
     1
 10
0.0
 20
0.0
 30
0.0
  0
VERTEX
  5
C7
330
C6
100
AcDbEntity
  8
Wire Cutouts
 62
   179
420
  1842203
370
    35
100
AcDbVertex
100
AcDb2dVertex
 10
173.2896436874773
 20
-32.98079437929253
 30
0.0
  0
VERTEX
  5
C8
330
C6
100
AcDbEntity
  8
Wire Cutouts
 62
   179
420
  1842203
370
    35
100
AcDbVertex
100
AcDb2dVertex
 10
170.0183555172046
 20
-32.98079437929253
 30
0.0
  0
VERTEX
  5
C9
330
C6
100
AcDbEntity
  8
Wire Cutouts
 62
   179
420
  1842203
370
    35
100
AcDbVertex
100
AcDb2dVertex
 10
170.0183555172046
 20
-24.46022949542309
 30
0.0
  0
VERTEX
  5
CA
330
C6
100
AcDbEntity
  8
Wire Cutouts
 62
   179
420
  1842203
370
    35
100
AcDbVertex
100
AcDb2dVertex
 10
173.2896436874773
 20
-24.46022949542309
 30
0.0
  0
VERTEX
  5
CB
330
C6
100
AcDbEntity
  8
Wire Cutouts
 62
   179
420
  1842203
370
    35
100
AcDbVertex
100
AcDb2dVertex
 10
173.2896436874773
 20
-32.98079437929253
 30
0.0
  0
SEQEND
  5
CC
330
C6
100
AcDbEntity
  8
Wire Cutouts
 62
   179
420
  1842203
370
    35
  0
POLYLINE
  5
CD
330
1F
100
AcDbEntity
  8
Wire Cutouts
 62
   179
420
  1842203
370
    35
100
AcDb2dPolyline
 66
     1
 10
0.0
 20
0.0
 30
0.0
  0
VERTEX
  5
CE
330
CD
100
AcDbEntity
  8
Wire Cutouts
 62
   179
420
  1842203
370
    35
100
AcDbVertex
100
AcDb2dVertex
 10
160.4829375147434
 20
-41.14837498906851
 30
0.0
  0
VERTEX
  5
CF
330
CD
100
AcDbEntity
  8
Wire Cutouts
 62
   179
420
  1842203
370
    35
100
AcDbVertex
100
AcDb2dVertex
 10
160.4829375147434
 20
-44.41966315934154
 30
0.0
  0
VERTEX
  5
D0
330
CD
100
AcDbEntity
  8
Wire Cutouts
 62
   179
420
  1842203
370
    35
100
AcDbVertex
100
AcDb2dVertex
 10
151.962372630874
 20
-44.41966315934154
 30
0.0
  0
VERTEX
  5
D1
330
CD
100
AcDbEntity
  8
Wire Cutouts
 62
   179
420
  1842203
370
    35
100
AcDbVertex
100
AcDb2dVertex
 10
151.962372630874
 20
-41.14837498906851
 30
0.0
  0
VERTEX
  5
D2
330
CD
100
AcDbEntity
  8
Wire Cutouts
 62
   179
420
  1842203
370
    35
100
AcDbVertex
100
AcDb2dVertex
 10
160.4829375147434
 20
-41.14837498906851
 30
0.0
  0
SEQEND
  5
D3
330
CD
100
AcDbEntity
  8
Wire Cutouts
 62
   179
420
  1842203
370
    35
  0
POLYLINE
  5
D4
330
1F
100
AcDbEntity
  8
Wire Cutouts
 62
   179
420
  1842203
370
    35
100
AcDb2dPolyline
 66
     1
 10
0.0
 20
0.0
 30
0.0
  0
VERTEX
  5
D5
330
D4
100
AcDbEntity
  8
Wire Cutouts
 62
   179
420
  1842203
370
    35
100
AcDbVertex
100
AcDb2dVertex
 10
159.7077583607799
 20
-98.03840876404918
 30
0.0
  0
VERTEX
  5
D6
330
D4
100
AcDbEntity
  8
Wire Cutouts
 62
   179
420
  1842203
370
    35
100
AcDbVertex
100
AcDb2dVertex
 10
159.7077583607799
 20
-101.3096969343219
 30
0.0
  0
VERTEX
  5
D7
330
D4
100
AcDbEntity
  8
Wire Cutouts
 62
   179
420
  1842203
370
    35
100
AcDbVertex
100
AcDb2dVertex
 10
151.1871934769104
 20
-101.3096969343219
 30
0.0
  0
VERTEX
  5
D8
330
D4
100
AcDbEntity
  8
Wire Cutouts
 62
   179
420
  1842203
370
    35
100
AcDbVertex
100
AcDb2dVertex
 10
151.1871934769104
 20
-98.03840876404918
 30
0.0
  0
VERTEX
  5
D9
330
D4
100
AcDbEntity
  8
Wire Cutouts
 62
   179
420
  1842203
370
    35
100
AcDbVertex
100
AcDb2dVertex
 10
159.7077583607799
 20
-98.03840876404918
 30
0.0
  0
SEQEND
  5
DA
330
D4
100
AcDbEntity
  8
Wire Cutouts
 62
   179
420
  1842203
370
    35
  0
POLYLINE
  5
DB
330
1F
100
AcDbEntity
  8
Wire Cutouts
 62
   179
420
  1842203
370
    35
100
AcDb2dPolyline
 66
     1
 10
0.0
 20
0.0
 30
0.0
  0
VERTEX
  5
DC
330
DB
100
AcDbEntity
  8
Wire Cutouts
 62
   179
420
  1842203
370
    35
100
AcDbVertex
100
AcDb2dVertex
 10
245.8692163072454
 20
-98.23948437334583
 30
0.0
  0
VERTEX
  5
DD
330
DB
100
AcDbEntity
  8
Wire Cutouts
 62
   179
420
  1842203
370
    35
100
AcDbVertex
100
AcDb2dVertex
 10
245.8692163072454
 20
-101.5107725436188
 30
0.0
  0
VERTEX
  5
DE
330
DB
100
AcDbEntity
  8
Wire Cutouts
 62
   179
420
  1842203
370
    35
100
AcDbVertex
100
AcDb2dVertex
 10
237.3486514233759
 20
-101.5107725436188
 30
0.0
  0
VERTEX
  5
DF
330
DB
100
AcDbEntity
  8
Wire Cutouts
 62
   179
420
  1842203
370
    35
100
AcDbVertex
100
AcDb2dVertex
 10
237.3486514233759
 20
-98.23948437334583
 30
0.0
  0
VERTEX
  5
E0
330
DB
100
AcDbEntity
  8
Wire Cutouts
 62
   179
420
  1842203
370
    35
100
AcDbVertex
100
AcDb2dVertex
 10
245.8692163072454
 20
-98.23948437334583
 30
0.0
  0
SEQEND
  5
E1
330
DB
100
AcDbEntity
  8
Wire Cutouts
 62
   179
420
  1842203
370
    35
  0
POLYLINE
  5
E2
330
1F
100
AcDbEntity
  8
Wire Cutouts
 62
   179
420
  1842203
370
    35
100
AcDb2dPolyline
 66
     1
 10
0.0
 20
0.0
 30
0.0
  0
VERTEX
  5
E3
330
E2
100
AcDbEntity
  8
Wire Cutouts
 62
   179
420
  1842203
370
    35
100
AcDbVertex
100
AcDb2dVertex
 10
245.0940371532821
 20
-182.8543812034273
 30
0.0
  0
VERTEX
  5
E4
330
E2
100
AcDbEntity
  8
Wire Cutouts
 62
   179
420
  1842203
370
    35
100
AcDbVertex
100
AcDb2dVertex
 10
245.0940371532821
 20
-186.1256693737003
 30
0.0
  0
VERTEX
  5
E5
330
E2
100
AcDbEntity
  8
Wire Cutouts
 62
   179
420
  1842203
370
    35
100
AcDbVertex
100
AcDb2dVertex
 10
236.5734722694127
 20
-186.1256693737003
 30
0.0
  0
VERTEX
  5
E6
330
E2
100
AcDbEntity
  8
Wire Cutouts
 62
   179
420
  1842203
370
    35
100
AcDbVertex
100
AcDb2dVertex
 10
236.5734722694127
 20
-182.8543812034273
 30
0.0
  0
VERTEX
  5
E7
330
E2
100
AcDbEntity
  8
Wire Cutouts
 62
   179
420
  1842203
370
    35
100
AcDbVertex
100
AcDb2dVertex
 10
245.0940371532821
 20
-182.8543812034273
 30
0.0
  0
SEQEND
  5
E8
330
E2
100
AcDbEntity
  8
Wire Cutouts
 62
   179
420
  1842203
370
    35
  0
POLYLINE
  5
E9
330
1F
100
AcDbEntity
  8
Wire Cutouts
 62
   179
420
  1842203
370
    35
100
AcDb2dPolyline
 66
     1
 10
0.0
 20
0.0
 30
0.0
  0
VERTEX
  5
EA
330
E9
100
AcDbEntity
  8
Wire Cutouts
 62
   179
420
  1842203
370
    35
100
AcDbVertex
100
AcDb2dVertex
 10
245.2637993259245
 20
-127.8010671228795
 30
0.0
  0
VERTEX
  5
EB
330
E9
100
AcDbEntity
  8
Wire Cutouts
 62
   179
420
  1842203
370
    35
100
AcDbVertex
100
AcDb2dVertex
 10
245.2637993259245
 20
-131.0723552931525
 30
0.0
  0
VERTEX
  5
EC
330
E9
100
AcDbEntity
  8
Wire Cutouts
 62
   179
420
  1842203
370
    35
100
AcDbVertex
100
AcDb2dVertex
 10
236.743234442055
 20
-131.0723552931525
 30
0.0
  0
VERTEX
  5
ED
330
E9
100
AcDbEntity
  8
Wire Cutouts
 62
   179
420
  1842203
370
    35
100
AcDbVertex
100
AcDb2dVertex
 10
236.743234442055
 20
-127.8010671228795
 30
0.0
  0
VERTEX
  5
EE
330
E9
100
AcDbEntity
  8
Wire Cutouts
 62
   179
420
  1842203
370
    35
100
AcDbVertex
100
AcDb2dVertex
 10
245.2637993259245
 20
-127.8010671228795
 30
0.0
  0
SEQEND
  5
EF
330
E9
100
AcDbEntity
  8
Wire Cutouts
 62
   179
420
  1842203
370
    35
  0
POLYLINE
  5
F0
330
1F
100
AcDbEntity
  8
Wire Cutouts
 62
   179
420
  1842203
370
    35
100
AcDb2dPolyline
 66
     1
 10
0.0
 20
0.0
 30
0.0
  0
VERTEX
  5
F1
330
F0
100
AcDbEntity
  8
Wire Cutouts
 62
   179
420
  1842203
370
    35
100
AcDbVertex
100
AcDb2dVertex
 10
159.7077583607799
 20
-127.8010671228795
 30
0.0
  0
VERTEX
  5
F2
330
F0
100
AcDbEntity
  8
Wire Cutouts
 62
   179
420
  1842203
370
    35
100
AcDbVertex
100
AcDb2dVertex
 10
159.7077583607799
 20
-131.0723552931525
 30
0.0
  0
VERTEX
  5
F3
330
F0
100
AcDbEntity
  8
Wire Cutouts
 62
   179
420
  1842203
370
    35
100
AcDbVertex
100
AcDb2dVertex
 10
151.1871934769104
 20
-131.0723552931525
 30
0.0
  0
VERTEX
  5
F4
330
F0
100
AcDbEntity
  8
Wire Cutouts
 62
   179
420
  1842203
370
    35
100
AcDbVertex
100
AcDb2dVertex
 10
151.1871934769104
 20
-127.8010671228795
 30
0.0
  0
VERTEX
  5
F5
330
F0
100
AcDbEntity
  8
Wire Cutouts
 62
   179
420
  1842203
370
    35
100
AcDbVertex
100
AcDb2dVertex
 10
159.7077583607799
 20
-127.8010671228795
 30
0.0
  0
SEQEND
  5
F6
330
F0
100
AcDbEntity
  8
Wire Cutouts
 62
   179
420
  1842203
370
    35
  0
POLYLINE
  5
F7
330
1F
100
AcDbEntity
  8
Wire Cutouts
 62
   179
420
  1842203
370
    35
100
AcDb2dPolyline
 66
     1
 10
0.0
 20
0.0
 30
0.0
  0
VERTEX
  5
F8
330
F7
100
AcDbEntity
  8
Wire Cutouts
 62
   179
420
  1842203
370
    35
100
AcDbVertex
100
AcDb2dVertex
 10
159.7077583607799
 20
-182.8543812034273
 30
0.0
  0
VERTEX
  5
F9
330
F7
100
AcDbEntity
  8
Wire Cutouts
 62
   179
420
  1842203
370
    35
100
AcDbVertex
100
AcDb2dVertex
 10
159.7077583607799
 20
-186.1256693737003
 30
0.0
  0
VERTEX
  5
FA
330
F7
100
AcDbEntity
  8
Wire Cutouts
 62
   179
420
  1842203
370
    35
100
AcDbVertex
100
AcDb2dVertex
 10
151.1871934769104
 20
-186.1256693737003
 30
0.0
  0
VERTEX
  5
FB
330
F7
100
AcDbEntity
  8
Wire Cutouts
 62
   179
420
  1842203
370
    35
100
AcDbVertex
100
AcDb2dVertex
 10
151.1871934769104
 20
-182.8543812034273
 30
0.0
  0
VERTEX
  5
FC
330
F7
100
AcDbEntity
  8
Wire Cutouts
 62
   179
420
  1842203
370
    35
100
AcDbVertex
100
AcDb2dVertex
 10
159.7077583607799
 20
-182.8543812034273
 30
0.0
  0
SEQEND
  5
FD
330
F7
100
AcDbEntity
  8
Wire Cutouts
 62
   179
420
  1842203
370
    35
  0
POLYLINE
  5
FE
330
1F
100
AcDbEntity
  8
Wire Cutouts
 62
   179
420
  1842203
370
    35
100
AcDb2dPolyline
 66
     1
 10
0.0
 20
0.0
 30
0.0
  0
VERTEX
  5
FF
330
FE
100
AcDbEntity
  8
Wire Cutouts
 62
   179
420
  1842203
370
    35
100
AcDbVertex
100
AcDb2dVertex
 10
245.8869561011911
 20
-41.14837498906851
 30
0.0
  0
VERTEX
  5
100
330
FE
100
AcDbEntity
  8
Wire Cutouts
 62
   179
420
  1842203
370
    35
100
AcDbVertex
100
AcDb2dVertex
 10
245.8869561011911
 20
-44.41966315934154
 30
0.0
  0
VERTEX
  5
101
330
FE
100
AcDbEntity
  8
Wire Cutouts
 62
   179
420
  1842203
370
    35
100
AcDbVertex
100
AcDb2dVertex
 10
237.3663912173219
 20
-44.41966315934154
 30
0.0
  0
VERTEX
  5
102
330
FE
100
AcDbEntity
  8
Wire Cutouts
 62
   179
420
  1842203
370
    35
100
AcDbVertex
100
AcDb2dVertex
 10
237.3663912173219
 20
-41.14837498906851
 30
0.0
  0
VERTEX
  5
103
330
FE
100
AcDbEntity
  8
Wire Cutouts
 62
   179
420
  1842203
370
    35
100
AcDbVertex
100
AcDb2dVertex
 10
245.8869561011911
 20
-41.14837498906851
 30
0.0
  0
SEQEND
  5
104
330
FE
100
AcDbEntity
  8
Wire Cutouts
 62
   179
420
  1842203
370
    35
  0
POLYLINE
  5
105
330
1F
100
AcDbEntity
  8
Wire Cutouts
 62
   179
420
  1842203
370
    35
100
AcDb2dPolyline
 66
     1
 10
0.0
 20
0.0
 30
0.0
  0
VERTEX
  5
106
330
105
100
AcDbEntity
  8
Wire Cutouts
 62
   179
420
  1842203
370
    35
100
AcDbVertex
100
AcDb2dVertex
 10
359.3882511167881
 20
-200.4710010647057
 30
0.0
  0
VERTEX
  5
107
330
105
100
AcDbEntity
  8
Wire Cutouts
 62
   179
420
  1842203
370
    35
100
AcDbVertex
100
AcDb2dVertex
 10
356.1169629465151
 20
-200.4710010647057
 30
0.0
  0
VERTEX
  5
108
330
105
100
AcDbEntity
  8
Wire Cutouts
 62
   179
420
  1842203
370
    35
100
AcDbVertex
100
AcDb2dVertex
 10
356.1169629465151
 20
-191.950436180837
 30
0.0
  0
VERTEX
  5
109
330
105
100
AcDbEntity
  8
Wire Cutouts
 62
   179
420
  1842203
370
    35
100
AcDbVertex
100
AcDb2dVertex
 10
359.3882511167881
 20
-191.950436180837
 30
0.0
  0
VERTEX
  5
10A
330
105
100
AcDbEntity
  8
Wire Cutouts
 62
   179
420
  1842203
370
    35
100
AcDbVertex
100
AcDb2dVertex
 10
359.3882511167881
 20
-200.4710010647057
 30
0.0
  0
SEQEND
  5
10B
330
105
100
AcDbEntity
  8
Wire Cutouts
 62
   179
420
  1842203
370
    35
  0
POLYLINE
  5
10C
330
1F
100
AcDbEntity
  8
Wire Cutouts
 62
   179
420
  1842203
370
    35
100
AcDb2dPolyline
 66
     1
 10
0.0
 20
0.0
 30
0.0
  0
VERTEX
  5
10D
330
10C
100
AcDbEntity
  8
Wire Cutouts
 62
   179
420
  1842203
370
    35
100
AcDbVertex
100
AcDb2dVertex
 10
414.3541240875481
 20
-200.4710010647057
 30
0.0
  0
VERTEX
  5
10E
330
10C
100
AcDbEntity
  8
Wire Cutouts
 62
   179
420
  1842203
370
    35
100
AcDbVertex
100
AcDb2dVertex
 10
411.0828359172738
 20
-200.4710010647057
 30
0.0
  0
VERTEX
  5
10F
330
10C
100
AcDbEntity
  8
Wire Cutouts
 62
   179
420
  1842203
370
    35
100
AcDbVertex
100
AcDb2dVertex
 10
411.0828359172738
 20
-191.950436180837
 30
0.0
  0
VERTEX
  5
110
330
10C
100
AcDbEntity
  8
Wire Cutouts
 62
   179
420
  1842203
370
    35
100
AcDbVertex
100
AcDb2dVertex
 10
414.3541240875481
 20
-191.950436180837
 30
0.0
  0
VERTEX
  5
111
330
10C
100
AcDbEntity
  8
Wire Cutouts
 62
   179
420
  1842203
370
    35
100
AcDbVertex
100
AcDb2dVertex
 10
414.3541240875481
 20
-200.4710010647057
 30
0.0
  0
SEQEND
  5
112
330
10C
100
AcDbEntity
  8
Wire Cutouts
 62
   179
420
  1842203
370
    35
  0
POLYLINE
  5
113
330
1F
100
AcDbEntity
  8
Wire Cutouts
 62
   179
420
  1842203
370
    35
100
AcDb2dPolyline
 66
     1
 10
0.0
 20
0.0
 30
0.0
  0
VERTEX
  5
114
330
113
100
AcDbEntity
  8
Wire Cutouts
 62
   179
420
  1842203
370
    35
100
AcDbVertex
100
AcDb2dVertex
 10
414.184361914906
 20
-115.6550286253279
 30
0.0
  0
VERTEX
  5
115
330
113
100
AcDbEntity
  8
Wire Cutouts
 62
   179
420
  1842203
370
    35
100
AcDbVertex
100
AcDb2dVertex
 10
410.9130737446356
 20
-115.6550286253279
 30
0.0
  0
VERTEX
  5
116
330
113
100
AcDbEntity
  8
Wire Cutouts
 62
   179
420
  1842203
370
    35
100
AcDbVertex
100
AcDb2dVertex
 10
410.9130737446356
 20
-107.1344637414585
 30
0.0
  0
VERTEX
  5
117
330
113
100
AcDbEntity
  8
Wire Cutouts
 62
   179
420
  1842203
370
    35
100
AcDbVertex
100
AcDb2dVertex
 10
414.184361914906
 20
-107.1344637414585
 30
0.0
  0
VERTEX
  5
118
330
113
100
AcDbEntity
  8
Wire Cutouts
 62
   179
420
  1842203
370
    35
100
AcDbVertex
100
AcDb2dVertex
 10
414.184361914906
 20
-115.6550286253279
 30
0.0
  0
SEQEND
  5
119
330
113
100
AcDbEntity
  8
Wire Cutouts
 62
   179
420
  1842203
370
    35
  0
POLYLINE
  5
11A
330
1F
100
AcDbEntity
  8
Wire Cutouts
 62
   179
420
  1842203
370
    35
100
AcDb2dPolyline
 66
     1
 10
0.0
 20
0.0
 30
0.0
  0
VERTEX
  5
11B
330
11A
100
AcDbEntity
  8
Wire Cutouts
 62
   179
420
  1842203
370
    35
100
AcDbVertex
100
AcDb2dVertex
 10
414.3808786572683
 20
-31.04013179524614
 30
0.0
  0
VERTEX
  5
11C
330
11A
100
AcDbEntity
  8
Wire Cutouts
 62
   179
420
  1842203
370
    35
100
AcDbVertex
100
AcDb2dVertex
 10
411.1095904869941
 20
-31.04013179524614
 30
0.0
  0
VERTEX
  5
11D
330
11A
100
AcDbEntity
  8
Wire Cutouts
 62
   179
420
  1842203
370
    35
100
AcDbVertex
100
AcDb2dVertex
 10
411.1095904869941
 20
-22.5195669113767
 30
0.0
  0
VERTEX
  5
11E
330
11A
100
AcDbEntity
  8
Wire Cutouts
 62
   179
420
  1842203
370
    35
100
AcDbVertex
100
AcDb2dVertex
 10
414.3808786572683
 20
-22.5195669113767
 30
0.0
  0
VERTEX
  5
11F
330
11A
100
AcDbEntity
  8
Wire Cutouts
 62
   179
420
  1842203
370
    35
100
AcDbVertex
100
AcDb2dVertex
 10
414.3808786572683
 20
-31.04013179524614
 30
0.0
  0
SEQEND
  5
120
330
11A
100
AcDbEntity
  8
Wire Cutouts
 62
   179
420
  1842203
370
    35
  0
POLYLINE
  5
121
330
1F
100
AcDbEntity
  8
Wire Cutouts
 62
   179
420
  1842203
370
    35
100
AcDb2dPolyline
 66
     1
 10
0.0
 20
0.0
 30
0.0
  0
VERTEX
  5
122
330
121
100
AcDbEntity
  8
Wire Cutouts
 62
   179
420
  1842203
370
    35
100
AcDbVertex
100
AcDb2dVertex
 10
361.0238952019253
 20
-115.8561042346243
 30
0.0
  0
VERTEX
  5
123
330
121
100
AcDbEntity
  8
Wire Cutouts
 62
   179
420
  1842203
370
    35
100
AcDbVertex
100
AcDb2dVertex
 10
357.7526070316529
 20
-115.8561042346243
 30
0.0
  0
VERTEX
  5
124
330
121
100
AcDbEntity
  8
Wire Cutouts
 62
   179
420
  1842203
370
    35
100
AcDbVertex
100
AcDb2dVertex
 10
357.7526070316529
 20
-107.3355393507552
 30
0.0
  0
VERTEX
  5
125
330
121
100
AcDbEntity
  8
Wire Cutouts
 62
   179
420
  1842203
370
    35
100
AcDbVertex
100
AcDb2dVertex
 10
361.0238952019253
 20
-107.3355393507552
 30
0.0
  0
VERTEX
  5
126
330
121
100
AcDbEntity
  8
Wire Cutouts
 62
   179
420
  1842203
370
    35
100
AcDbVertex
100
AcDb2dVertex
 10
361.0238952019253
 20
-115.8561042346243
 30
0.0
  0
SEQEND
  5
127
330
121
100
AcDbEntity
  8
Wire Cutouts
 62
   179
420
  1842203
370
    35
  0
POLYLINE
  5
128
330
1F
100
AcDbEntity
  8
Wire Cutouts
 62
   179
420
  1842203
370
    35
100
AcDb2dPolyline
 66
     1
 10
0.0
 20
0.0
 30
0.0
  0
VERTEX
  5
129
330
128
100
AcDbEntity
  8
Wire Cutouts
 62
   179
420
  1842203
370
    35
100
AcDbVertex
100
AcDb2dVertex
 10
297.9718344271271
 20
-126.1170086660921
 30
0.0
  0
VERTEX
  5
12A
330
128
100
AcDbEntity
  8
Wire Cutouts
 62
   179
420
  1842203
370
    35
100
AcDbVertex
100
AcDb2dVertex
 10
297.9718344271271
 20
-129.3882968363638
 30
0.0
  0
VERTEX
  5
12B
330
128
100
AcDbEntity
  8
Wire Cutouts
 62
   179
420
  1842203
370
    35
100
AcDbVertex
100
AcDb2dVertex
 10
289.4512695432577
 20
-129.3882968363638
 30
0.0
  0
VERTEX
  5
12C
330
128
100
AcDbEntity
  8
Wire Cutouts
 62
   179
420
  1842203
370
    35
100
AcDbVertex
100
AcDb2dVertex
 10
289.4512695432577
 20
-126.1170086660921
 30
0.0
  0
VERTEX
  5
12D
330
128
100
AcDbEntity
  8
Wire Cutouts
 62
   179
420
  1842203
370
    35
100
AcDbVertex
100
AcDb2dVertex
 10
297.9718344271271
 20
-126.1170086660921
 30
0.0
  0
SEQEND
  5
12E
330
128
100
AcDbEntity
  8
Wire Cutouts
 62
   179
420
  1842203
370
    35
  0
POLYLINE
  5
12F
330
1F
100
AcDbEntity
  8
Wire Cutouts
 62
   179
420
  1842203
370
    35
100
AcDb2dPolyline
 66
     1
 10
0.0
 20
0.0
 30
0.0
  0
VERTEX
  5
130
330
12F
100
AcDbEntity
  8
Wire Cutouts
 62
   179
420
  1842203
370
    35
100
AcDbVertex
100
AcDb2dVertex
 10
297.9718344271271
 20
-57.91695630424474
 30
0.0
  0
VERTEX
  5
131
330
12F
100
AcDbEntity
  8
Wire Cutouts
 62
   179
420
  1842203
370
    35
100
AcDbVertex
100
AcDb2dVertex
 10
297.9718344271271
 20
-61.18824447451647
 30
0.0
  0
VERTEX
  5
132
330
12F
100
AcDbEntity
  8
Wire Cutouts
 62
   179
420
  1842203
370
    35
100
AcDbVertex
100
AcDb2dVertex
 10
289.4512695432577
 20
-61.18824447451647
 30
0.0
  0
VERTEX
  5
133
330
12F
100
AcDbEntity
  8
Wire Cutouts
 62
   179
420
  1842203
370
    35
100
AcDbVertex
100
AcDb2dVertex
 10
289.4512695432577
 20
-57.91695630424474
 30
0.0
  0
VERTEX
  5
134
330
12F
100
AcDbEntity
  8
Wire Cutouts
 62
   179
420
  1842203
370
    35
100
AcDbVertex
100
AcDb2dVertex
 10
297.9718344271271
 20
-57.91695630424474
 30
0.0
  0
SEQEND
  5
135
330
12F
100
AcDbEntity
  8
Wire Cutouts
 62
   179
420
  1842203
370
    35
  0
POLYLINE
  5
136
330
1F
100
AcDbEntity
  8
Wire Cutouts
 62
   179
420
  1842203
370
    35
100
AcDb2dPolyline
 66
     1
 10
0.0
 20
0.0
 30
0.0
  0
VERTEX
  5
137
330
136
100
AcDbEntity
  8
Wire Cutouts
 62
   179
420
  1842203
370
    35
100
AcDbVertex
100
AcDb2dVertex
 10
297.9718344271271
 20
-161.5305526088634
 30
0.0
  0
VERTEX
  5
138
330
136
100
AcDbEntity
  8
Wire Cutouts
 62
   179
420
  1842203
370
    35
100
AcDbVertex
100
AcDb2dVertex
 10
297.9718344271271
 20
-164.8018407791351
 30
0.0
  0
VERTEX
  5
139
330
136
100
AcDbEntity
  8
Wire Cutouts
 62
   179
420
  1842203
370
    35
100
AcDbVertex
100
AcDb2dVertex
 10
289.4512695432577
 20
-164.8018407791351
 30
0.0
  0
VERTEX
  5
13A
330
136
100
AcDbEntity
  8
Wire Cutouts
 62
   179
420
  1842203
370
    35
100
AcDbVertex
100
AcDb2dVertex
 10
289.4512695432577
 20
-161.5305526088634
 30
0.0
  0
VERTEX
  5
13B
330
136
100
AcDbEntity
  8
Wire Cutouts
 62
   179
420
  1842203
370
    35
100
AcDbVertex
100
AcDb2dVertex
 10
297.9718344271271
 20
-161.5305526088634
 30
0.0
  0
SEQEND
  5
13C
330
136
100
AcDbEntity
  8
Wire Cutouts
 62
   179
420
  1842203
370
    35
  0
POLYLINE
  5
13D
330
1F
100
AcDbEntity
  8
Wire Cutouts
 62
   179
420
  1842203
370
    35
100
AcDb2dPolyline
 66
     1
 10
0.0
 20
0.0
 30
0.0
  0
VERTEX
  5
13E
330
13D
100
AcDbEntity
  8
Wire Cutouts
 62
   179
420
  1842203
370
    35
100
AcDbVertex
100
AcDb2dVertex
 10
297.9718344271271
 20
-93.85983433622917
 30
0.0
  0
VERTEX
  5
13F
330
13D
100
AcDbEntity
  8
Wire Cutouts
 62
   179
420
  1842203
370
    35
100
AcDbVertex
100
AcDb2dVertex
 10
297.9718344271271
 20
-97.1311225065009
 30
0.0
  0
VERTEX
  5
140
330
13D
100
AcDbEntity
  8
Wire Cutouts
 62
   179
420
  1842203
370
    35
100
AcDbVertex
100
AcDb2dVertex
 10
289.4512695432577
 20
-97.1311225065009
 30
0.0
  0
VERTEX
  5
141
330
13D
100
AcDbEntity
  8
Wire Cutouts
 62
   179
420
  1842203
370
    35
100
AcDbVertex
100
AcDb2dVertex
 10
289.4512695432577
 20
-93.85983433622917
 30
0.0
  0
VERTEX
  5
142
330
13D
100
AcDbEntity
  8
Wire Cutouts
 62
   179
420
  1842203
370
    35
100
AcDbVertex
100
AcDb2dVertex
 10
297.9718344271271
 20
-93.85983433622917
 30
0.0
  0
SEQEND
  5
143
330
13D
100
AcDbEntity
  8
Wire Cutouts
 62
   179
420
  1842203
370
    35
  0
POLYLINE
  5
144
330
1F
100
AcDbEntity
  8
Wire Cutouts
 62
   179
420
  1842203
370
    35
100
AcDb2dPolyline
 66
     1
 10
0.0
 20
0.0
 30
0.0
  0
VERTEX
  5
145
330
144
100
AcDbEntity
  8
Wire Cutouts
 62
   179
420
  1842203
370
    35
100
AcDbVertex
100
AcDb2dVertex
 10
361.0238952019253
 20
-30.83905618594949
 30
0.0
  0
VERTEX
  5
146
330
144
100
AcDbEntity
  8
Wire Cutouts
 62
   179
420
  1842203
370
    35
100
AcDbVertex
100
AcDb2dVertex
 10
357.7526070316529
 20
-30.83905618594949
 30
0.0
  0
VERTEX
  5
147
330
144
100
AcDbEntity
  8
Wire Cutouts
 62
   179
420
  1842203
370
    35
100
AcDbVertex
100
AcDb2dVertex
 10
357.7526070316529
 20
-22.31849130208005
 30
0.0
  0
VERTEX
  5
148
330
144
100
AcDbEntity
  8
Wire Cutouts
 62
   179
420
  1842203
370
    35
100
AcDbVertex
100
AcDb2dVertex
 10
361.0238952019253
 20
-22.31849130208005
 30
0.0
  0
VERTEX
  5
149
330
144
100
AcDbEntity
  8
Wire Cutouts
 62
   179
420
  1842203
370
    35
100
AcDbVertex
100
AcDb2dVertex
 10
361.0238952019253
 20
-30.83905618594949
 30
0.0
  0
SEQEND
  5
14A
330
144
100
AcDbEntity
  8
Wire Cutouts
 62
   179
420
  1842203
370
    35
  0
POLYLINE
  5
14B
330
1F
100
AcDbEntity
  8
Wire Cutouts
 62
   179
420
  1842203
370
    35
100
AcDb2dPolyline
 66
     1
 10
0.0
 20
0.0
 30
0.0
  0
VERTEX
  5
14C
330
14B
100
AcDbEntity
  8
Wire Cutouts
 62
   179
420
  1842203
370
    35
100
AcDbVertex
100
AcDb2dVertex
 10
348.217189029191
 20
-39.0066367957258
 30
0.0
  0
VERTEX
  5
14D
330
14B
100
AcDbEntity
  8
Wire Cutouts
 62
   179
420
  1842203
370
    35
100
AcDbVertex
100
AcDb2dVertex
 10
348.217189029191
 20
-42.2779249659985
 30
0.0
  0
VERTEX
  5
14E
330
14B
100
AcDbEntity
  8
Wire Cutouts
 62
   179
420
  1842203
370
    35
100
AcDbVertex
100
AcDb2dVertex
 10
339.6966241453216
 20
-42.2779249659985
 30
0.0
  0
VERTEX
  5
14F
330
14B
100
AcDbEntity
  8
Wire Cutouts
 62
   179
420
  1842203
370
    35
100
AcDbVertex
100
AcDb2dVertex
 10
339.6966241453216
 20
-39.0066367957258
 30
0.0
  0
VERTEX
  5
150
330
14B
100
AcDbEntity
  8
Wire Cutouts
 62
   179
420
  1842203
370
    35
100
AcDbVertex
100
AcDb2dVertex
 10
348.217189029191
 20
-39.0066367957258
 30
0.0
  0
SEQEND
  5
151
330
14B
100
AcDbEntity
  8
Wire Cutouts
 62
   179
420
  1842203
370
    35
  0
POLYLINE
  5
152
330
1F
100
AcDbEntity
  8
Wire Cutouts
 62
   179
420
  1842203
370
    35
100
AcDb2dPolyline
 66
     1
 10
0.0
 20
0.0
 30
0.0
  0
VERTEX
  5
153
330
152
100
AcDbEntity
  8
Wire Cutouts
 62
   179
420
  1842203
370
    35
100
AcDbVertex
100
AcDb2dVertex
 10
347.4420098752275
 20
-95.89667057070615
 30
0.0
  0
VERTEX
  5
154
330
152
100
AcDbEntity
  8
Wire Cutouts
 62
   179
420
  1842203
370
    35
100
AcDbVertex
100
AcDb2dVertex
 10
347.4420098752275
 20
-99.16795874097916
 30
0.0
  0
VERTEX
  5
155
330
152
100
AcDbEntity
  8
Wire Cutouts
 62
   179
420
  1842203
370
    35
100
AcDbVertex
100
AcDb2dVertex
 10
338.921444991358
 20
-99.16795874097916
 30
0.0
  0
VERTEX
  5
156
330
152
100
AcDbEntity
  8
Wire Cutouts
 62
   179
420
  1842203
370
    35
100
AcDbVertex
100
AcDb2dVertex
 10
338.921444991358
 20
-95.89667057070615
 30
0.0
  0
VERTEX
  5
157
330
152
100
AcDbEntity
  8
Wire Cutouts
 62
   179
420
  1842203
370
    35
100
AcDbVertex
100
AcDb2dVertex
 10
347.4420098752275
 20
-95.89667057070615
 30
0.0
  0
SEQEND
  5
158
330
152
100
AcDbEntity
  8
Wire Cutouts
 62
   179
420
  1842203
370
    35
  0
POLYLINE
  5
159
330
1F
100
AcDbEntity
  8
Wire Cutouts
 62
   179
420
  1842203
370
    35
100
AcDb2dPolyline
 66
     1
 10
0.0
 20
0.0
 30
0.0
  0
VERTEX
  5
15A
330
159
100
AcDbEntity
  8
Wire Cutouts
 62
   179
420
  1842203
370
    35
100
AcDbVertex
100
AcDb2dVertex
 10
433.6034678216949
 20
-96.09774618000279
 30
0.0
  0
VERTEX
  5
15B
330
159
100
AcDbEntity
  8
Wire Cutouts
 62
   179
420
  1842203
370
    35
100
AcDbVertex
100
AcDb2dVertex
 10
433.6034678216949
 20
-99.36903435027581
 30
0.0
  0
VERTEX
  5
15C
330
159
100
AcDbEntity
  8
Wire Cutouts
 62
   179
420
  1842203
370
    35
100
AcDbVertex
100
AcDb2dVertex
 10
425.0829029378236
 20
-99.36903435027581
 30
0.0
  0
VERTEX
  5
15D
330
159
100
AcDbEntity
  8
Wire Cutouts
 62
   179
420
  1842203
370
    35
100
AcDbVertex
100
AcDb2dVertex
 10
425.0829029378236
 20
-96.09774618000279
 30
0.0
  0
VERTEX
  5
15E
330
159
100
AcDbEntity
  8
Wire Cutouts
 62
   179
420
  1842203
370
    35
100
AcDbVertex
100
AcDb2dVertex
 10
433.6034678216949
 20
-96.09774618000279
 30
0.0
  0
SEQEND
  5
15F
330
159
100
AcDbEntity
  8
Wire Cutouts
 62
   179
420
  1842203
370
    35
  0
POLYLINE
  5
160
330
1F
100
AcDbEntity
  8
Wire Cutouts
 62
   179
420
  1842203
370
    35
100
AcDb2dPolyline
 66
     1
 10
0.0
 20
0.0
 30
0.0
  0
VERTEX
  5
161
330
160
100
AcDbEntity
  8
Wire Cutouts
 62
   179
420
  1842203
370
    35
100
AcDbVertex
100
AcDb2dVertex
 10
432.8282886677301
 20
-180.7126430100843
 30
0.0
  0
VERTEX
  5
162
330
160
100
AcDbEntity
  8
Wire Cutouts
 62
   179
420
  1842203
370
    35
100
AcDbVertex
100
AcDb2dVertex
 10
432.8282886677301
 20
-183.9839311803573
 30
0.0
  0
VERTEX
  5
163
330
160
100
AcDbEntity
  8
Wire Cutouts
 62
   179
420
  1842203
370
    35
100
AcDbVertex
100
AcDb2dVertex
 10
424.3077237838587
 20
-183.9839311803573
 30
0.0
  0
VERTEX
  5
164
330
160
100
AcDbEntity
  8
Wire Cutouts
 62
   179
420
  1842203
370
    35
100
AcDbVertex
100
AcDb2dVertex
 10
424.3077237838587
 20
-180.7126430100843
 30
0.0
  0
VERTEX
  5
165
330
160
100
AcDbEntity
  8
Wire Cutouts
 62
   179
420
  1842203
370
    35
100
AcDbVertex
100
AcDb2dVertex
 10
432.8282886677301
 20
-180.7126430100843
 30
0.0
  0
SEQEND
  5
166
330
160
100
AcDbEntity
  8
Wire Cutouts
 62
   179
420
  1842203
370
    35
  0
POLYLINE
  5
167
330
1F
100
AcDbEntity
  8
Wire Cutouts
 62
   179
420
  1842203
370
    35
100
AcDb2dPolyline
 66
     1
 10
0.0
 20
0.0
 30
0.0
  0
VERTEX
  5
168
330
167
100
AcDbEntity
  8
Wire Cutouts
 62
   179
420
  1842203
370
    35
100
AcDbVertex
100
AcDb2dVertex
 10
432.9980508403721
 20
-125.6593289295371
 30
0.0
  0
VERTEX
  5
169
330
167
100
AcDbEntity
  8
Wire Cutouts
 62
   179
420
  1842203
370
    35
100
AcDbVertex
100
AcDb2dVertex
 10
432.9980508403721
 20
-128.9306170998098
 30
0.0
  0
VERTEX
  5
16A
330
167
100
AcDbEntity
  8
Wire Cutouts
 62
   179
420
  1842203
370
    35
100
AcDbVertex
100
AcDb2dVertex
 10
424.4774859565007
 20
-128.9306170998098
 30
0.0
  0
VERTEX
  5
16B
330
167
100
AcDbEntity
  8
Wire Cutouts
 62
   179
420
  1842203
370
    35
100
AcDbVertex
100
AcDb2dVertex
 10
424.4774859565007
 20
-125.6593289295371
 30
0.0
  0
VERTEX
  5
16C
330
167
100
AcDbEntity
  8
Wire Cutouts
 62
   179
420
  1842203
370
    35
100
AcDbVertex
100
AcDb2dVertex
 10
432.9980508403721
 20
-125.6593289295371
 30
0.0
  0
SEQEND
  5
16D
330
167
100
AcDbEntity
  8
Wire Cutouts
 62
   179
420
  1842203
370
    35
  0
POLYLINE
  5
16E
330
1F
100
AcDbEntity
  8
Wire Cutouts
 62
   179
420
  1842203
370
    35
100
AcDb2dPolyline
 66
     1
 10
0.0
 20
0.0
 30
0.0
  0
VERTEX
  5
16F
330
16E
100
AcDbEntity
  8
Wire Cutouts
 62
   179
420
  1842203
370
    35
100
AcDbVertex
100
AcDb2dVertex
 10
347.4420098752275
 20
-125.6593289295371
 30
0.0
  0
VERTEX
  5
170
330
16E
100
AcDbEntity
  8
Wire Cutouts
 62
   179
420
  1842203
370
    35
100
AcDbVertex
100
AcDb2dVertex
 10
347.4420098752275
 20
-128.9306170998098
 30
0.0
  0
VERTEX
  5
171
330
16E
100
AcDbEntity
  8
Wire Cutouts
 62
   179
420
  1842203
370
    35
100
AcDbVertex
100
AcDb2dVertex
 10
338.921444991358
 20
-128.9306170998098
 30
0.0
  0
VERTEX
  5
172
330
16E
100
AcDbEntity
  8
Wire Cutouts
 62
   179
420
  1842203
370
    35
100
AcDbVertex
100
AcDb2dVertex
 10
338.921444991358
 20
-125.6593289295371
 30
0.0
  0
VERTEX
  5
173
330
16E
100
AcDbEntity
  8
Wire Cutouts
 62
   179
420
  1842203
370
    35
100
AcDbVertex
100
AcDb2dVertex
 10
347.4420098752275
 20
-125.6593289295371
 30
0.0
  0
SEQEND
  5
174
330
16E
100
AcDbEntity
  8
Wire Cutouts
 62
   179
420
  1842203
370
    35
  0
POLYLINE
  5
175
330
1F
100
AcDbEntity
  8
Wire Cutouts
 62
   179
420
  1842203
370
    35
100
AcDb2dPolyline
 66
     1
 10
0.0
 20
0.0
 30
0.0
  0
VERTEX
  5
176
330
175
100
AcDbEntity
  8
Wire Cutouts
 62
   179
420
  1842203
370
    35
100
AcDbVertex
100
AcDb2dVertex
 10
347.4420098752275
 20
-180.7126430100843
 30
0.0
  0
VERTEX
  5
177
330
175
100
AcDbEntity
  8
Wire Cutouts
 62
   179
420
  1842203
370
    35
100
AcDbVertex
100
AcDb2dVertex
 10
347.4420098752275
 20
-183.9839311803573
 30
0.0
  0
VERTEX
  5
178
330
175
100
AcDbEntity
  8
Wire Cutouts
 62
   179
420
  1842203
370
    35
100
AcDbVertex
100
AcDb2dVertex
 10
338.921444991358
 20
-183.9839311803573
 30
0.0
  0
VERTEX
  5
179
330
175
100
AcDbEntity
  8
Wire Cutouts
 62
   179
420
  1842203
370
    35
100
AcDbVertex
100
AcDb2dVertex
 10
338.921444991358
 20
-180.7126430100843
 30
0.0
  0
VERTEX
  5
17A
330
175
100
AcDbEntity
  8
Wire Cutouts
 62
   179
420
  1842203
370
    35
100
AcDbVertex
100
AcDb2dVertex
 10
347.4420098752275
 20
-180.7126430100843
 30
0.0
  0
SEQEND
  5
17B
330
175
100
AcDbEntity
  8
Wire Cutouts
 62
   179
420
  1842203
370
    35
  0
POLYLINE
  5
17C
330
1F
100
AcDbEntity
  8
Wire Cutouts
 62
   179
420
  1842203
370
    35
100
AcDb2dPolyline
 66
     1
 10
0.0
 20
0.0
 30
0.0
  0
VERTEX
  5
17D
330
17C
100
AcDbEntity
  8
Wire Cutouts
 62
   179
420
  1842203
370
    35
100
AcDbVertex
100
AcDb2dVertex
 10
433.6212076156387
 20
-39.0066367957258
 30
0.0
  0
VERTEX
  5
17E
330
17C
100
AcDbEntity
  8
Wire Cutouts
 62
   179
420
  1842203
370
    35
100
AcDbVertex
100
AcDb2dVertex
 10
433.6212076156387
 20
-42.2779249659985
 30
0.0
  0
VERTEX
  5
17F
330
17C
100
AcDbEntity
  8
Wire Cutouts
 62
   179
420
  1842203
370
    35
100
AcDbVertex
100
AcDb2dVertex
 10
425.1006427317712
 20
-42.2779249659985
 30
0.0
  0
VERTEX
  5
180
330
17C
100
AcDbEntity
  8
Wire Cutouts
 62
   179
420
  1842203
370
    35
100
AcDbVertex
100
AcDb2dVertex
 10
425.1006427317712
 20
-39.0066367957258
 30
0.0
  0
VERTEX
  5
181
330
17C
100
AcDbEntity
  8
Wire Cutouts
 62
   179
420
  1842203
370
    35
100
AcDbVertex
100
AcDb2dVertex
 10
433.6212076156387
 20
-39.0066367957258
 30
0.0
  0
SEQEND
  5
182
330
17C
100
AcDbEntity
  8
Wire Cutouts
 62
   179
420
  1842203
370
    35
  0
POLYLINE
  5
183
330
1F
100
AcDbEntity
  8
Wire Cutouts
 62
   179
420
  1842203
370
    35
100
AcDb2dPolyline
 66
     1
 10
0.0
 20
0.0
 30
0.0
  0
VERTEX
  5
184
330
183
100
AcDbEntity
  8
Wire Cutouts
 62
   179
420
  1842203
370
    35
100
AcDbVertex
100
AcDb2dVertex
 10
488.5833817702522
 20
-200.5715388693541
 30
0.0
  0
VERTEX
  5
185
330
183
100
AcDbEntity
  8
Wire Cutouts
 62
   179
420
  1842203
370
    35
100
AcDbVertex
100
AcDb2dVertex
 10
485.3120935999811
 20
-200.5715388693541
 30
0.0
  0
VERTEX
  5
186
330
183
100
AcDbEntity
  8
Wire Cutouts
 62
   179
420
  1842203
370
    35
100
AcDbVertex
100
AcDb2dVertex
 10
485.3120935999811
 20
-192.0509739854849
 30
0.0
  0
VERTEX
  5
187
330
183
100
AcDbEntity
  8
Wire Cutouts
 62
   179
420
  1842203
370
    35
100
AcDbVertex
100
AcDb2dVertex
 10
488.5833817702522
 20
-192.0509739854849
 30
0.0
  0
VERTEX
  5
188
330
183
100
AcDbEntity
  8
Wire Cutouts
 62
   179
420
  1842203
370
    35
100
AcDbVertex
100
AcDb2dVertex
 10
488.5833817702522
 20
-200.5715388693541
 30
0.0
  0
SEQEND
  5
189
330
183
100
AcDbEntity
  8
Wire Cutouts
 62
   179
420
  1842203
370
    35
  0
POLYLINE
  5
18A
330
1F
100
AcDbEntity
  8
Wire Cutouts
 62
   179
420
  1842203
370
    35
100
AcDb2dPolyline
 66
     1
 10
0.0
 20
0.0
 30
0.0
  0
VERTEX
  5
18B
330
18A
100
AcDbEntity
  8
Wire Cutouts
 62
   179
420
  1842203
370
    35
100
AcDbVertex
100
AcDb2dVertex
 10
543.5492547410134
 20
-200.5715388693541
 30
0.0
  0
VERTEX
  5
18C
330
18A
100
AcDbEntity
  8
Wire Cutouts
 62
   179
420
  1842203
370
    35
100
AcDbVertex
100
AcDb2dVertex
 10
540.2779665707399
 20
-200.5715388693541
 30
0.0
  0
VERTEX
  5
18D
330
18A
100
AcDbEntity
  8
Wire Cutouts
 62
   179
420
  1842203
370
    35
100
AcDbVertex
100
AcDb2dVertex
 10
540.2779665707399
 20
-192.0509739854849
 30
0.0
  0
VERTEX
  5
18E
330
18A
100
AcDbEntity
  8
Wire Cutouts
 62
   179
420
  1842203
370
    35
100
AcDbVertex
100
AcDb2dVertex
 10
543.5492547410134
 20
-192.0509739854849
 30
0.0
  0
VERTEX
  5
18F
330
18A
100
AcDbEntity
  8
Wire Cutouts
 62
   179
420
  1842203
370
    35
100
AcDbVertex
100
AcDb2dVertex
 10
543.5492547410134
 20
-200.5715388693541
 30
0.0
  0
SEQEND
  5
190
330
18A
100
AcDbEntity
  8
Wire Cutouts
 62
   179
420
  1842203
370
    35
  0
POLYLINE
  5
191
330
1F
100
AcDbEntity
  8
Wire Cutouts
 62
   179
420
  1842203
370
    35
100
AcDb2dPolyline
 66
     1
 10
0.0
 20
0.0
 30
0.0
  0
VERTEX
  5
192
330
191
100
AcDbEntity
  8
Wire Cutouts
 62
   179
420
  1842203
370
    35
100
AcDbVertex
100
AcDb2dVertex
 10
543.3794925683715
 20
-115.7555664299763
 30
0.0
  0
VERTEX
  5
193
330
191
100
AcDbEntity
  8
Wire Cutouts
 62
   179
420
  1842203
370
    35
100
AcDbVertex
100
AcDb2dVertex
 10
540.1082043980971
 20
-115.7555664299763
 30
0.0
  0
VERTEX
  5
194
330
191
100
AcDbEntity
  8
Wire Cutouts
 62
   179
420
  1842203
370
    35
100
AcDbVertex
100
AcDb2dVertex
 10
540.1082043980971
 20
-107.2350015461065
 30
0.0
  0
VERTEX
  5
195
330
191
100
AcDbEntity
  8
Wire Cutouts
 62
   179
420
  1842203
370
    35
100
AcDbVertex
100
AcDb2dVertex
 10
543.3794925683715
 20
-107.2350015461065
 30
0.0
  0
VERTEX
  5
196
330
191
100
AcDbEntity
  8
Wire Cutouts
 62
   179
420
  1842203
370
    35
100
AcDbVertex
100
AcDb2dVertex
 10
543.3794925683715
 20
-115.7555664299763
 30
0.0
  0
SEQEND
  5
197
330
191
100
AcDbEntity
  8
Wire Cutouts
 62
   179
420
  1842203
370
    35
  0
POLYLINE
  5
198
330
1F
100
AcDbEntity
  8
Wire Cutouts
 62
   179
420
  1842203
370
    35
100
AcDb2dPolyline
 66
     1
 10
0.0
 20
0.0
 30
0.0
  0
VERTEX
  5
199
330
198
100
AcDbEntity
  8
Wire Cutouts
 62
   179
420
  1842203
370
    35
100
AcDbVertex
100
AcDb2dVertex
 10
543.5760093107306
 20
-31.14066959989446
 30
0.0
  0
VERTEX
  5
19A
330
198
100
AcDbEntity
  8
Wire Cutouts
 62
   179
420
  1842203
370
    35
100
AcDbVertex
100
AcDb2dVertex
 10
540.3047211404595
 20
-31.14066959989446
 30
0.0
  0
VERTEX
  5
19B
330
198
100
AcDbEntity
  8
Wire Cutouts
 62
   179
420
  1842203
370
    35
100
AcDbVertex
100
AcDb2dVertex
 10
540.3047211404595
 20
-22.62010471602534
 30
0.0
  0
VERTEX
  5
19C
330
198
100
AcDbEntity
  8
Wire Cutouts
 62
   179
420
  1842203
370
    35
100
AcDbVertex
100
AcDb2dVertex
 10
543.5760093107306
 20
-22.62010471602534
 30
0.0
  0
VERTEX
  5
19D
330
198
100
AcDbEntity
  8
Wire Cutouts
 62
   179
420
  1842203
370
    35
100
AcDbVertex
100
AcDb2dVertex
 10
543.5760093107306
 20
-31.14066959989446
 30
0.0
  0
SEQEND
  5
19E
330
198
100
AcDbEntity
  8
Wire Cutouts
 62
   179
420
  1842203
370
    35
  0
POLYLINE
  5
19F
330
1F
100
AcDbEntity
  8
Wire Cutouts
 62
   179
420
  1842203
370
    35
100
AcDb2dPolyline
 66
     1
 10
0.0
 20
0.0
 30
0.0
  0
VERTEX
  5
1A0
330
19F
100
AcDbEntity
  8
Wire Cutouts
 62
   179
420
  1842203
370
    35
100
AcDbVertex
100
AcDb2dVertex
 10
490.2190258553906
 20
-115.9566420392729
 30
0.0
  0
VERTEX
  5
1A1
330
19F
100
AcDbEntity
  8
Wire Cutouts
 62
   179
420
  1842203
370
    35
100
AcDbVertex
100
AcDb2dVertex
 10
486.9477376851163
 20
-115.9566420392729
 30
0.0
  0
VERTEX
  5
1A2
330
19F
100
AcDbEntity
  8
Wire Cutouts
 62
   179
420
  1842203
370
    35
100
AcDbVertex
100
AcDb2dVertex
 10
486.9477376851163
 20
-107.4360771554035
 30
0.0
  0
VERTEX
  5
1A3
330
19F
100
AcDbEntity
  8
Wire Cutouts
 62
   179
420
  1842203
370
    35
100
AcDbVertex
100
AcDb2dVertex
 10
490.2190258553906
 20
-107.4360771554035
 30
0.0
  0
VERTEX
  5
1A4
330
19F
100
AcDbEntity
  8
Wire Cutouts
 62
   179
420
  1842203
370
    35
100
AcDbVertex
100
AcDb2dVertex
 10
490.2190258553906
 20
-115.9566420392729
 30
0.0
  0
SEQEND
  5
1A5
330
19F
100
AcDbEntity
  8
Wire Cutouts
 62
   179
420
  1842203
370
    35
  0
POLYLINE
  5
1A6
330
1F
100
AcDbEntity
  8
Wire Cutouts
 62
   179
420
  1842203
370
    35
100
AcDb2dPolyline
 66
     1
 10
0.0
 20
0.0
 30
0.0
  0
VERTEX
  5
1A7
330
1A6
100
AcDbEntity
  8
Wire Cutouts
 62
   179
420
  1842203
370
    35
100
AcDbVertex
100
AcDb2dVertex
 10
490.2190258553906
 20
-30.93959399059781
 30
0.0
  0
VERTEX
  5
1A8
330
1A6
100
AcDbEntity
  8
Wire Cutouts
 62
   179
420
  1842203
370
    35
100
AcDbVertex
100
AcDb2dVertex
 10
486.9477376851163
 20
-30.93959399059781
 30
0.0
  0
VERTEX
  5
1A9
330
1A6
100
AcDbEntity
  8
Wire Cutouts
 62
   179
420
  1842203
370
    35
100
AcDbVertex
100
AcDb2dVertex
 10
486.9477376851163
 20
-22.4190291067287
 30
0.0
  0
VERTEX
  5
1AA
330
1A6
100
AcDbEntity
  8
Wire Cutouts
 62
   179
420
  1842203
370
    35
100
AcDbVertex
100
AcDb2dVertex
 10
490.2190258553906
 20
-22.4190291067287
 30
0.0
  0
VERTEX
  5
1AB
330
1A6
100
AcDbEntity
  8
Wire Cutouts
 62
   179
420
  1842203
370
    35
100
AcDbVertex
100
AcDb2dVertex
 10
490.2190258553906
 20
-30.93959399059781
 30
0.0
  0
SEQEND
  5
1AC
330
1A6
100
AcDbEntity
  8
Wire Cutouts
 62
   179
420
  1842203
370
    35
  0
POLYLINE
  5
1AD
330
1F
100
AcDbEntity
  8
Wire Cutouts
 62
   179
420
  1842203
370
    35
100
AcDb2dPolyline
 66
     1
 10
0.0
 20
0.0
 30
0.0
  0
VERTEX
  5
1AE
330
1AD
100
AcDbEntity
  8
Wire Cutouts
 62
   179
420
  1842203
370
    35
100
AcDbVertex
100
AcDb2dVertex
 10
477.4123196826545
 20
-39.10717460037412
 30
0.0
  0
VERTEX
  5
1AF
330
1AD
100
AcDbEntity
  8
Wire Cutouts
 62
   179
420
  1842203
370
    35
100
AcDbVertex
100
AcDb2dVertex
 10
477.4123196826545
 20
-42.37846277064682
 30
0.0
  0
VERTEX
  5
1B0
330
1AD
100
AcDbEntity
  8
Wire Cutouts
 62
   179
420
  1842203
370
    35
100
AcDbVertex
100
AcDb2dVertex
 10
468.8917547987863
 20
-42.37846277064682
 30
0.0
  0
VERTEX
  5
1B1
330
1AD
100
AcDbEntity
  8
Wire Cutouts
 62
   179
420
  1842203
370
    35
100
AcDbVertex
100
AcDb2dVertex
 10
468.8917547987863
 20
-39.10717460037412
 30
0.0
  0
VERTEX
  5
1B2
330
1AD
100
AcDbEntity
  8
Wire Cutouts
 62
   179
420
  1842203
370
    35
100
AcDbVertex
100
AcDb2dVertex
 10
477.4123196826545
 20
-39.10717460037412
 30
0.0
  0
SEQEND
  5
1B3
330
1AD
100
AcDbEntity
  8
Wire Cutouts
 62
   179
420
  1842203
370
    35
  0
POLYLINE
  5
1B4
330
1F
100
AcDbEntity
  8
Wire Cutouts
 62
   179
420
  1842203
370
    35
100
AcDb2dPolyline
 66
     1
 10
0.0
 20
0.0
 30
0.0
  0
VERTEX
  5
1B5
330
1B4
100
AcDbEntity
  8
Wire Cutouts
 62
   179
420
  1842203
370
    35
100
AcDbVertex
100
AcDb2dVertex
 10
476.6371405286928
 20
-95.99720837535479
 30
0.0
  0
VERTEX
  5
1B6
330
1B4
100
AcDbEntity
  8
Wire Cutouts
 62
   179
420
  1842203
370
    35
100
AcDbVertex
100
AcDb2dVertex
 10
476.6371405286928
 20
-99.26849654562749
 30
0.0
  0
VERTEX
  5
1B7
330
1B4
100
AcDbEntity
  8
Wire Cutouts
 62
   179
420
  1842203
370
    35
100
AcDbVertex
100
AcDb2dVertex
 10
468.1165756448215
 20
-99.26849654562749
 30
0.0
  0
VERTEX
  5
1B8
330
1B4
100
AcDbEntity
  8
Wire Cutouts
 62
   179
420
  1842203
370
    35
100
AcDbVertex
100
AcDb2dVertex
 10
468.1165756448215
 20
-95.99720837535479
 30
0.0
  0
VERTEX
  5
1B9
330
1B4
100
AcDbEntity
  8
Wire Cutouts
 62
   179
420
  1842203
370
    35
100
AcDbVertex
100
AcDb2dVertex
 10
476.6371405286928
 20
-95.99720837535479
 30
0.0
  0
SEQEND
  5
1BA
330
1B4
100
AcDbEntity
  8
Wire Cutouts
 62
   179
420
  1842203
370
    35
  0
POLYLINE
  5
1BB
330
1F
100
AcDbEntity
  8
Wire Cutouts
 62
   179
420
  1842203
370
    35
100
AcDb2dPolyline
 66
     1
 10
0.0
 20
0.0
 30
0.0
  0
VERTEX
  5
1BC
330
1BB
100
AcDbEntity
  8
Wire Cutouts
 62
   179
420
  1842203
370
    35
100
AcDbVertex
100
AcDb2dVertex
 10
562.7985984751565
 20
-96.19828398465111
 30
0.0
  0
VERTEX
  5
1BD
330
1BB
100
AcDbEntity
  8
Wire Cutouts
 62
   179
420
  1842203
370
    35
100
AcDbVertex
100
AcDb2dVertex
 10
562.7985984751565
 20
-99.46957215492414
 30
0.0
  0
VERTEX
  5
1BE
330
1BB
100
AcDbEntity
  8
Wire Cutouts
 62
   179
420
  1842203
370
    35
100
AcDbVertex
100
AcDb2dVertex
 10
554.2780335912889
 20
-99.46957215492414
 30
0.0
  0
VERTEX
  5
1BF
330
1BB
100
AcDbEntity
  8
Wire Cutouts
 62
   179
420
  1842203
370
    35
100
AcDbVertex
100
AcDb2dVertex
 10
554.2780335912889
 20
-96.19828398465111
 30
0.0
  0
VERTEX
  5
1C0
330
1BB
100
AcDbEntity
  8
Wire Cutouts
 62
   179
420
  1842203
370
    35
100
AcDbVertex
100
AcDb2dVertex
 10
562.7985984751565
 20
-96.19828398465111
 30
0.0
  0
SEQEND
  5
1C1
330
1BB
100
AcDbEntity
  8
Wire Cutouts
 62
   179
420
  1842203
370
    35
  0
POLYLINE
  5
1C2
330
1F
100
AcDbEntity
  8
Wire Cutouts
 62
   179
420
  1842203
370
    35
100
AcDb2dPolyline
 66
     1
 10
0.0
 20
0.0
 30
0.0
  0
VERTEX
  5
1C3
330
1C2
100
AcDbEntity
  8
Wire Cutouts
 62
   179
420
  1842203
370
    35
100
AcDbVertex
100
AcDb2dVertex
 10
562.0234193211954
 20
-180.8131808147329
 30
0.0
  0
VERTEX
  5
1C4
330
1C2
100
AcDbEntity
  8
Wire Cutouts
 62
   179
420
  1842203
370
    35
100
AcDbVertex
100
AcDb2dVertex
 10
562.0234193211954
 20
-184.0844689850056
 30
0.0
  0
VERTEX
  5
1C5
330
1C2
100
AcDbEntity
  8
Wire Cutouts
 62
   179
420
  1842203
370
    35
100
AcDbVertex
100
AcDb2dVertex
 10
553.5028544373241
 20
-184.0844689850056
 30
0.0
  0
VERTEX
  5
1C6
330
1C2
100
AcDbEntity
  8
Wire Cutouts
 62
   179
420
  1842203
370
    35
100
AcDbVertex
100
AcDb2dVertex
 10
553.5028544373241
 20
-180.8131808147329
 30
0.0
  0
VERTEX
  5
1C7
330
1C2
100
AcDbEntity
  8
Wire Cutouts
 62
   179
420
  1842203
370
    35
100
AcDbVertex
100
AcDb2dVertex
 10
562.0234193211954
 20
-180.8131808147329
 30
0.0
  0
SEQEND
  5
1C8
330
1C2
100
AcDbEntity
  8
Wire Cutouts
 62
   179
420
  1842203
370
    35
  0
POLYLINE
  5
1C9
330
1F
100
AcDbEntity
  8
Wire Cutouts
 62
   179
420
  1842203
370
    35
100
AcDb2dPolyline
 66
     1
 10
0.0
 20
0.0
 30
0.0
  0
VERTEX
  5
1CA
330
1C9
100
AcDbEntity
  8
Wire Cutouts
 62
   179
420
  1842203
370
    35
100
AcDbVertex
100
AcDb2dVertex
 10
562.1931814938375
 20
-125.7598667341851
 30
0.0
  0
VERTEX
  5
1CB
330
1C9
100
AcDbEntity
  8
Wire Cutouts
 62
   179
420
  1842203
370
    35
100
AcDbVertex
100
AcDb2dVertex
 10
562.1931814938375
 20
-129.0311549044581
 30
0.0
  0
VERTEX
  5
1CC
330
1C9
100
AcDbEntity
  8
Wire Cutouts
 62
   179
420
  1842203
370
    35
100
AcDbVertex
100
AcDb2dVertex
 10
553.6726166099661
 20
-129.0311549044581
 30
0.0
  0
VERTEX
  5
1CD
330
1C9
100
AcDbEntity
  8
Wire Cutouts
 62
   179
420
  1842203
370
    35
100
AcDbVertex
100
AcDb2dVertex
 10
553.6726166099661
 20
-125.7598667341851
 30
0.0
  0
VERTEX
  5
1CE
330
1C9
100
AcDbEntity
  8
Wire Cutouts
 62
   179
420
  1842203
370
    35
100
AcDbVertex
100
AcDb2dVertex
 10
562.1931814938375
 20
-125.7598667341851
 30
0.0
  0
SEQEND
  5
1CF
330
1C9
100
AcDbEntity
  8
Wire Cutouts
 62
   179
420
  1842203
370
    35
  0
POLYLINE
  5
1D0
330
1F
100
AcDbEntity
  8
Wire Cutouts
 62
   179
420
  1842203
370
    35
100
AcDb2dPolyline
 66
     1
 10
0.0
 20
0.0
 30
0.0
  0
VERTEX
  5
1D1
330
1D0
100
AcDbEntity
  8
Wire Cutouts
 62
   179
420
  1842203
370
    35
100
AcDbVertex
100
AcDb2dVertex
 10
476.6371405286928
 20
-125.7598667341851
 30
0.0
  0
VERTEX
  5
1D2
330
1D0
100
AcDbEntity
  8
Wire Cutouts
 62
   179
420
  1842203
370
    35
100
AcDbVertex
100
AcDb2dVertex
 10
476.6371405286928
 20
-129.0311549044581
 30
0.0
  0
VERTEX
  5
1D3
330
1D0
100
AcDbEntity
  8
Wire Cutouts
 62
   179
420
  1842203
370
    35
100
AcDbVertex
100
AcDb2dVertex
 10
468.1165756448215
 20
-129.0311549044581
 30
0.0
  0
VERTEX
  5
1D4
330
1D0
100
AcDbEntity
  8
Wire Cutouts
 62
   179
420
  1842203
370
    35
100
AcDbVertex
100
AcDb2dVertex
 10
468.1165756448215
 20
-125.7598667341851
 30
0.0
  0
VERTEX
  5
1D5
330
1D0
100
AcDbEntity
  8
Wire Cutouts
 62
   179
420
  1842203
370
    35
100
AcDbVertex
100
AcDb2dVertex
 10
476.6371405286928
 20
-125.7598667341851
 30
0.0
  0
SEQEND
  5
1D6
330
1D0
100
AcDbEntity
  8
Wire Cutouts
 62
   179
420
  1842203
370
    35
  0
POLYLINE
  5
1D7
330
1F
100
AcDbEntity
  8
Wire Cutouts
 62
   179
420
  1842203
370
    35
100
AcDb2dPolyline
 66
     1
 10
0.0
 20
0.0
 30
0.0
  0
VERTEX
  5
1D8
330
1D7
100
AcDbEntity
  8
Wire Cutouts
 62
   179
420
  1842203
370
    35
100
AcDbVertex
100
AcDb2dVertex
 10
476.6371405286928
 20
-180.8131808147329
 30
0.0
  0
VERTEX
  5
1D9
330
1D7
100
AcDbEntity
  8
Wire Cutouts
 62
   179
420
  1842203
370
    35
100
AcDbVertex
100
AcDb2dVertex
 10
476.6371405286928
 20
-184.0844689850056
 30
0.0
  0
VERTEX
  5
1DA
330
1D7
100
AcDbEntity
  8
Wire Cutouts
 62
   179
420
  1842203
370
    35
100
AcDbVertex
100
AcDb2dVertex
 10
468.1165756448215
 20
-184.0844689850056
 30
0.0
  0
VERTEX
  5
1DB
330
1D7
100
AcDbEntity
  8
Wire Cutouts
 62
   179
420
  1842203
370
    35
100
AcDbVertex
100
AcDb2dVertex
 10
468.1165756448215
 20
-180.8131808147329
 30
0.0
  0
VERTEX
  5
1DC
330
1D7
100
AcDbEntity
  8
Wire Cutouts
 62
   179
420
  1842203
370
    35
100
AcDbVertex
100
AcDb2dVertex
 10
476.6371405286928
 20
-180.8131808147329
 30
0.0
  0
SEQEND
  5
1DD
330
1D7
100
AcDbEntity
  8
Wire Cutouts
 62
   179
420
  1842203
370
    35
  0
POLYLINE
  5
1DE
330
1F
100
AcDbEntity
  8
Wire Cutouts
 62
   179
420
  1842203
370
    35
100
AcDb2dPolyline
 66
     1
 10
0.0
 20
0.0
 30
0.0
  0
VERTEX
  5
1DF
330
1DE
100
AcDbEntity
  8
Wire Cutouts
 62
   179
420
  1842203
370
    35
100
AcDbVertex
100
AcDb2dVertex
 10
562.8163382691041
 20
-39.10717460037412
 30
0.0
  0
VERTEX
  5
1E0
330
1DE
100
AcDbEntity
  8
Wire Cutouts
 62
   179
420
  1842203
370
    35
100
AcDbVertex
100
AcDb2dVertex
 10
562.8163382691041
 20
-42.37846277064682
 30
0.0
  0
VERTEX
  5
1E1
330
1DE
100
AcDbEntity
  8
Wire Cutouts
 62
   179
420
  1842203
370
    35
100
AcDbVertex
100
AcDb2dVertex
 10
554.2957733852327
 20
-42.37846277064682
 30
0.0
  0
VERTEX
  5
1E2
330
1DE
100
AcDbEntity
  8
Wire Cutouts
 62
   179
420
  1842203
370
    35
100
AcDbVertex
100
AcDb2dVertex
 10
554.2957733852327
 20
-39.10717460037412
 30
0.0
  0
VERTEX
  5
1E3
330
1DE
100
AcDbEntity
  8
Wire Cutouts
 62
   179
420
  1842203
370
    35
100
AcDbVertex
100
AcDb2dVertex
 10
562.8163382691041
 20
-39.10717460037412
 30
0.0
  0
SEQEND
  5
1E4
330
1DE
100
AcDbEntity
  8
Wire Cutouts
 62
   179
420
  1842203
370
    35
  0
POLYLINE
  5
1E6
330
1F
100
AcDbEntity
  8
Segments
 62
   144
420
  1929399
370
    35
100
AcDb2dPolyline
 66
     1
 10
0.0
 20
0.0
 30
0.0
  0
VERTEX
  5
1E7
330
1E6
100
AcDbEntity
  8
Segments
 62
   144
420
  1929399
370
    35
100
AcDbVertex
100
AcDb2dVertex
 10
293.7115411849076
 20
-101.5852308985066
 30
0.0
  0
VERTEX
  5
1E8
330
1E6
100
AcDbEntity
  8
Segments
 62
   144
420
  1929399
370
    35
100
AcDbVertex
100
AcDb2dVertex
 10
317.776176872085
 20
-77.52061681190004
 30
0.0
  0
VERTEX
  5
1E9
330
1E6
100
AcDbEntity
  8
Segments
 62
   144
420
  1929399
370
    35
100
AcDbVertex
100
AcDb2dVertex
 10
293.7115627854772
 20
-53.45598112472199
 30
0.0
  0
VERTEX
  5
1EA
330
1E6
100
AcDbEntity
  8
Segments
 62
   144
420
  1929399
370
    35
100
AcDbVertex
100
AcDb2dVertex
 10
269.6469270983001
 20
-77.52059521132857
 30
0.0
  0
VERTEX
  5
1EB
330
1E6
100
AcDbEntity
  8
Segments
 62
   144
420
  1929399
370
    35
100
AcDbVertex
100
AcDb2dVertex
 10
293.7115411849076
 20
-101.5852308985066
 30
0.0
  0
SEQEND
  5
1EC
330
1E6
100
AcDbEntity
  8
Segments
 62
   144
420
  1929399
370
    35
  0
POLYLINE
  5
1ED
330
1F
100
AcDbEntity
  8
Segments
 62
   144
420
  1929399
370
    35
100
AcDb2dPolyline
 66
     1
 10
0.0
 20
0.0
 30
0.0
  0
VERTEX
  5
1EE
330
1ED
100
AcDbEntity
  8
Segments
 62
   144
420
  1929399
370
    35
100
AcDbVertex
100
AcDb2dVertex
 10
293.7115411849073
 20
-169.7356624606581
 30
0.0
  0
VERTEX
  5
1EF
330
1ED
100
AcDbEntity
  8
Segments
 62
   144
420
  1929399
370
    35
100
AcDbVertex
100
AcDb2dVertex
 10
317.776176872085
 20
-145.6710483740515
 30
0.0
  0
VERTEX
  5
1F0
330
1ED
100
AcDbEntity
  8
Segments
 62
   144
420
  1929399
370
    35
100
AcDbVertex
100
AcDb2dVertex
 10
293.7115627854768
 20
-121.6064126868738
 30
0.0
  0
VERTEX
  5
1F1
330
1ED
100
AcDbEntity
  8
Segments
 62
   144
420
  1929399
370
    35
100
AcDbVertex
100
AcDb2dVertex
 10
269.6469270983001
 20
-145.67102677348
 30
0.0
  0
VERTEX
  5
1F2
330
1ED
100
AcDbEntity
  8
Segments
 62
   144
420
  1929399
370
    35
100
AcDbVertex
100
AcDb2dVertex
 10
293.7115411849073
 20
-169.7356624606581
 30
0.0
  0
SEQEND
  5
1F3
330
1ED
100
AcDbEntity
  8
Segments
 62
   144
420
  1929399
370
    35
  0
POLYLINE
  5
1F4
330
1F
100
AcDbEntity
  8
Segments
 62
   144
420
  1929399
370
    35
100
AcDb2dPolyline
 66
     1
 10
0.0
 20
0.0
 30
0.0
  0
VERTEX
  5
1F5
330
1F4
100
AcDbEntity
  8
Segments
 62
   144
420
  1929399
370
    35
100
AcDbVertex
100
AcDb2dVertex
 10
557.763142112669
 20
-194.1192493317528
 30
0.0
  0
VERTEX
  5
1F6
330
1F4
100
AcDbEntity
  8
Segments
 62
   144
420
  1929399
370
    35
100
AcDbVertex
100
AcDb2dVertex
 10
543.9007053517105
 20
-180.5140451839618
 30
0.0
  0
VERTEX
  5
1F7
330
1F4
100
AcDbEntity
  8
Segments
 62
   144
420
  1929399
370
    35
100
AcDbVertex
100
AcDb2dVertex
 10
543.9007053517105
 20
-127.7450055951127
 30
0.0
  0
VERTEX
  5
1F8
330
1F4
100
AcDbEntity
  8
Segments
 62
   144
420
  1929399
370
    35
100
AcDbVertex
100
AcDb2dVertex
 10
557.763142112669
 20
-113.8664499285406
 30
0.0
  0
VERTEX
  5
1F9
330
1F4
100
AcDbEntity
  8
Segments
 62
   144
420
  1929399
370
    35
100
AcDbVertex
100
AcDb2dVertex
 10
571.6255684068096
 20
-127.7450055951127
 30
0.0
  0
VERTEX
  5
1FA
330
1F4
100
AcDbEntity
  8
Segments
 62
   144
420
  1929399
370
    35
100
AcDbVertex
100
AcDb2dVertex
 10
571.6255684068096
 20
-180.5140451839618
 30
0.0
  0
VERTEX
  5
1FB
330
1F4
100
AcDbEntity
  8
Segments
 62
   144
420
  1929399
370
    35
100
AcDbVertex
100
AcDb2dVertex
 10
557.763142112669
 20
-194.1192493317528
 30
0.0
  0
SEQEND
  5
1FC
330
1F4
100
AcDbEntity
  8
Segments
 62
   144
420
  1929399
370
    35
  0
INSERT
  5
1FE
330
1F
100
AcDbEntity
  8
Segments
100
AcDbBlockReference
  2
block 2
 10
0.0
 20
0.0
 30
0.0
  0
INSERT
  5
20B
330
1F
100
AcDbEntity
  8
Segments
100
AcDbBlockReference
  2
block 3
 10
0.0
 20
0.0
 30
0.0
  0
INSERT
  5
218
330
1F
100
AcDbEntity
  8
Segments
100
AcDbBlockReference
  2
block 4
 10
0.0
 20
0.0
 30
0.0
  0
INSERT
  5
225
330
1F
100
AcDbEntity
  8
Segments
100
AcDbBlockReference
  2
block 5
 10
0.0
 20
0.0
 30
0.0
  0
INSERT
  5
232
330
1F
100
AcDbEntity
  8
Segments
100
AcDbBlockReference
  2
block 6
 10
0.0
 20
0.0
 30
0.0
  0
INSERT
  5
23F
330
1F
100
AcDbEntity
  8
Segments
100
AcDbBlockReference
  2
block 7
 10
0.0
 20
0.0
 30
0.0
  0
INSERT
  5
24C
330
1F
100
AcDbEntity
  8
Segments
100
AcDbBlockReference
  2
block 8
 10
0.0
 20
0.0
 30
0.0
  0
INSERT
  5
259
330
1F
100
AcDbEntity
  8
Segments
100
AcDbBlockReference
  2
block 9
 10
0.0
 20
0.0
 30
0.0
  0
INSERT
  5
266
330
1F
100
AcDbEntity
  8
Segments
100
AcDbBlockReference
  2
block 10
 10
0.0
 20
0.0
 30
0.0
  0
INSERT
  5
273
330
1F
100
AcDbEntity
  8
Segments
100
AcDbBlockReference
  2
block 11
 10
0.0
 20
0.0
 30
0.0
  0
INSERT
  5
280
330
1F
100
AcDbEntity
  8
Segments
100
AcDbBlockReference
  2
block 12
 10
0.0
 20
0.0
 30
0.0
  0
INSERT
  5
28D
330
1F
100
AcDbEntity
  8
Segments
100
AcDbBlockReference
  2
block 13
 10
0.0
 20
0.0
 30
0.0
  0
INSERT
  5
29A
330
1F
100
AcDbEntity
  8
Segments
100
AcDbBlockReference
  2
block 14
 10
0.0
 20
0.0
 30
0.0
  0
INSERT
  5
2A7
330
1F
100
AcDbEntity
  8
Segments
100
AcDbBlockReference
  2
block 15
 10
0.0
 20
0.0
 30
0.0
  0
INSERT
  5
2B4
330
1F
100
AcDbEntity
  8
Segments
100
AcDbBlockReference
  2
block 16
 10
0.0
 20
0.0
 30
0.0
  0
INSERT
  5
2C1
330
1F
100
AcDbEntity
  8
Segments
100
AcDbBlockReference
  2
block 17
 10
0.0
 20
0.0
 30
0.0
  0
INSERT
  5
2CE
330
1F
100
AcDbEntity
  8
Segments
100
AcDbBlockReference
  2
block 18
 10
0.0
 20
0.0
 30
0.0
  0
INSERT
  5
2DB
330
1F
100
AcDbEntity
  8
Segments
100
AcDbBlockReference
  2
block 19
 10
0.0
 20
0.0
 30
0.0
  0
INSERT
  5
2E8
330
1F
100
AcDbEntity
  8
Segments
100
AcDbBlockReference
  2
block 20
 10
0.0
 20
0.0
 30
0.0
  0
INSERT
  5
2F5
330
1F
100
AcDbEntity
  8
Segments
100
AcDbBlockReference
  2
block 21
 10
0.0
 20
0.0
 30
0.0
  0
INSERT
  5
302
330
1F
100
AcDbEntity
  8
Segments
100
AcDbBlockReference
  2
block 22
 10
0.0
 20
0.0
 30
0.0
  0
INSERT
  5
30F
330
1F
100
AcDbEntity
  8
Segments
100
AcDbBlockReference
  2
block 23
 10
0.0
 20
0.0
 30
0.0
  0
INSERT
  5
31C
330
1F
100
AcDbEntity
  8
Segments
100
AcDbBlockReference
  2
block 24
 10
0.0
 20
0.0
 30
0.0
  0
INSERT
  5
329
330
1F
100
AcDbEntity
  8
Segments
100
AcDbBlockReference
  2
block 25
 10
0.0
 20
0.0
 30
0.0
  0
INSERT
  5
336
330
1F
100
AcDbEntity
  8
Segments
100
AcDbBlockReference
  2
block 26
 10
0.0
 20
0.0
 30
0.0
  0
INSERT
  5
343
330
1F
100
AcDbEntity
  8
Segments
100
AcDbBlockReference
  2
block 27
 10
0.0
 20
0.0
 30
0.0
  0
INSERT
  5
350
330
1F
100
AcDbEntity
  8
Segments
100
AcDbBlockReference
  2
block 28
 10
0.0
 20
0.0
 30
0.0
  0
POLYLINE
  5
35D
330
1F
100
AcDbEntity
  8
Outer Rectangle
 62
   114
420
    38464
370
    35
100
AcDb2dPolyline
 66
     1
 10
0.0
 20
0.0
 30
0.0
  0
VERTEX
  5
35E
330
35D
100
AcDbEntity
  8
Outer Rectangle
 62
   114
420
    38464
370
    35
100
AcDbVertex
100
AcDb2dVertex
 10
596.0132343108937
 20
-228.1195367374602
 30
0.0
  0
VERTEX
  5
35F
330
35D
100
AcDbEntity
  8
Outer Rectangle
 62
   114
420
    38464
370
    35
100
AcDbVertex
100
AcDb2dVertex
 10
6.013234458394401
 20
-228.1195367374602
 30
0.0
  0
VERTEX
  5
360
330
35D
100
AcDbEntity
  8
Outer Rectangle
 62
   114
420
    38464
370
    35
100
AcDbVertex
100
AcDb2dVertex
 10
6.013234458394401
 20
-2.60284939627932
 30
0.0
  0
VERTEX
  5
361
330
35D
100
AcDbEntity
  8
Outer Rectangle
 62
   114
420
    38464
370
    35
100
AcDbVertex
100
AcDb2dVertex
 10
596.0132343108937
 20
-2.60284939627932
 30
0.0
  0
VERTEX
  5
362
330
35D
100
AcDbEntity
  8
Outer Rectangle
 62
   114
420
    38464
370
    35
100
AcDbVertex
100
AcDb2dVertex
 10
596.0132343108937
 20
-228.1195367374602
 30
0.0
  0
SEQEND
  5
363
330
35D
100
AcDbEntity
  8
Outer Rectangle
 62
   114
420
    38464
370
    35
  0
ENDSEC
  0
SECTION
  2
OBJECTS
  0
DICTIONARY
  5
C
330
0
100
AcDbDictionary
281
     1
  3
ACAD_GROUP
350
D
  3
ACAD_LAYOUT
350
1A
  3
ACAD_MATERIAL
350
3B
  3
ACAD_MLEADERSTYLE
350
365
  3
ACAD_MLINESTYLE
350
17
  3
ACAD_PLOTSETTINGS
350
19
  3
ACAD_PLOTSTYLENAME
350
E
  3
ACAD_TABLESTYLE
350
364
  3
ACAD_VISUALSTYLE
350
2A
  0
SUN
  5
3F
330
29
100
AcDbSun
 90
        1
290
     0
 63
     7
421
 16777215
 40
1.0
291
     1
 91
  2455826
 92
 54000000
292
     0
 70
     2
 71
   256
280
     1
  0
DICTIONARY
  5
D
102
{ACAD_REACTORS
330
C
102
}
330
C
100
AcDbDictionary
281
     1
  0
DICTIONARY
  5
1A
102
{ACAD_REACTORS
330
C
102
}
330
C
100
AcDbDictionary
281
     1
  3
Layout1
350
1E
  3
Layout2
350
26
  3
Model
350
22
  0
DICTIONARY
  5
3B
102
{ACAD_REACTORS
330
C
102
}
330
C
100
AcDbDictionary
281
     1
  3
ByBlock
350
3D
  3
ByLayer
350
3C
  3
Global
350
3E
  0
DICTIONARY
  5
365
102
{ACAD_REACTORS
330
C
102
}
330
C
100
AcDbDictionary
281
     1
  0
DICTIONARY
  5
17
102
{ACAD_REACTORS
330
C
102
}
330
C
100
AcDbDictionary
281
     1
  3
Standard
350
18
  0
DICTIONARY
  5
19
102
{ACAD_REACTORS
330
C
102
}
330
C
100
AcDbDictionary
281
     1
  0
ACDBDICTIONARYWDFLT
  5
E
102
{ACAD_REACTORS
330
C
102
}
330
C
100
AcDbDictionary
281
     1
  3
Normal
350
F
100
AcDbDictionaryWithDefault
340
F
  0
DICTIONARY
  5
364
102
{ACAD_REACTORS
330
C
102
}
330
C
100
AcDbDictionary
281
     1
  0
DICTIONARY
  5
2A
102
{ACAD_REACTORS
330
C
102
}
330
C
100
AcDbDictionary
281
     1
  3
2dWireframe
350
2F
  3
3D Hidden
350
31
  3
3dWireframe
350
30
  3
Basic
350
32
  3
Brighten
350
36
  3
ColorChange
350
3A
  3
Conceptual
350
34
  3
Dim
350
35
  3
Facepattern
350
39
  3
Flat
350
2B
  3
FlatWithEdges
350
2C
  3
Gouraud
350
2D
  3
GouraudWithEdges
350
2E
  3
Linepattern
350
38
  3
Realistic
350
33
  3
Thicken
350
37
  0
LAYOUT
  5
1E
102
{ACAD_REACTORS
330
1A
102
}
330
1A
100
AcDbPlotSettings
  1

  2
none_device
  4

  6

 40
0.0
 41
0.0
 42
0.0
 43
0.0
 44
0.0
 45
0.0
 46
0.0
 47
0.0
 48
0.0
 49
0.0
140
0.0
141
0.0
142
1.0
143
1.0
 70
   688
 72
     0
 73
     0
 74
     5
  7

 75
    16
 76
     0
 77
     2
 78
   300
147
1.0
148
0.0
149
0.0
100
AcDbLayout
  1
Layout1
 70
     1
 71
     1
 10
0.0
 20
0.0
 11
12.0
 21
9.0
 12
0.0
 22
0.0
 32
0.0
 14
1.000000000000000E+20
 24
1.000000000000000E+20
 34
1.000000000000000E+20
 15
-1.000000000000000E+20
 25
-1.000000000000000E+20
 35
-1.000000000000000E+20
146
0.0
 13
0.0
 23
0.0
 33
0.0
 16
1.0
 26
0.0
 36
0.0
 17
0.0
 27
1.0
 37
0.0
 76
     0
330
1B
  0
LAYOUT
  5
26
102
{ACAD_REACTORS
330
1A
102
}
330
1A
100
AcDbPlotSettings
  1

  2
none_device
  4

  6

 40
0.0
 41
0.0
 42
0.0
 43
0.0
 44
0.0
 45
0.0
 46
0.0
 47
0.0
 48
0.0
 49
0.0
140
0.0
141
0.0
142
1.0
143
1.0
 70
   688
 72
     0
 73
     0
 74
     5
  7

 75
    16
 76
     0
 77
     2
 78
   300
147
1.0
148
0.0
149
0.0
100
AcDbLayout
  1
Layout2
 70
     1
 71
     2
 10
0.0
 20
0.0
 11
0.0
 21
0.0
 12
0.0
 22
0.0
 32
0.0
 14
0.0
 24
0.0
 34
0.0
 15
0.0
 25
0.0
 35
0.0
146
0.0
 13
0.0
 23
0.0
 33
0.0
 16
1.0
 26
0.0
 36
0.0
 17
0.0
 27
1.0
 37
0.0
 76
     0
330
23
  0
LAYOUT
  5
22
102
{ACAD_REACTORS
330
1A
102
}
330
1A
100
AcDbPlotSettings
  1

  2
none_device
  4

  6

 40
0.0
 41
0.0
 42
0.0
 43
0.0
 44
0.0
 45
0.0
 46
0.0
 47
0.0
 48
0.0
 49
0.0
140
0.0
141
0.0
142
1.0
143
1.0
 70
  1712
 72
     0
 73
     0
 74
     0
  7

 75
     0
 76
     0
 77
     2
 78
   300
147
1.0
148
0.0
149
0.0
100
AcDbLayout
  1
Model
 70
     1
 71
     0
 10
0.0
 20
0.0
 11
12.0
 21
9.0
 12
0.0
 22
0.0
 32
0.0
 14
1.000000000000000E+20
 24
1.000000000000000E+20
 34
1.000000000000000E+20
 15
-1.000000000000000E+20
 25
-1.000000000000000E+20
 35
-1.000000000000000E+20
146
0.0
 13
0.0
 23
0.0
 33
0.0
 16
1.0
 26
0.0
 36
0.0
 17
0.0
 27
1.0
 37
0.0
 76
     0
330
1F
331
29
  0
MATERIAL
  5
3D
102
{ACAD_REACTORS
330
3B
102
}
330
3B
100
AcDbMaterial
  1
ByBlock
 72
     1
 94
      127
  0
MATERIAL
  5
3C
102
{ACAD_REACTORS
330
3B
102
}
330
3B
100
AcDbMaterial
  1
ByLayer
 72
     1
 94
      127
  0
MATERIAL
  5
3E
102
{ACAD_REACTORS
330
3B
102
}
330
3B
100
AcDbMaterial
  1
Global
 72
     1
 94
      127
  0
MLINESTYLE
  5
18
102
{ACAD_REACTORS
330
17
102
}
330
17
100
AcDbMlineStyle
  2
Standard
 70
     0
  3

 62
   256
 51
90.0
 52
90.0
 71
     2
 49
0.5
 62
   256
  6
BYLAYER
 49
-0.5
 62
   256
  6
BYLAYER
  0
ACDBPLACEHOLDER
  5
F
102
{ACAD_REACTORS
330
E
102
}
330
E
  0
VISUALSTYLE
  5
2F
102
{ACAD_REACTORS
330
2A
102
}
330
2A
100
AcDbVisualStyle
  2
2dWireframe
 70
     4
177
     2
291
     0
 71
     0
176
     1
 72
     2
176
     1
 73
     0
176
     1
 90
        0
176
     1
 40
-0.6
176
     1
 41
-30.0
176
     1
 62
     5
 63
     7
421
 16777215
176
     1
 74
     1
176
     1
 91
        4
176
     1
 64
     7
176
     1
 65
   257
176
     1
 75
     1
176
     1
175
     1
176
     1
 42
1.0
176
     1
 92
        0
176
     1
 66
   257
176
     1
 43
1.0
176
     1
 76
     1
176
     1
 77
     6
176
     1
 78
     2
176
     1
 67
     7
176
     1
 79
     5
176
     1
170
     0
176
     1
171
     0
176
     1
290
     0
176
     1
 93
        1
176
     1
 44
0.0
176
     1
173
     0
176
     1
  0
VISUALSTYLE
  5
31
102
{ACAD_REACTORS
330
2A
102
}
330
2A
100
AcDbVisualStyle
  2
3D Hidden
 70
     6
177
     2
291
     0
 71
     1
176
     1
 72
     2
176
     1
 73
     2
176
     1
 90
        0
176
     1
 40
-0.6
176
     1
 41
-30.0
176
     1
 62
     5
 63
     7
421
 16777215
176
     1
 74
     2
176
     1
 91
        2
176
     1
 64
     7
176
     1
 65
   257
176
     1
 75
     2
176
     1
175
     1
176
     1
 42
40.0
176
     1
 92
        0
176
     1
 66
   257
176
     1
 43
1.0
176
     1
 76
     1
176
     1
 77
     6
176
     1
 78
     2
176
     1
 67
     7
176
     1
 79
     3
176
     1
170
     0
176
     1
171
     0
176
     1
290
     0
176
     1
 93
        1
176
     1
 44
0.0
176
     1
173
     0
176
     1
  0
VISUALSTYLE
  5
30
102
{ACAD_REACTORS
330
2A
102
}
330
2A
100
AcDbVisualStyle
  2
3dWireframe
 70
     5
177
     2
291
     0
 71
     0
176
     1
 72
     2
176
     1
 73
     0
176
     1
 90
        0
176
     1
 40
-0.6
176
     1
 41
-30.0
176
     1
 62
     5
 63
     7
421
 16777215
176
     1
 74
     1
176
     1
 91
        4
176
     1
 64
     7
176
     1
 65
   257
176
     1
 75
     1
176
     1
175
     1
176
     1
 42
1.0
176
     1
 92
        0
176
     1
 66
   257
176
     1
 43
1.0
176
     1
 76
     1
176
     1
 77
     6
176
     1
 78
     2
176
     1
 67
     7
176
     1
 79
     5
176
     1
170
     0
176
     1
171
     0
176
     1
290
     0
176
     1
 93
        1
176
     1
 44
0.0
176
     1
173
     0
176
     1
  0
VISUALSTYLE
  5
32
102
{ACAD_REACTORS
330
2A
102
}
330
2A
100
AcDbVisualStyle
  2
Basic
 70
     7
177
     2
291
     1
 71
     1
176
     1
 72
     0
176
     1
 73
     1
176
     1
 90
        0
176
     1
 40
-0.6
176
     1
 41
-30.0
176
     1
 62
     5
 63
     7
421
 16777215
176
     1
 74
     0
176
     1
 91
        4
176
     1
 64
     7
176
     1
 65
   257
176
     1
 75
     1
176
     1
175
     1
176
     1
 42
1.0
176
     1
 92
        8
176
     1
 66
     7
176
     1
 43
1.0
176
     1
 76
     1
176
     1
 77
     6
176
     1
 78
     2
176
     1
 67
     7
176
     1
 79
     5
176
     1
170
     0
176
     1
171
     0
176
     1
290
     0
176
     1
 93
        1
176
     1
 44
0.0
176
     1
173
     0
176
     1
  0
VISUALSTYLE
  5
36
102
{ACAD_REACTORS
330
2A
102
}
330
2A
100
AcDbVisualStyle
  2
Brighten
 70
    12
177
     2
291
     1
 71
     2
176
     1
 72
     2
176
     1
 73
     0
176
     1
 90
        0
176
     1
 40
-0.6
176
     1
 41
-30.0
176
     1
 62
     5
 63
     7
421
 16777215
176
     1
 74
     1
176
     1
 91
        4
176
     1
 64
     7
176
     1
 65
   257
176
     1
 75
     1
176
     1
175
     1
176
     1
 42
1.0
176
     1
 92
        8
176
     1
 66
     7
176
     1
 43
1.0
176
     1
 76
     1
176
     1
 77
     6
176
     1
 78
     2
176
     1
 67
     7
176
     1
 79
     5
176
     1
170
     0
176
     1
171
     0
176
     1
290
     0
176
     1
 93
        1
176
     1
 44
50.0
176
     1
173
     0
176
     1
  0
VISUALSTYLE
  5
3A
102
{ACAD_REACTORS
330
2A
102
}
330
2A
100
AcDbVisualStyle
  2
ColorChange
 70
    16
177
     2
291
     1
 71
     2
176
     1
 72
     2
176
     1
 73
     3
176
     1
 90
        0
176
     1
 40
-0.6
176
     1
 41
-30.0
176
     1
 62
     5
 63
     8
421
  8421504
176
     1
 74
     1
176
     1
 91
        4
176
     1
 64
     7
176
     1
 65
   257
176
     1
 75
     1
176
     1
175
     1
176
     1
 42
1.0
176
     1
 92
        8
176
     1
 66
     8
424
  8421504
176
     1
 43
1.0
176
     1
 76
     1
176
     1
 77
     6
176
     1
 78
     2
176
     1
 67
     7
176
     1
 79
     5
176
     1
170
     0
176
     1
171
     0
176
     1
290
     0
176
     1
 93
        1
176
     1
 44
0.0
176
     1
173
     0
176
     1
  0
VISUALSTYLE
  5
34
102
{ACAD_REACTORS
330
2A
102
}
330
2A
100
AcDbVisualStyle
  2
Conceptual
 70
     9
177
     2
291
     0
 71
     3
176
     1
 72
     2
176
     1
 73
     0
176
     1
 90
        0
176
     1
 40
-0.6
176
     1
 41
-30.0
176
     1
 62
     5
 63
     7
421
 16777215
176
     1
 74
     2
176
     1
 91
        2
176
     1
 64
     7
176
     1
 65
   257
176
     1
 75
     1
176
     1
175
     1
176
     1
 42
40.0
176
     1
 92
        8
176
     1
 66
     7
176
     1
 43
1.0
176
     1
 76
     1
176
     1
 77
     6
176
     1
 78
     2
176
     1
 67
     7
176
     1
 79
     3
176
     1
170
     0
176
     1
171
     0
176
     1
290
     0
176
     1
 93
        1
176
     1
 44
0.0
176
     1
173
     0
176
     1
  0
VISUALSTYLE
  5
35
102
{ACAD_REACTORS
330
2A
102
}
330
2A
100
AcDbVisualStyle
  2
Dim
 70
    11
177
     2
291
     1
 71
     2
176
     1
 72
     2
176
     1
 73
     0
176
     1
 90
        0
176
     1
 40
-0.6
176
     1
 41
-30.0
176
     1
 62
     5
 63
     7
421
 16777215
176
     1
 74
     1
176
     1
 91
        4
176
     1
 64
     7
176
     1
 65
   257
176
     1
 75
     1
176
     1
175
     1
176
     1
 42
1.0
176
     1
 92
        8
176
     1
 66
     7
176
     1
 43
1.0
176
     1
 76
     1
176
     1
 77
     6
176
     1
 78
     2
176
     1
 67
     7
176
     1
 79
     5
176
     1
170
     0
176
     1
171
     0
176
     1
290
     0
176
     1
 93
        1
176
     1
 44
-50.0
176
     1
173
     0
176
     1
  0
VISUALSTYLE
  5
39
102
{ACAD_REACTORS
330
2A
102
}
330
2A
100
AcDbVisualStyle
  2
Facepattern
 70
    15
177
     2
291
     1
 71
     2
176
     1
 72
     2
176
     1
 73
     0
176
     1
 90
        0
176
     1
 40
-0.6
176
     1
 41
-30.0
176
     1
 62
     5
 63
     7
421
 16777215
176
     1
 74
     1
176
     1
 91
        4
176
     1
 64
     7
176
     1
 65
   257
176
     1
 75
     1
176
     1
175
     1
176
     1
 42
1.0
176
     1
 92
        8
176
     1
 66
     7
176
     1
 43
1.0
176
     1
 76
     1
176
     1
 77
     6
176
     1
 78
     2
176
     1
 67
     7
176
     1
 79
     5
176
     1
170
     0
176
     1
171
     0
176
     1
290
     0
176
     1
 93
        1
176
     1
 44
0.0
176
     1
173
     0
176
     1
  0
VISUALSTYLE
  5
2B
102
{ACAD_REACTORS
330
2A
102
}
330
2A
100
AcDbVisualStyle
  2
Flat
 70
     0
177
     2
291
     1
 71
     2
176
     1
 72
     1
176
     1
 73
     1
176
     1
 90
        2
176
     1
 40
-0.6
176
     1
 41
30.0
176
     1
 62
     5
 63
     7
421
 16777215
176
     1
 74
     0
176
     1
 91
        4
176
     1
 64
     7
176
     1
 65
   257
176
     1
 75
     1
176
     1
175
     1
176
     1
 42
1.0
176
     1
 92
        8
176
     1
 66
     7
176
     1
 43
1.0
176
     1
 76
     1
176
     1
 77
     6
176
     1
 78
     2
176
     1
 67
     7
176
     1
 79
     5
176
     1
170
     0
176
     1
171
     0
176
     1
290
     0
176
     1
 93
       13
176
     1
 44
0.0
176
     1
173
     0
176
     1
  0
VISUALSTYLE
  5
2C
102
{ACAD_REACTORS
330
2A
102
}
330
2A
100
AcDbVisualStyle
  2
FlatWithEdges
 70
     1
177
     2
291
     1
 71
     2
176
     1
 72
     1
176
     1
 73
     1
176
     1
 90
        2
176
     1
 40
-0.6
176
     1
 41
30.0
176
     1
 62
     5
 63
     7
421
 16777215
176
     1
 74
     1
176
     1
 91
        4
176
     1
 64
     7
176
     1
 65
   257
176
     1
 75
     1
176
     1
175
     1
176
     1
 42
1.0
176
     1
 92
        0
176
     1
 66
   257
176
     1
 43
1.0
176
     1
 76
     1
176
     1
 77
     6
176
     1
 78
     2
176
     1
 67
     7
176
     1
 79
     5
176
     1
170
     0
176
     1
171
     0
176
     1
290
     0
176
     1
 93
       13
176
     1
 44
0.0
176
     1
173
     0
176
     1
  0
VISUALSTYLE
  5
2D
102
{ACAD_REACTORS
330
2A
102
}
330
2A
100
AcDbVisualStyle
  2
Gouraud
 70
     2
177
     2
291
     1
 71
     2
176
     1
 72
     2
176
     1
 73
     1
176
     1
 90
        2
176
     1
 40
-0.6
176
     1
 41
30.0
176
     1
 62
     5
 63
     7
421
 16777215
176
     1
 74
     0
176
     1
 91
        4
176
     1
 64
     7
176
     1
 65
   257
176
     1
 75
     1
176
     1
175
     1
176
     1
 42
1.0
176
     1
 92
        0
176
     1
 66
     7
176
     1
 43
1.0
176
     1
 76
     1
176
     1
 77
     6
176
     1
 78
     2
176
     1
 67
     7
176
     1
 79
     5
176
     1
170
     0
176
     1
171
     0
176
     1
290
     0
176
     1
 93
       13
176
     1
 44
0.0
176
     1
173
     0
176
     1
  0
VISUALSTYLE
  5
2E
102
{ACAD_REACTORS
330
2A
102
}
330
2A
100
AcDbVisualStyle
  2
GouraudWithEdges
 70
     3
177
     2
291
     1
 71
     2
176
     1
 72
     2
176
     1
 73
     1
176
     1
 90
        2
176
     1
 40
-0.6
176
     1
 41
30.0
176
     1
 62
     5
 63
     7
421
 16777215
176
     1
 74
     1
176
     1
 91
        4
176
     1
 64
     7
176
     1
 65
   257
176
     1
 75
     1
176
     1
175
     1
176
     1
 42
1.0
176
     1
 92
        0
176
     1
 66
   257
176
     1
 43
1.0
176
     1
 76
     1
176
     1
 77
     6
176
     1
 78
     2
176
     1
 67
     7
176
     1
 79
     5
176
     1
170
     0
176
     1
171
     0
176
     1
290
     0
176
     1
 93
       13
176
     1
 44
0.0
176
     1
173
     0
176
     1
  0
VISUALSTYLE
  5
38
102
{ACAD_REACTORS
330
2A
102
}
330
2A
100
AcDbVisualStyle
  2
Linepattern
 70
    14
177
     2
291
     1
 71
     2
176
     1
 72
     2
176
     1
 73
     0
176
     1
 90
        0
176
     1
 40
-0.6
176
     1
 41
-30.0
176
     1
 62
     5
 63
     7
421
 16777215
176
     1
 74
     1
176
     1
 91
        4
176
     1
 64
     7
176
     1
 65
   257
176
     1
 75
     7
176
     1
175
     7
176
     1
 42
1.0
176
     1
 92
        8
176
     1
 66
     7
176
     1
 43
1.0
176
     1
 76
     1
176
     1
 77
     6
176
     1
 78
     2
176
     1
 67
     7
176
     1
 79
     5
176
     1
170
     0
176
     1
171
     0
176
     1
290
     0
176
     1
 93
        1
176
     1
 44
0.0
176
     1
173
     0
176
     1
  0
VISUALSTYLE
  5
33
102
{ACAD_REACTORS
330
2A
102
}
330
2A
100
AcDbVisualStyle
  2
Realistic
 70
     8
177
     2
291
     0
 71
     2
176
     1
 72
     2
176
     1
 73
     0
176
     1
 90
        0
176
     1
 40
-0.6
176
     1
 41
-30.0
176
     1
 62
     5
 63
     7
421
 16777215
176
     1
 74
     1
176
     1
 91
        0
176
     1
 64
     7
176
     1
 65
   257
176
     1
 75
     1
176
     1
175
     1
176
     1
 42
1.0
176
     1
 92
        8
176
     1
 66
     8
424
  7895160
176
     1
 43
1.0
176
     1
 76
     1
176
     1
 77
     6
176
     1
 78
     2
176
     1
 67
     7
176
     1
 79
     5
176
     1
170
     0
176
     1
171
     0
176
     1
290
     0
176
     1
 93
       13
176
     1
 44
0.0
176
     1
173
     0
176
     1
  0
VISUALSTYLE
  5
37
102
{ACAD_REACTORS
330
2A
102
}
330
2A
100
AcDbVisualStyle
  2
Thicken
 70
    13
177
     2
291
     1
 71
     2
176
     1
 72
     2
176
     1
 73
     0
176
     1
 90
        0
176
     1
 40
-0.6
176
     1
 41
-30.0
176
     1
 62
     5
 63
     7
421
 16777215
176
     1
 74
     1
176
     1
 91
        4
176
     1
 64
     7
176
     1
 65
   257
176
     1
 75
     1
176
     1
175
     1
176
     1
 42
1.0
176
     1
 92
       12
176
     1
 66
     7
176
     1
 43
1.0
176
     1
 76
     1
176
     1
 77
     6
176
     1
 78
     2
176
     1
 67
     7
176
     1
 79
     5
176
     1
170
     0
176
     1
171
     0
176
     1
290
     0
176
     1
 93
        1
176
     1
 44
0.0
176
     1
173
     0
176
     1
  0
ENDSEC
  0
EOF
